<svg width="414" height="393" viewBox="0 0 414 393" fill="none" xmlns="http://www.w3.org/2000/svg">
<g clip-path="url(#clip0)">
<path d="M251.68 93.2294H249.524V34.1776C249.524 25.1131 245.923 16.4199 239.514 10.0104C233.104 3.60086 224.411 1.14376e-05 215.346 1.08841e-10H90.2372C85.749 -1.13264e-05 81.3046 0.884006 77.158 2.60158C73.0114 4.31915 69.2437 6.83665 66.07 10.0103C62.8963 13.184 60.3788 16.9517 58.6612 21.0983C56.9436 25.2449 56.0596 29.6892 56.0596 34.1775V358.14C56.0596 362.629 56.9436 367.073 58.6612 371.219C60.3788 375.366 62.8963 379.134 66.0699 382.307C69.2436 385.481 73.0113 387.999 77.1579 389.716C81.3045 391.434 85.7489 392.318 90.2371 392.318H215.346C224.411 392.318 233.104 388.717 239.514 382.308C245.923 375.898 249.524 367.205 249.524 358.14V135.263H251.68L251.68 93.2294Z" fill="#3F3D56"/>
<path d="M216.725 8.8916H200.395C201.146 10.7328 201.432 12.7305 201.229 14.7087C201.026 16.6868 200.34 18.5847 199.231 20.2351C198.122 21.8856 196.624 23.2379 194.869 24.173C193.114 25.1081 191.156 25.5973 189.167 25.5974H117.494C115.505 25.5973 113.547 25.1081 111.793 24.173C110.038 23.2379 108.54 21.8856 107.43 20.2351C106.321 18.5847 105.635 16.6868 105.432 14.7087C105.229 12.7305 105.516 10.7328 106.267 8.8916H91.0137C84.2445 8.8916 77.7525 11.5807 72.9659 16.3672C68.1793 21.1538 65.4902 27.6458 65.4902 34.415V357.902C65.4902 361.254 66.1504 364.573 67.4331 367.67C68.7158 370.766 70.5958 373.58 72.9659 375.95C75.3359 378.32 78.1496 380.2 81.2463 381.483C84.3429 382.766 87.6619 383.426 91.0137 383.426H216.725C220.077 383.426 223.396 382.766 226.493 381.483C229.589 380.2 232.403 378.32 234.773 375.95C237.143 373.58 239.023 370.766 240.306 367.67C241.589 364.573 242.249 361.254 242.249 357.902V34.415C242.249 31.0632 241.589 27.7442 240.306 24.6476C239.023 21.551 237.143 18.7373 234.773 16.3672C232.403 13.9971 229.589 12.1171 226.493 10.8344C223.396 9.55178 220.077 8.8916 216.725 8.89161V8.8916Z" fill="white"/>
<path d="M153.652 69.1333H80.5527V194.011H153.652V69.1333Z" fill="#E6E6E6"/>
<path d="M226.967 203.793H166.211V345.172H226.967V203.793Z" fill="#E6E6E6"/>
<path d="M227.186 69.1333H166.271V103.507H227.186V69.1333Z" fill="#E6E6E6"/>
<path d="M227.186 113.08H166.271V150.065H227.186V113.08Z" fill="#F9A826"/>
<path d="M227.186 159.637H166.271V194.011H227.186V159.637Z" fill="#E6E6E6"/>
<path d="M153.743 203.793H80.6436V258.214H153.743V203.793Z" fill="#E6E6E6"/>
<path d="M153.743 268.763H80.6436V345.286H153.743V268.763Z" fill="#E6E6E6"/>
<path d="M319.784 155.239C319.784 167.123 308.795 165.325 295.24 165.325C281.686 165.325 270.697 167.123 270.697 155.239C270.697 143.355 276.065 122.291 295.24 122.291C315.077 122.291 319.784 143.355 319.784 155.239Z" fill="#2F2E41"/>
<path d="M225.987 133.628C225.549 134.514 225.31 135.485 225.288 136.474C225.266 137.462 225.461 138.443 225.86 139.348C226.258 140.252 226.85 141.059 227.593 141.71C228.337 142.362 229.214 142.842 230.163 143.117L231.4 167.114L241.457 159.713L238.74 138.06C239.098 136.434 238.846 134.734 238.034 133.282C237.221 131.829 235.904 130.725 234.332 130.179C232.76 129.633 231.042 129.682 229.504 130.318C227.966 130.953 226.714 132.131 225.987 133.628V133.628Z" fill="#FFB8B8"/>
<path d="M336.23 269.243C336.776 268.419 337.134 267.485 337.28 266.507C337.426 265.529 337.355 264.532 337.074 263.584C336.792 262.636 336.306 261.762 335.65 261.023C334.994 260.283 334.184 259.697 333.277 259.304L335.059 235.342L324.154 241.424L324.133 263.246C323.575 264.814 323.611 266.532 324.235 268.075C324.859 269.618 326.027 270.879 327.518 271.618C329.009 272.357 330.72 272.523 332.326 272.086C333.931 271.648 335.321 270.636 336.23 269.243Z" fill="#FFB8B8"/>
<path d="M286.009 384.592H294.252L298.174 352.794L286.007 352.795L286.009 384.592Z" fill="#FFB8B8"/>
<path d="M283.906 381.9L300.14 381.899H300.141C301.5 381.899 302.845 382.167 304.1 382.687C305.356 383.207 306.496 383.969 307.457 384.93C308.418 385.89 309.18 387.031 309.7 388.286C310.22 389.541 310.487 390.887 310.487 392.245V392.582L283.906 392.583L283.906 381.9Z" fill="#2F2E41"/>
<path d="M338.457 384.592H346.701L350.623 352.794L338.456 352.795L338.457 384.592Z" fill="#FFB8B8"/>
<path d="M336.354 381.9L352.589 381.899H352.589C353.948 381.899 355.293 382.167 356.549 382.687C357.804 383.207 358.944 383.969 359.905 384.93C360.866 385.89 361.628 387.031 362.148 388.286C362.668 389.541 362.935 390.887 362.935 392.245V392.582L336.354 392.583L336.354 381.9Z" fill="#2F2E41"/>
<path d="M333.752 256.04L333.394 255.975C330.391 255.431 327.352 254.882 324.68 254.307L324.415 254.25L324.414 253.98C324.368 241.791 324.322 229.605 324.255 217.309C317.873 204.445 315.19 190.061 316.505 175.761L316.52 175.61L316.644 175.521C317.807 174.713 319.164 174.23 320.576 174.121C321.988 174.012 323.403 174.281 324.677 174.9C325.923 175.581 326.988 176.55 327.783 177.726C328.578 178.902 329.081 180.251 329.249 181.661C331.679 194.904 334.194 208.619 337 222.132L337.01 222.182L337.006 222.232C335.966 233.254 334.891 244.651 333.788 255.678L333.752 256.04Z" fill="#F9A826"/>
<path d="M328.378 373.259L328.312 372.949C324.456 354.707 320.733 339.852 317.133 325.487C312.818 308.271 308.73 291.957 304.602 270.845C305.169 297.468 306.486 316.595 307.999 338.581C308.683 348.508 309.389 358.773 310.106 370.757L310.128 371.123L309.762 371.114C296.86 370.783 283.641 369.986 270.858 369.216L270.52 369.196L270.542 368.858C272.963 333.183 273.721 310.002 274.275 293.076C275.443 257.365 275.623 251.876 288.925 221.653C289.429 220.507 292.438 217.119 295.745 217.635L321.917 221.708L321.963 221.939C322.701 225.659 326.366 236.947 331.438 252.57C342.282 285.968 358.668 336.44 363.787 366.525L363.845 366.866L363.503 366.914C356.068 367.971 350.717 369.072 345.542 370.135C340.645 371.143 335.582 372.183 328.691 373.212L328.378 373.259Z" fill="#2F2E41"/>
<path d="M305.631 231.149C298.646 231.15 291.741 228.726 286.792 224.006C286.018 223.556 285.364 222.927 284.884 222.172C284.405 221.416 284.114 220.556 284.036 219.665C283.909 218.848 283.962 218.013 284.192 217.219C284.422 216.425 284.823 215.691 285.366 215.069C280.514 209.195 275.503 203.124 270.707 196.942L270.575 196.772L270.728 196.479C273.866 190.484 277.111 184.285 280.227 178.159C280.444 177.626 280.801 177.16 281.26 176.812C281.719 176.464 282.264 176.247 282.837 176.183C283.334 176.089 283.846 176.097 284.34 176.208C284.834 176.318 285.3 176.528 285.711 176.825L285.717 176.676C285.847 173.575 285.977 170.475 286.111 167.535L286.125 167.222L286.44 167.214C292.431 167.082 298.626 166.945 304.712 166.585L304.943 166.571L307.961 173.303C312.864 172.827 317.796 173.829 322.125 176.178L322.324 176.285L322.301 176.509C321.087 188.08 321.351 199.759 323.087 211.263C322.992 216.515 322.891 221.884 321.825 226.164L321.794 226.288L321.688 226.361C316.93 229.518 311.34 231.185 305.631 231.149Z" fill="#F9A826"/>
<path d="M279.919 201.939L279.517 201.755C274.823 199.4 270.115 196.788 265.562 194.262L264.932 194.139C252.944 191.732 246.34 190.407 235.524 184.065L235.441 184.015L235.396 183.93C229.98 173.584 228.47 164.541 229.822 150.563L229.849 150.283L230.13 150.261C231.302 150.166 233.213 150.102 235.061 150.04C236.859 149.98 238.718 149.918 239.858 149.829L240.123 149.808L240.204 150.06C241.622 154.436 242.826 158.519 244.1 162.842C245.41 167.286 246.765 171.878 248.414 176.981C254.454 178.717 270.644 178.198 275.678 177.513C278.583 177.214 281.518 178.557 283.543 181.089L283.636 181.206L283.612 181.353C282.504 188.117 281.231 194.92 280.001 201.5L279.919 201.939Z" fill="#F9A826"/>
<path d="M309.43 156.077C313.805 148.073 310.863 138.039 302.86 133.664C294.857 129.289 284.822 132.23 280.447 140.233C276.072 148.237 279.013 158.271 287.017 162.646C295.02 167.021 305.055 164.08 309.43 156.077Z" fill="#FFB8B8"/>
<path d="M276.076 147.17H282.608L285.49 139.101L286.066 147.17H289.188L290.869 142.463L291.205 147.17H314.404C314.404 142.534 312.562 138.087 309.283 134.808C306.005 131.529 301.558 129.688 296.921 129.688H293.559C288.922 129.688 284.475 131.529 281.197 134.808C277.918 138.087 276.076 142.534 276.076 147.17Z" fill="#2F2E41"/>
<path d="M413.461 392.9H0.539062C0.396094 392.9 0.258981 392.843 0.157887 392.742C0.0567935 392.641 0 392.504 0 392.361C0 392.218 0.0567935 392.081 0.157887 391.98C0.258981 391.879 0.396094 391.822 0.539062 391.822H413.461C413.604 391.822 413.741 391.879 413.842 391.98C413.943 392.081 414 392.218 414 392.361C414 392.504 413.943 392.641 413.842 392.742C413.741 392.843 413.604 392.9 413.461 392.9Z" fill="#3F3D56"/>
</g>
<defs>
<clipPath id="clip0">
<rect width="414" height="392.9" fill="white"/>
</clipPath>
</defs>
</svg>
