<svg width="342" height="207" viewBox="0 0 342 207" fill="none" xmlns="http://www.w3.org/2000/svg">
<g clip-path="url(#clip0)">
<path d="M196.915 77.7858C203.159 77.7858 208.221 72.7242 208.221 66.4804C208.221 60.2365 203.159 55.1749 196.915 55.1749C190.672 55.1749 185.61 60.2365 185.61 66.4804C185.61 72.7242 190.672 77.7858 196.915 77.7858Z" fill="#2F2E41"/>
<path d="M200.065 55.4861C202.022 55.4863 203.945 55.9943 205.646 56.9603C207.348 57.9263 208.769 59.3173 209.772 60.9972C210.775 62.6772 211.325 64.5887 211.368 66.5448C211.411 68.5009 210.946 70.4346 210.017 72.157C210.998 70.9307 211.712 69.5136 212.114 67.9961C212.516 66.4786 212.598 64.8939 212.354 63.3431C212.11 61.7923 211.545 60.3093 210.696 58.9887C209.847 57.668 208.733 56.5387 207.423 55.6727C206.114 54.8067 204.638 54.223 203.091 53.9587C201.543 53.6944 199.958 53.7555 198.435 54.1379C196.913 54.5203 195.486 55.2157 194.247 56.1797C193.008 57.1438 191.984 58.3554 191.239 59.7374C192.296 58.4106 193.638 57.3393 195.166 56.6032C196.694 55.8671 198.369 55.4853 200.065 55.4861Z" fill="#2F2E41"/>
<path d="M175.789 66.4564C194.131 66.4564 208.999 51.5879 208.999 33.2466C208.999 14.9052 194.131 0.0366745 175.789 0.0366745C157.448 0.0366745 142.58 14.9052 142.58 33.2466C142.58 51.5879 157.448 66.4564 175.789 66.4564Z" fill="#2F2E41"/>
<path d="M149.725 12.6414C155.447 6.20586 163.446 2.2453 172.033 1.59561C180.62 0.945932 189.124 3.65795 195.75 9.15929C195.478 8.90114 195.209 8.64091 194.927 8.39005C188.344 2.5405 179.707 -0.454811 170.916 0.0628666C162.125 0.580544 153.899 4.56882 148.048 11.1506C142.197 17.7323 139.2 26.3685 139.715 35.1599C140.231 43.9513 144.217 52.1779 150.798 58.0304C151.08 58.2813 151.37 58.5177 151.658 58.7571C145.418 52.8217 141.729 44.6942 141.368 36.0901C141.008 27.4859 144.004 19.0782 149.725 12.6414Z" fill="#2F2E41"/>
<path d="M175.508 66.175C187.321 66.175 196.898 56.5986 196.898 44.7856C196.898 32.9725 187.321 23.3961 175.508 23.3961C163.695 23.3961 154.119 32.9725 154.119 44.7856C154.119 56.5986 163.695 66.175 175.508 66.175Z" fill="#FFB8B8"/>
<path d="M160.31 51.5401C160.31 51.5401 163.125 77.4326 158.622 80.247C154.119 83.0614 184.514 87.0015 184.514 87.0015C184.514 87.0015 180.011 58.8576 191.269 51.5401H160.31Z" fill="#FFB8B8"/>
<path d="M187.328 75.7439C187.328 75.7439 195.71 71.83 183.639 73.2241C171.568 74.6182 161.153 69.2708 161.153 69.2708C161.153 69.2708 157.496 65.6121 156.933 69.5522C156.37 73.4924 158.621 80.8098 146.238 81.9356C133.855 83.0613 122.597 79.6841 118.094 88.1273C113.591 96.5704 115.843 133.158 115.843 133.158C115.843 133.158 124.286 163.553 131.04 168.056C137.795 172.559 196.897 166.367 196.897 166.367L213.784 135.972V100.511C213.784 100.511 211.532 88.1273 195.772 91.5045C195.772 91.5045 185.64 89.253 186.203 84.1871C186.765 79.1212 187.328 75.7439 187.328 75.7439Z" fill="#D0CDE1"/>
<path d="M133.274 189.566C133.622 188.051 133.855 187.193 133.855 187.193L133.675 185.96L131.821 173.367L131.041 168.056C137.794 165.241 139.484 152.294 139.484 152.294L139.739 152.142L140.891 151.453V151.449L145.029 148.968L145.112 148.918L146.784 150.03L150.179 152.294C162.057 161.029 174.153 160.874 181.617 159.498C186.18 158.656 189.016 157.361 189.016 157.361L197.205 154.63L197.459 154.546L197.711 154.584L202.513 155.311L202.6 155.326L202.998 155.385L201.886 163.073L200.273 174.246C204.532 176.501 208.319 180.738 211.63 185.96C212.363 187.116 213.073 188.318 213.761 189.566C214.656 191.182 215.51 192.862 216.324 194.583C216.423 194.788 216.519 194.996 216.616 195.204C216.929 195.878 217.24 196.559 217.541 197.242H131.783C131.895 196.556 132.007 195.9 132.116 195.27C132.121 195.248 132.126 195.226 132.128 195.204C132.169 194.993 132.206 194.788 132.24 194.583C132.619 192.533 132.986 190.821 133.274 189.566Z" fill="#2F2E41"/>
<path d="M129.915 81.3727C129.915 81.3727 136.107 92.6303 133.855 106.702C131.604 120.774 140.61 155.673 140.61 155.673L147.364 153.984C147.364 153.984 142.861 124.714 143.987 117.96C145.113 111.205 145.113 84.75 139.484 81.3727C133.855 77.9954 129.915 81.3727 129.915 81.3727Z" fill="#2F2E41"/>
<path d="M195.376 93.0716L197.742 155.391L202.245 158.206C202.245 158.206 208.718 89.8159 205.341 89.8159H198.469C198.049 89.8159 197.633 89.9014 197.247 90.0671C196.861 90.2328 196.513 90.4753 196.223 90.7799C195.934 91.0844 195.71 91.4446 195.564 91.8386C195.418 92.2326 195.354 92.6521 195.376 93.0716Z" fill="#2F2E41"/>
<path d="M143.706 154.266C145.26 154.266 146.52 153.006 146.52 151.451C146.52 149.897 145.26 148.637 143.706 148.637C142.151 148.637 140.891 149.897 140.891 151.451C140.891 153.006 142.151 154.266 143.706 154.266Z" fill="#F9A826"/>
<path d="M199.993 157.08C201.547 157.08 202.808 155.82 202.808 154.266C202.808 152.711 201.547 151.451 199.993 151.451C198.439 151.451 197.179 152.711 197.179 154.266C197.179 155.82 198.439 157.08 199.993 157.08Z" fill="#F9A826"/>
<path d="M157.214 18.0486V39.4381H162.168L168.472 32.6835L167.628 39.4381H189.524L188.173 32.6835L190.874 39.4381H194.364V18.0486H157.214Z" fill="#2F2E41"/>
<path d="M153.837 43.3784C154.77 43.3784 155.526 41.9923 155.526 40.2825C155.526 38.5728 154.77 37.1867 153.837 37.1867C152.904 37.1867 152.148 38.5728 152.148 40.2825C152.148 41.9923 152.904 43.3784 153.837 43.3784Z" fill="#FFB8B8"/>
<path d="M197.179 43.3784C198.112 43.3784 198.868 41.9923 198.868 40.2825C198.868 38.5728 198.112 37.1867 197.179 37.1867C196.246 37.1867 195.49 38.5728 195.49 40.2825C195.49 41.9923 196.246 43.3784 197.179 43.3784Z" fill="#FFB8B8"/>
<path d="M208.718 153.984C208.718 153.984 183.107 149.2 181.418 157.643C179.729 166.086 209.843 162.427 209.843 162.427L208.718 153.984Z" fill="#FFB8B8"/>
<path d="M208.155 96.0076C208.155 96.0076 269.509 144.978 258.251 156.799C246.994 168.619 204.215 165.242 204.215 165.242L207.029 151.17L231.796 148.355L219.413 135.972L208.155 137.098V96.0076Z" fill="#D0CDE1"/>
<path d="M117.531 177.625L125.412 183.817C125.412 183.817 131.04 201.266 139.484 196.2C147.927 191.134 131.603 173.122 131.603 173.122L122.034 169.745L117.531 177.625Z" fill="#FFB8B8"/>
<path d="M125.412 87.0016L117.553 89.3666C117.553 89.3666 62.9325 129.78 60.6809 141.038C58.4294 152.296 71.3757 158.487 71.3757 158.487L120.346 181.565L125.412 168.056L102.334 156.236C102.334 156.236 104.023 152.858 97.2681 152.296C90.5135 151.733 89.3878 144.415 89.3878 144.415C89.3878 144.415 102.897 123.589 110.214 128.092C117.532 132.595 119.783 135.972 119.783 135.972L125.412 87.0016Z" fill="#D0CDE1"/>
<path d="M237.505 191.495V193.381C237.506 193.898 237.41 194.412 237.222 194.894C237.139 195.109 237.038 195.316 236.921 195.515C236.551 196.136 236.025 196.651 235.397 197.008C234.768 197.365 234.057 197.553 233.333 197.553H94.6229C93.8996 197.553 93.1886 197.365 92.5596 197.008C91.9307 196.651 91.4054 196.136 91.0352 195.515C90.918 195.316 90.8173 195.109 90.7339 194.894C90.546 194.412 90.4501 193.898 90.4512 193.381V191.495C90.451 190.948 90.5588 190.405 90.7684 189.899C90.978 189.393 91.2853 188.933 91.6727 188.545C92.0601 188.158 92.5201 187.851 93.0263 187.641C93.5325 187.431 94.075 187.324 94.6229 187.324H102.618V186.445C102.618 186.422 102.623 186.399 102.632 186.378C102.64 186.357 102.653 186.338 102.669 186.322C102.685 186.305 102.705 186.293 102.726 186.284C102.747 186.275 102.77 186.271 102.792 186.271H106.964C106.987 186.271 107.01 186.275 107.031 186.284C107.052 186.293 107.071 186.305 107.087 186.322C107.103 186.338 107.116 186.357 107.125 186.378C107.134 186.399 107.138 186.422 107.138 186.445V187.324H109.744V186.445C109.744 186.422 109.749 186.399 109.757 186.378C109.766 186.357 109.779 186.338 109.795 186.322C109.811 186.305 109.83 186.293 109.852 186.284C109.873 186.275 109.895 186.271 109.918 186.271H114.09C114.113 186.271 114.135 186.275 114.156 186.284C114.178 186.293 114.197 186.305 114.213 186.322C114.229 186.338 114.242 186.357 114.251 186.378C114.259 186.399 114.264 186.422 114.264 186.445V187.324H116.873V186.445C116.873 186.422 116.878 186.399 116.886 186.378C116.895 186.357 116.908 186.338 116.924 186.322C116.94 186.305 116.959 186.293 116.98 186.284C117.002 186.275 117.024 186.271 117.047 186.271H121.219C121.242 186.271 121.264 186.275 121.285 186.284C121.306 186.293 121.326 186.305 121.342 186.322C121.358 186.338 121.371 186.357 121.38 186.378C121.388 186.399 121.393 186.422 121.393 186.445V187.324H123.999V186.445C123.999 186.422 124.003 186.399 124.012 186.378C124.021 186.357 124.034 186.338 124.05 186.322C124.066 186.305 124.085 186.293 124.106 186.284C124.127 186.275 124.15 186.271 124.173 186.271H128.345C128.367 186.271 128.39 186.275 128.411 186.284C128.432 186.293 128.451 186.305 128.468 186.322C128.484 186.338 128.497 186.357 128.505 186.378C128.514 186.399 128.519 186.422 128.518 186.445V187.324H131.125V186.445C131.125 186.422 131.129 186.399 131.138 186.378C131.147 186.357 131.159 186.338 131.176 186.322C131.192 186.305 131.211 186.293 131.232 186.284C131.253 186.275 131.276 186.271 131.299 186.271H135.47C135.493 186.271 135.516 186.275 135.537 186.284C135.558 186.293 135.577 186.305 135.593 186.322C135.61 186.338 135.622 186.357 135.631 186.378C135.64 186.399 135.644 186.422 135.644 186.445V187.324H138.254V186.445C138.253 186.422 138.258 186.399 138.267 186.378C138.275 186.357 138.288 186.338 138.304 186.322C138.321 186.305 138.34 186.293 138.361 186.284C138.382 186.275 138.405 186.271 138.427 186.271H142.599C142.622 186.271 142.645 186.275 142.666 186.284C142.687 186.293 142.706 186.305 142.722 186.322C142.738 186.338 142.751 186.357 142.76 186.378C142.769 186.399 142.773 186.422 142.773 186.445V187.324H145.379V186.445C145.379 186.422 145.384 186.399 145.392 186.378C145.401 186.357 145.414 186.338 145.43 186.322C145.446 186.305 145.466 186.293 145.487 186.284C145.508 186.275 145.53 186.271 145.553 186.271H178.231C178.254 186.271 178.277 186.275 178.298 186.284C178.319 186.293 178.338 186.305 178.354 186.322C178.37 186.338 178.383 186.357 178.392 186.378C178.401 186.399 178.405 186.422 178.405 186.445V187.324H181.014V186.445C181.014 186.422 181.019 186.399 181.028 186.378C181.036 186.357 181.049 186.338 181.065 186.322C181.081 186.305 181.101 186.293 181.122 186.284C181.143 186.275 181.165 186.271 181.188 186.271H185.36C185.406 186.271 185.45 186.29 185.483 186.322C185.515 186.355 185.534 186.399 185.534 186.445V187.324H188.14V186.445C188.14 186.422 188.145 186.399 188.153 186.378C188.162 186.357 188.175 186.338 188.191 186.322C188.207 186.305 188.226 186.293 188.248 186.284C188.269 186.275 188.291 186.271 188.314 186.271H192.486C192.509 186.271 192.531 186.275 192.552 186.284C192.574 186.293 192.593 186.305 192.609 186.322C192.625 186.338 192.638 186.357 192.647 186.378C192.655 186.399 192.66 186.422 192.66 186.445V187.324H195.266V186.445C195.266 186.422 195.27 186.399 195.279 186.378C195.288 186.357 195.301 186.338 195.317 186.322C195.333 186.305 195.352 186.293 195.373 186.284C195.394 186.275 195.417 186.271 195.44 186.271H199.612C199.634 186.271 199.657 186.275 199.678 186.284C199.699 186.293 199.719 186.305 199.735 186.322C199.751 186.338 199.764 186.357 199.772 186.378C199.781 186.399 199.786 186.422 199.786 186.445V187.324H202.395V186.445C202.395 186.422 202.399 186.399 202.408 186.378C202.417 186.357 202.43 186.338 202.446 186.322C202.462 186.305 202.481 186.293 202.502 186.284C202.523 186.275 202.546 186.271 202.569 186.271H206.741C206.786 186.271 206.83 186.29 206.862 186.322C206.894 186.355 206.912 186.399 206.911 186.445V187.324H209.521V186.445C209.521 186.422 209.525 186.399 209.534 186.378C209.543 186.357 209.555 186.338 209.571 186.322C209.588 186.305 209.607 186.293 209.628 186.284C209.649 186.275 209.672 186.271 209.695 186.271H213.866C213.889 186.271 213.912 186.275 213.933 186.284C213.954 186.293 213.973 186.305 213.989 186.322C214.006 186.338 214.018 186.357 214.027 186.378C214.036 186.399 214.04 186.422 214.04 186.445V187.324H216.646V186.445C216.646 186.422 216.651 186.399 216.66 186.378C216.668 186.357 216.681 186.338 216.697 186.322C216.713 186.305 216.733 186.293 216.754 186.284C216.775 186.275 216.797 186.271 216.82 186.271H220.992C221.015 186.271 221.038 186.275 221.059 186.284C221.08 186.293 221.099 186.305 221.115 186.322C221.131 186.338 221.144 186.357 221.153 186.378C221.162 186.399 221.166 186.422 221.166 186.445V187.324H233.333C233.881 187.324 234.424 187.431 234.93 187.641C235.436 187.851 235.896 188.158 236.283 188.545C236.671 188.933 236.978 189.393 237.188 189.899C237.397 190.405 237.505 190.948 237.505 191.495Z" fill="#3F3D56"/>
<path d="M277.839 194.892H50.1499V195.513H277.839V194.892Z" fill="#3F3D56"/>
<path d="M226.336 112.089H174.634V111.023H151.191V112.089H99.276C98.3485 112.089 97.459 112.457 96.8031 113.113C96.1473 113.769 95.7788 114.658 95.7788 115.586V186.381C95.7788 187.309 96.1473 188.198 96.8031 188.854C97.459 189.51 98.3485 189.879 99.276 189.879H226.336C227.263 189.879 228.153 189.51 228.809 188.854C229.465 188.198 229.833 187.309 229.833 186.381V115.586C229.833 115.127 229.743 114.672 229.567 114.248C229.391 113.823 229.134 113.438 228.809 113.113C228.484 112.788 228.099 112.531 227.674 112.355C227.25 112.179 226.795 112.089 226.336 112.089Z" fill="#3F3D56"/>
<path d="M162.908 144.571C167.197 144.571 170.673 141.094 170.673 136.805C170.673 132.516 167.197 129.039 162.908 129.039C158.619 129.039 155.142 132.516 155.142 136.805C155.142 141.094 158.619 144.571 162.908 144.571Z" stroke="#D0CDE1" stroke-width="2" stroke-miterlimit="10"/>
<path d="M160.422 147.366C164.711 147.366 168.188 143.89 168.188 139.601C168.188 135.312 164.711 131.835 160.422 131.835C156.134 131.835 152.657 135.312 152.657 139.601C152.657 143.89 156.134 147.366 160.422 147.366Z" fill="#D0CDE1"/>
<path d="M66.791 206.117H8.08252V206.819H66.791V206.117Z" fill="#3F3D56"/>
<path d="M323.058 206.117H264.35V206.819H323.058V206.117Z" fill="#3F3D56"/>
<path d="M42.2885 183.493C36.1036 193.59 38.2315 206.15 38.2315 206.15C38.2315 206.15 50.3871 202.339 56.572 192.242C62.7569 182.144 60.629 169.584 60.629 169.584C60.629 169.584 48.4734 173.395 42.2885 183.493Z" fill="#3F3D56"/>
<path d="M37.9792 206.233L37.6275 206.178C37.5003 206.157 24.8427 204.06 17.2622 194.99C9.68155 185.92 9.86397 173.091 9.86645 172.963L9.874 172.607L10.2257 172.663C10.3528 172.683 23.0104 174.78 30.591 183.85C38.1716 192.92 37.9892 205.749 37.9867 205.877L37.9792 206.233Z" fill="#F9A826"/>
<path d="M38.4787 206.553L38.139 206.446C38.0161 206.408 25.8006 202.484 19.6263 192.404C13.452 182.324 15.5066 169.659 15.5278 169.532L15.5873 169.181L15.927 169.288C16.0499 169.326 28.2653 173.25 34.4397 183.33C40.614 193.41 38.5594 206.075 38.5382 206.202L38.4787 206.553ZM16.0884 169.999C15.8072 172.124 14.6863 183.149 20.156 192.079C25.6259 201.009 35.9567 205.02 37.9776 205.735C38.2588 203.61 39.3796 192.584 33.91 183.655C28.4401 174.725 18.1093 170.714 16.0884 169.999H16.0884Z" fill="#3F3D56"/>
<path d="M38.6175 173.431C42.3917 173.431 45.4513 170.372 45.4513 166.598C45.4513 162.824 42.3917 159.764 38.6175 159.764C34.8433 159.764 31.7837 162.824 31.7837 166.598C31.7837 170.372 34.8433 173.431 38.6175 173.431Z" fill="#3F3D56"/>
<path d="M124.185 80.2206L84.9819 40.7079H66.4741V40.0867H85.2413L85.3326 40.1789L124.627 79.7838L124.185 80.2206Z" fill="#3F3D56"/>
<path d="M216.262 78.9781L255.464 39.4654H273.973V38.8442H255.205L255.114 38.9364L215.82 78.5413L216.262 78.9781Z" fill="#3F3D56"/>
<path d="M45.3515 21.2281H0V30.1981H45.3515V21.2281Z" fill="#D0CDE1"/>
<path d="M45.3515 34.9924H0V43.9625H45.3515V34.9924Z" fill="#D0CDE1"/>
<path d="M45.3515 48.7567H0V57.7267H45.3515V48.7567Z" fill="#D0CDE1"/>
<path opacity="0.15" d="M18.7615 21.2281H0V30.1981H18.7615V21.2281Z" fill="black"/>
<path opacity="0.15" d="M6.07386 34.9924H0V43.9624H6.07386V34.9924Z" fill="black"/>
<path opacity="0.15" d="M30.2343 48.7567H0V57.7267H30.2343V48.7567Z" fill="black"/>
<path d="M342 23.2433H296.579V27.2907H342V23.2433Z" fill="#D0CDE1"/>
<path d="M288.558 22.7194H279.564V31.7137H288.558V22.7194Z" fill="#F9A826"/>
<path d="M288.558 36.2108H279.564V45.205H288.558V36.2108Z" fill="#F9A826"/>
<path d="M288.558 49.7022H279.564V58.6964H288.558V49.7022Z" fill="#F9A826"/>
<path d="M291.043 29.8499H281.428V20.2343H291.043V29.8499ZM282.049 29.2287H290.422V20.8556H282.049V29.2287Z" fill="#3F3D56"/>
<path d="M342 36.7347H296.579V40.7821H342V36.7347Z" fill="#D0CDE1"/>
<path d="M291.043 43.3413H281.428V33.7258H291.043V43.3413ZM282.049 42.72H290.422V34.347H282.049V42.72Z" fill="#3F3D56"/>
<path d="M342 50.2261H296.579V54.2735H342V50.2261Z" fill="#D0CDE1"/>
<path d="M291.043 56.8326H281.428V47.2171H291.043V56.8326ZM282.049 56.2113H290.422V47.8384H282.049V56.2113Z" fill="#3F3D56"/>
<path d="M58.7083 30.7679C61.4532 30.7679 63.6783 28.5427 63.6783 25.7978C63.6783 23.053 61.4532 20.8278 58.7083 20.8278C55.9634 20.8278 53.7383 23.053 53.7383 25.7978C53.7383 28.5427 55.9634 30.7679 58.7083 30.7679Z" fill="#F9A826"/>
<path d="M58.7083 45.6779C61.4532 45.6779 63.6783 43.4528 63.6783 40.7079C63.6783 37.963 61.4532 35.7379 58.7083 35.7379C55.9634 35.7379 53.7383 37.963 53.7383 40.7079C53.7383 43.4528 55.9634 45.6779 58.7083 45.6779Z" fill="#F9A826"/>
<path d="M58.7083 59.0349C61.4532 59.0349 63.6783 56.8097 63.6783 54.0649C63.6783 51.32 61.4532 49.0948 58.7083 49.0948C55.9634 49.0948 53.7383 51.32 53.7383 54.0649C53.7383 56.8097 55.9634 59.0349 58.7083 59.0349Z" fill="#F9A826"/>
<path d="M56.2235 29.836C55.1791 29.836 54.1582 29.5263 53.2898 28.946C52.4214 28.3658 51.7445 27.541 51.3448 26.5761C50.9452 25.6112 50.8406 24.5495 51.0443 23.5251C51.2481 22.5008 51.751 21.5598 52.4895 20.8213C53.2281 20.0828 54.169 19.5799 55.1933 19.3761C56.2177 19.1724 57.2794 19.2769 58.2443 19.6766C59.2093 20.0763 60.034 20.7531 60.6142 21.6215C61.1945 22.4899 61.5042 23.5109 61.5042 24.5553C61.5026 25.9554 60.9458 27.2976 59.9558 28.2876C58.9658 29.2776 57.6236 29.8344 56.2235 29.836ZM56.2235 19.8959C55.302 19.8959 54.4011 20.1692 53.6349 20.6812C52.8687 21.1931 52.2715 21.9208 51.9188 22.7722C51.5661 23.6236 51.4739 24.5605 51.6537 25.4643C51.8334 26.3682 52.2772 27.1984 52.9288 27.85C53.5805 28.5016 54.4107 28.9454 55.3145 29.1252C56.2184 29.305 57.1552 29.2127 58.0066 28.86C58.858 28.5074 59.5857 27.9102 60.0977 27.1439C60.6097 26.3777 60.8829 25.4769 60.8829 24.5553C60.8815 23.32 60.3902 22.1357 59.5167 21.2622C58.6432 20.3887 57.4588 19.8973 56.2235 19.8959Z" fill="#3F3D56"/>
<path d="M56.2235 44.746C55.1791 44.746 54.1582 44.4363 53.2898 43.8561C52.4214 43.2759 51.7445 42.4511 51.3448 41.4862C50.9452 40.5213 50.8406 39.4595 51.0443 38.4352C51.2481 37.4108 51.751 36.4699 52.4895 35.7314C53.2281 34.9929 54.169 34.49 55.1933 34.2862C56.2177 34.0825 57.2794 34.187 58.2443 34.5867C59.2093 34.9864 60.034 35.6632 60.6142 36.5316C61.1945 37.4 61.5042 38.421 61.5042 39.4654C61.5026 40.8654 60.9458 42.2077 59.9558 43.1977C58.9658 44.1876 57.6236 44.7445 56.2235 44.746ZM56.2235 34.806C55.302 34.806 54.4011 35.0793 53.6349 35.5912C52.8687 36.1032 52.2715 36.8309 51.9188 37.6823C51.5661 38.5337 51.4739 39.4706 51.6537 40.3744C51.8334 41.2782 52.2772 42.1085 52.9288 42.7601C53.5805 43.4117 54.4107 43.8555 55.3145 44.0353C56.2184 44.2151 57.1552 44.1228 58.0066 43.7701C58.858 43.4175 59.5857 42.8203 60.0977 42.054C60.6097 41.2878 60.8829 40.3869 60.8829 39.4654C60.8815 38.2301 60.3902 37.0457 59.5167 36.1722C58.6432 35.2987 57.4588 34.8074 56.2235 34.806Z" fill="#3F3D56"/>
<path d="M56.2235 58.103C55.1791 58.103 54.1582 57.7933 53.2898 57.2131C52.4214 56.6328 51.7445 55.8081 51.3448 54.8432C50.9452 53.8783 50.8406 52.8165 51.0443 51.7922C51.2481 50.7678 51.751 49.8269 52.4895 49.0884C53.2281 48.3499 54.169 47.8469 55.1933 47.6432C56.2177 47.4394 57.2794 47.544 58.2443 47.9437C59.2093 48.3433 60.034 49.0202 60.6142 49.8886C61.1945 50.757 61.5042 51.7779 61.5042 52.8224C61.5026 54.2224 60.9458 55.5646 59.9558 56.5546C58.9658 57.5446 57.6236 58.1015 56.2235 58.103ZM56.2235 48.163C55.302 48.163 54.4011 48.4362 53.6349 48.9482C52.8687 49.4602 52.2715 50.1879 51.9188 51.0393C51.5661 51.8907 51.4739 52.8275 51.6537 53.7314C51.8334 54.6352 52.2772 55.4654 52.9288 56.1171C53.5805 56.7687 54.4107 57.2125 55.3145 57.3922C56.2184 57.572 57.1552 57.4797 58.0066 57.1271C58.858 56.7744 59.5857 56.1772 60.0977 55.411C60.6097 54.6448 60.8829 53.7439 60.8829 52.8224C60.8815 51.587 60.3902 50.4027 59.5167 49.5292C58.6432 48.6557 57.4588 48.1644 56.2235 48.163Z" fill="#3F3D56"/>
<path d="M307.21 185.149H306.589V180.49C306.589 180.243 306.687 180.006 306.862 179.831C307.036 179.657 307.273 179.558 307.52 179.558H309.074C309.156 179.558 309.235 179.525 309.293 179.467C309.351 179.409 309.384 179.33 309.384 179.247V176.141C309.384 176.059 309.351 175.98 309.293 175.922C309.235 175.863 309.156 175.831 309.074 175.831H307.52C307.273 175.83 307.036 175.732 306.862 175.557C306.687 175.383 306.589 175.146 306.589 174.899V173.346C306.588 173.263 306.556 173.184 306.497 173.126C306.439 173.068 306.36 173.035 306.278 173.035H303.482C303.235 173.035 302.998 172.936 302.824 172.762C302.649 172.587 302.551 172.35 302.55 172.103V171.792C302.55 171.71 302.518 171.631 302.459 171.573C302.401 171.515 302.322 171.482 302.24 171.482H291.057C290.975 171.482 290.896 171.515 290.838 171.573C290.779 171.631 290.747 171.71 290.747 171.792V172.103C290.746 172.35 290.648 172.587 290.473 172.762C290.299 172.936 290.062 173.035 289.815 173.035H287.019C286.937 173.035 286.858 173.068 286.799 173.126C286.741 173.184 286.708 173.263 286.708 173.346V174.899C286.708 175.146 286.61 175.383 286.435 175.557C286.26 175.732 286.024 175.83 285.777 175.831H284.223C284.141 175.831 284.062 175.863 284.004 175.922C283.946 175.98 283.913 176.059 283.913 176.141V179.247C283.913 179.33 283.946 179.409 284.004 179.467C284.062 179.525 284.141 179.558 284.223 179.558H286.087C286.334 179.558 286.571 179.657 286.746 179.831C286.92 180.006 287.019 180.243 287.019 180.49V185.149H286.398V180.49C286.398 180.408 286.365 180.329 286.307 180.27C286.248 180.212 286.17 180.179 286.087 180.179H284.223C283.976 180.179 283.739 180.081 283.565 179.906C283.39 179.731 283.292 179.494 283.292 179.247V176.141C283.292 175.894 283.39 175.657 283.565 175.483C283.739 175.308 283.976 175.21 284.223 175.209H285.777C285.859 175.209 285.938 175.176 285.996 175.118C286.054 175.06 286.087 174.981 286.087 174.899V173.346C286.087 173.098 286.186 172.862 286.36 172.687C286.535 172.512 286.772 172.414 287.019 172.414H289.815C289.897 172.414 289.976 172.381 290.034 172.323C290.092 172.264 290.125 172.185 290.125 172.103V171.792C290.126 171.545 290.224 171.308 290.399 171.134C290.573 170.959 290.81 170.861 291.057 170.861H302.24C302.487 170.861 302.724 170.959 302.898 171.134C303.073 171.308 303.171 171.545 303.172 171.792V172.103C303.172 172.185 303.204 172.264 303.263 172.323C303.321 172.381 303.4 172.414 303.482 172.414H306.278C306.525 172.414 306.762 172.512 306.937 172.687C307.111 172.862 307.209 173.098 307.21 173.346V174.899C307.21 174.981 307.243 175.06 307.301 175.118C307.359 175.176 307.438 175.209 307.52 175.209H309.074C309.321 175.21 309.557 175.308 309.732 175.483C309.907 175.657 310.005 175.894 310.005 176.141V179.247C310.005 179.494 309.907 179.731 309.732 179.906C309.557 180.081 309.321 180.179 309.074 180.179H307.52C307.438 180.179 307.359 180.212 307.301 180.27C307.243 180.329 307.21 180.408 307.21 180.49V185.149Z" fill="#3F3D56"/>
<path d="M306.278 206.893H287.33C287.083 206.893 286.846 206.795 286.671 206.62C286.496 206.445 286.398 206.208 286.398 205.961V192.604H287.019V205.961C287.019 206.044 287.052 206.123 287.11 206.181C287.168 206.239 287.247 206.272 287.33 206.272H306.278C306.36 206.272 306.439 206.239 306.498 206.181C306.556 206.123 306.589 206.044 306.589 205.961V192.604H307.21V205.961C307.21 206.208 307.111 206.445 306.937 206.62C306.762 206.795 306.525 206.893 306.278 206.893Z" fill="#3F3D56"/>
<path d="M310.316 187.324H287.019C286.676 187.324 286.398 187.602 286.398 187.945V194.158C286.398 194.501 286.676 194.779 287.019 194.779H310.316C310.659 194.779 310.937 194.501 310.937 194.158V187.945C310.937 187.602 310.659 187.324 310.316 187.324Z" fill="#F9A826"/>
<path d="M308.297 192.915H285C284.753 192.915 284.516 192.816 284.342 192.642C284.167 192.467 284.069 192.23 284.068 191.983V185.771C284.069 185.524 284.167 185.287 284.342 185.112C284.516 184.937 284.753 184.839 285 184.839H308.297C308.544 184.839 308.781 184.937 308.956 185.112C309.131 185.287 309.229 185.524 309.229 185.771V191.983C309.229 192.23 309.131 192.467 308.956 192.642C308.781 192.816 308.544 192.915 308.297 192.915ZM285 185.46C284.918 185.46 284.839 185.493 284.781 185.551C284.722 185.609 284.69 185.688 284.69 185.771V191.983C284.69 192.065 284.722 192.144 284.781 192.203C284.839 192.261 284.918 192.294 285 192.294H308.297C308.38 192.294 308.459 192.261 308.517 192.203C308.575 192.144 308.608 192.065 308.608 191.983V185.771C308.608 185.688 308.575 185.609 308.517 185.551C308.459 185.493 308.38 185.46 308.297 185.46H285Z" fill="#3F3D56"/>
<path d="M296.027 168.686C295.202 163.123 294.984 157.488 295.377 151.878L296.027 142.594C292.442 149.727 293.253 159.116 296.027 168.686V168.686Z" fill="#D0CDE1"/>
<path d="M298.823 170.239C298.425 166.92 298.321 163.572 298.51 160.234L298.823 154.708C297.098 158.954 297.488 164.543 298.823 170.239Z" fill="#D0CDE1"/>
</g>
<defs>
<clipPath id="clip0">
<rect width="342" height="206.893" fill="white"/>
</clipPath>
</defs>
</svg>
