<svg width="414" height="248" viewBox="0 0 414 248" fill="none" xmlns="http://www.w3.org/2000/svg">
<g clip-path="url(#clip0)">
<path d="M395.209 236.681C389.67 246.995 98.8758 246.129 99.3164 236.68C104.855 226.367 395.649 227.233 395.209 236.681Z" fill="#D0CDE1"/>
<path d="M324.459 15.1769H275.646V57.4263H324.459V15.1769Z" fill="#2F2E41"/>
<path d="M250.215 27.0724H110.341V143.156H250.215V27.0724Z" fill="#3F3D56"/>
<path d="M208.17 46.3512H152.385V53.3244H208.17V46.3512Z" fill="white"/>
<path d="M168.177 62.7587H129.414V66.8606H168.177V62.7587Z" fill="white"/>
<path d="M199.351 89.8311H160.589V93.933H199.351V89.8311Z" fill="white"/>
<path d="M230.526 62.7587H191.763V66.8606H230.526V62.7587Z" fill="#F9A826"/>
<path d="M317.485 38.9678H282.209V40.8669H317.485V38.9678Z" fill="#F9A826"/>
<path d="M317.075 43.1457H281.799V45.0447H317.075V43.1457Z" fill="#F9A826"/>
<path d="M317.485 47.3235H282.209V49.2226H317.485V47.3235Z" fill="#F9A826"/>
<path d="M317.485 25.0215H282.209V26.9205H317.485V25.0215Z" fill="#F9A826"/>
<path d="M317.075 29.1993H281.799V31.0983H317.075V29.1993Z" fill="#F9A826"/>
<path d="M317.485 33.3771H282.209V35.2762H317.485V33.3771Z" fill="#F9A826"/>
<path d="M338.405 29.1234H289.593V71.3727H338.405V29.1234Z" fill="#3F3D56"/>
<path d="M331.432 52.9142H296.156V54.8133H331.432V52.9142Z" fill="#F9A826"/>
<path d="M331.022 57.0921H295.745V58.9911H331.022V57.0921Z" fill="#F9A826"/>
<path d="M331.432 61.2699H296.156V63.1689H331.432V61.2699Z" fill="#F9A826"/>
<path d="M331.432 38.9678H296.156V40.8669H331.432V38.9678Z" fill="#F9A826"/>
<path d="M331.022 43.1457H295.745V45.0447H331.022V43.1457Z" fill="#F9A826"/>
<path d="M331.432 47.3235H296.156V49.2226H331.432V47.3235Z" fill="#F9A826"/>
<path d="M48.8124 45.5308H0V87.7802H48.8124V45.5308Z" fill="#3F3D56"/>
<path d="M41.8392 69.3218H6.56305V71.2208H41.8392V69.3218Z" fill="#F9A826"/>
<path d="M41.429 73.4996H6.15289V75.3986H41.429V73.4996Z" fill="#F9A826"/>
<path d="M41.8392 77.6774H6.56305V79.5764H41.8392V77.6774Z" fill="#F9A826"/>
<path d="M41.8392 55.3754H6.56305V57.2744H41.8392V55.3754Z" fill="#F9A826"/>
<path d="M41.429 59.5532H6.15289V61.4522H41.429V59.5532Z" fill="#F9A826"/>
<path d="M41.8392 63.7311H6.56305V65.6301H41.8392V63.7311Z" fill="#F9A826"/>
<path d="M231.141 76.2949H129.414V80.3968H231.141V76.2949Z" fill="white"/>
<path d="M152.18 89.8311H129.414V93.933H152.18V89.8311Z" fill="#F9A826"/>
<path d="M152.18 116.904H129.414V121.005H152.18V116.904Z" fill="white"/>
<path d="M230.526 89.8311H207.76V93.933H230.526V89.8311Z" fill="white"/>
<path d="M231.141 103.367H129.414V107.469H231.141V103.367Z" fill="white"/>
<path d="M231.141 116.904H171.459V121.005H231.141V116.904Z" fill="white"/>
<path d="M221.417 65.059L220.766 64.5604L265.189 6.56281H309.282V7.38351H265.594L221.417 65.059Z" fill="#2F2E41"/>
<path d="M131.814 92.1937L66.7093 36.5067H22.9705V35.6864H67.0122L132.347 91.5703L131.814 92.1937Z" fill="#2F2E41"/>
<path d="M309.282 13.126C312.906 13.126 315.845 10.1877 315.845 6.563C315.845 2.93836 312.906 0 309.282 0C305.657 0 302.719 2.93836 302.719 6.563C302.719 10.1877 305.657 13.126 309.282 13.126Z" fill="#F9A826"/>
<path d="M22.9705 42.6595C26.5952 42.6595 29.5335 39.7212 29.5335 36.0965C29.5335 32.4719 26.5952 29.5335 22.9705 29.5335C19.3459 29.5335 16.4075 32.4719 16.4075 36.0965C16.4075 39.7212 19.3459 42.6595 22.9705 42.6595Z" fill="#F9A826"/>
<path d="M366.627 229.74C366.627 229.74 376.197 197.54 339.802 179.206L366.627 229.74Z" fill="#D0CDE1"/>
<path d="M367.819 229.912C367.819 229.912 371.613 198.132 414 196.14L367.819 229.912Z" fill="#D0CDE1"/>
<path d="M205.205 224.826L195.312 224.167L198.609 239.006L209.821 234.389L205.205 224.826Z" fill="#FFB9B9"/>
<path d="M295.888 197.126L272.805 174.703L259.615 184.925L233.564 216.252L236.532 220.869L268.189 199.435L289.623 227.464L310.068 217.242L295.888 197.126Z" fill="#2F2E41"/>
<path opacity="0.1" d="M295.888 197.126L272.805 174.703L259.615 184.925L233.564 216.252L236.532 220.869L268.189 199.435L289.623 227.464L310.068 217.242L295.888 197.126Z" fill="black"/>
<path d="M297.867 211.966L294.899 214.274L270.827 206.03L265.221 203.722L254.009 206.03C254.009 206.03 254.009 196.797 264.561 197.126L275.443 199.764L288.304 200.754L297.867 211.966Z" fill="#FFB9B9"/>
<path d="M319.301 236.368L312.046 240.984H303.472L263.572 226.145L205.205 236.697L203.556 224.167L256.977 200.754L303.802 216.252L319.301 236.368Z" fill="#2F2E41"/>
<path d="M272.475 177.671L267.529 178.66L266.451 177.402C265.598 176.407 265.057 175.182 264.897 173.88C264.737 172.579 264.964 171.259 265.55 170.086L279.4 151.95C279.4 151.95 283.357 143.046 289.623 146.673C295.888 150.301 284.347 156.236 284.347 156.236L277.422 167.118L278.081 172.724L272.475 177.671Z" fill="#FFB9B9"/>
<path d="M303.802 156.236C310.905 156.236 316.663 150.479 316.663 143.376C316.663 136.273 310.905 130.515 303.802 130.515C296.7 130.515 290.942 136.273 290.942 143.376C290.942 150.479 296.7 156.236 303.802 156.236Z" fill="#FFB9B9"/>
<path d="M298.031 152.774L303.967 166.954L318.147 161.018C318.147 161.018 313.53 149.806 313.53 149.476C313.53 149.147 298.031 152.774 298.031 152.774Z" fill="#FFB9B9"/>
<path d="M337.078 194.723C337.078 202.484 335.855 210.197 333.454 217.578L332.491 220.539L327.875 241.644L322.928 242.963L319.301 238.346L312.046 233.07L306.77 224.496L302.246 216.958L300.834 214.604L295.888 189.872L277.092 179.32L270.826 178.33L272.145 174.703L277.751 167.118L283.357 166.459L285.006 165.14L286.325 165.799L291.601 162.832L293.25 163.491L302.892 164.388L308.749 163.161L317.171 158.64L320.62 159.204L332.491 169.097C335.526 177.3 337.079 185.976 337.078 194.723Z" fill="#575A89"/>
<path d="M198.348 229.932C198.348 229.932 201.302 224.926 200.054 224.342C198.807 223.758 193.509 221.428 193.509 221.428L185.74 218.853C185.74 218.853 174.529 202.191 174.283 216.681C174.037 231.17 182.445 234.653 182.445 234.653C182.445 234.653 189.945 250.793 194.194 248.219C198.442 245.645 202.693 236.909 202.693 236.909C202.693 236.909 195.032 232.79 198.348 229.932Z" fill="#2F2E41"/>
<path opacity="0.1" d="M333.48 191.85L320.95 200.094L302.246 216.958L300.835 214.604L296.877 194.818H297.867L308.089 176.022L333.48 191.85Z" fill="black"/>
<path d="M308.089 174.043L297.867 192.839H294.239L291.931 199.435L286.655 200.754L300.835 216.252L320.95 198.116L333.48 189.872L308.089 174.043Z" fill="#575A89"/>
<path d="M293.799 133.813L292.406 134.35C292.192 134.204 292.008 134.018 291.867 133.801C291.726 133.584 291.629 133.342 291.583 133.087C291.536 132.832 291.541 132.571 291.597 132.318C291.653 132.066 291.759 131.827 291.909 131.615L289.334 131.495C290.987 129.293 293.088 127.468 295.499 126.139C297.911 124.811 300.576 124.009 303.321 123.788C306.065 123.567 308.824 123.931 311.417 124.856C314.01 125.781 316.377 127.247 318.361 129.155C318.478 128.751 319.756 129.537 320.278 130.333C320.453 129.676 321.652 132.852 322.076 135.098C322.272 134.35 323.026 135.557 322.365 136.715C322.784 136.654 322.973 137.725 322.649 138.322C323.107 138.107 323.03 139.386 322.533 140.241C323.187 140.182 317.377 149.199 315.025 154.469C314.342 151.33 313.574 148.026 311.372 145.688C310.997 145.291 310.587 144.929 310.178 144.567L307.964 142.613C305.39 140.341 303.049 137.537 299.62 136.688C297.263 136.104 295.773 135.972 297.057 133.317C295.897 133.801 294.813 134.521 293.643 134.971C293.658 134.6 293.822 134.185 293.799 133.813Z" fill="#2F2E41"/>
<path d="M310.233 147.168C311.507 147.168 312.541 146.135 312.541 144.86C312.541 143.585 311.507 142.552 310.233 142.552C308.958 142.552 307.924 143.585 307.924 144.86C307.924 146.135 308.958 147.168 310.233 147.168Z" fill="#FFB9B9"/>
</g>
<defs>
<clipPath id="clip0">
<rect width="414" height="248.497" fill="white"/>
</clipPath>
</defs>
</svg>
