<svg width="414" height="432" viewBox="0 0 414 432" fill="none" xmlns="http://www.w3.org/2000/svg">
<g clip-path="url(#clip0)">
<path d="M392.335 402.216C392.335 418.466 304.509 431.641 196.168 431.641C87.8261 431.641 0 418.466 0 402.216C0 390.711 44.0238 380.745 108.183 375.91C134.641 373.911 164.534 372.791 196.168 372.791C209.172 372.791 221.878 372.98 234.167 373.341C324.322 375.999 392.335 387.914 392.335 402.216Z" fill="#3F3D56"/>
<path opacity="0.1" d="M170.856 408.227C212.444 408.227 246.159 404.119 246.159 399.052C246.159 393.984 212.444 389.876 170.856 389.876C129.267 389.876 95.5526 393.984 95.5526 399.052C95.5526 404.119 129.267 408.227 170.856 408.227Z" fill="black"/>
<path d="M170.539 405.696C209.856 405.696 241.729 371.698 241.729 329.76C241.729 287.822 209.856 253.824 170.539 253.824C131.222 253.824 99.3494 287.822 99.3494 329.76C99.3494 371.698 131.222 405.696 170.539 405.696Z" fill="#3F3D56"/>
<path d="M193.004 374.688H148.708V415.188H193.004V374.688Z" fill="#F9A826"/>
<path d="M250.905 384.497L248.373 398.419L264.826 400.95L275.584 394.622L274.951 384.497H250.905Z" fill="#575A89"/>
<path d="M168.008 123.151C168.008 123.151 166.742 137.705 163.578 138.338C160.414 138.971 170.539 164.283 170.539 164.283H185.726L197.75 161.119L192.054 147.197C192.054 147.197 184.461 137.073 190.156 128.846C195.851 120.62 168.008 123.151 168.008 123.151Z" fill="#A0616A"/>
<path opacity="0.1" d="M168.008 123.151C168.008 123.151 166.742 137.705 163.578 138.338C160.414 138.971 170.539 164.283 170.539 164.283H185.726L197.75 161.119L192.054 147.197C192.054 147.197 184.461 137.073 190.156 128.846C195.851 120.62 168.008 123.151 168.008 123.151Z" fill="black"/>
<path d="M136.368 234.524C136.368 234.524 119.915 266.164 133.204 272.492C146.493 278.82 149.657 278.187 149.657 280.085C149.657 281.984 147.126 281.351 148.391 284.515C149.657 287.679 145.86 300.335 149.657 307.929C153.454 315.522 152.188 321.217 152.188 321.217C152.188 321.217 152.188 321.85 153.454 324.381C154.719 326.912 155.352 328.811 154.719 330.076C154.086 331.342 150.29 339.568 154.086 341.467C157.883 343.365 177.5 344.631 179.398 341.467C181.297 338.303 177.5 336.404 179.398 334.506C181.297 332.608 182.562 331.975 181.297 330.709C180.031 329.444 178.766 313.624 178.766 313.624C178.766 313.624 181.93 295.273 180.664 292.741C179.398 290.21 177.5 287.679 178.766 285.781C180.031 283.882 181.297 284.515 181.93 281.984C182.562 279.453 183.828 273.757 183.828 273.757L190.789 273.125L207.242 276.289C207.242 276.289 225.593 296.538 245.842 302.866C245.842 302.866 251.537 308.561 253.436 308.561C255.334 308.561 255.334 308.561 254.701 309.827C254.069 311.092 252.17 311.092 253.436 312.358C254.701 313.624 256.6 311.725 255.334 313.624C254.069 315.522 252.803 315.522 254.069 316.788C255.334 318.053 253.436 325.014 253.436 325.647C253.436 326.28 247.741 385.763 249.639 387.028C251.537 388.294 278.115 392.091 280.013 387.028C281.912 381.966 278.748 375.638 278.748 375.638C278.748 375.638 288.24 299.702 285.709 294.64C283.177 289.577 274.318 266.797 226.858 252.242C226.858 252.242 213.57 249.711 213.57 247.813C213.57 245.914 212.304 233.891 209.773 233.258C207.242 232.625 192.687 231.993 192.687 231.993L174.336 237.688L149.024 233.258L136.368 234.524Z" fill="#2F2E41"/>
<path d="M158.516 340.834L155.352 352.224C155.352 352.224 152.821 370.576 155.985 375.005C158.47 378.484 162.907 382.745 171.137 383.492C173.443 383.704 175.753 383.122 177.683 381.843C179.614 380.563 181.05 378.663 181.754 376.457C181.849 376.193 181.908 375.917 181.93 375.638C181.93 374.372 180.031 359.185 180.031 359.185L176.867 343.365L176.234 338.936L158.516 340.834Z" fill="#2F2E41"/>
<path d="M250.905 395.254C250.905 395.254 247.741 392.09 247.108 395.254C246.475 398.418 243.944 411.707 248.373 412.34C252.803 412.973 295.201 419.301 299.63 416.77C304.06 414.238 312.286 410.442 307.224 408.543C302.161 406.645 287.607 400.95 287.607 400.95C287.607 400.95 279.381 390.192 278.115 389.559C276.849 388.926 269.889 390.192 266.725 392.723C263.561 395.254 250.905 395.254 250.905 395.254Z" fill="#2F2E41"/>
<path d="M183.195 136.44C194.029 136.44 202.812 127.657 202.812 116.823C202.812 105.989 194.029 97.2065 183.195 97.2065C172.361 97.2065 163.578 105.989 163.578 116.823C163.578 127.657 172.361 136.44 183.195 136.44Z" fill="#A0616A"/>
<path d="M181.297 161.119L173.703 152.893L165.286 136.44C165.286 136.44 159.149 134.541 157.883 137.705C156.618 140.869 133.837 150.994 133.837 150.994C133.837 150.994 139.532 204.149 137.001 209.212C134.47 214.274 130.04 234.524 133.837 236.422C137.634 238.32 155.352 236.422 161.047 238.953C166.743 241.484 183.195 241.484 187.625 238.32C192.054 235.156 193.32 232.625 197.75 234.524C201.521 236.14 210.336 180.887 212.875 164.422C213.088 163.039 212.911 161.623 212.362 160.336C211.813 159.049 210.915 157.941 209.769 157.138C204.091 153.155 193.865 146.292 192.054 147.197C189.523 148.463 181.297 161.119 181.297 161.119Z" fill="#575A89"/>
<path d="M208.507 158.588C209.993 158.959 211.33 159.777 212.338 160.93C213.346 162.083 213.977 163.517 214.146 165.04L219.265 211.11C219.265 211.11 206.609 238.321 200.281 219.969C193.953 201.618 208.507 158.588 208.507 158.588Z" fill="#575A89"/>
<path d="M207.242 215.54L221.163 211.743C221.163 211.743 223.694 229.462 226.225 229.462C228.757 229.462 217.366 239.586 211.671 238.321C205.976 237.055 197.75 232.626 197.117 229.462C196.484 226.298 202.812 213.009 202.812 213.009L207.242 215.54Z" fill="#575A89"/>
<path d="M168.387 125.286C169.721 122.344 169.489 118.914 170.592 115.878C171.182 114.253 172.141 112.786 173.392 111.592C174.643 110.398 176.153 109.51 177.805 108.997C179.456 108.483 181.204 108.359 182.911 108.632C184.619 108.906 186.24 109.571 187.648 110.575C189.066 111.586 190.488 113.007 192.22 112.814C194.085 112.606 195.748 110.526 197.462 111.288C199.362 112.133 198.849 115.539 200.774 116.325C201.788 116.739 202.985 116.102 203.569 115.176C204.081 114.204 204.359 113.126 204.383 112.027C204.649 109.329 204.889 106.472 203.718 104.026C203.226 103.197 202.797 102.331 202.435 101.438C202.23 100.603 202.148 99.743 202.191 98.8847C202.18 95.7124 201.949 92.4035 200.352 89.6622C198.581 86.6203 195.306 84.6751 191.889 83.8264C188.473 82.9776 184.894 83.1077 181.386 83.4047C175.588 83.8956 169.541 84.9478 164.972 88.5525C164.351 89.0061 163.817 89.5676 163.395 90.2101C162.994 90.9735 162.71 91.793 162.554 92.641C161.566 96.6632 160.086 100.548 158.145 104.207C157.212 105.758 156.449 107.406 155.87 109.121C155.385 110.864 155.418 112.85 156.432 114.348C157.258 115.568 158.578 116.218 159.615 117.215C160.642 118.203 161.123 120.103 162.261 120.852C163.255 121.505 164.445 121.044 165.459 121.736C166.76 122.625 166.854 124.574 168.387 125.286Z" fill="#2F2E41"/>
<path d="M184.461 170.611L186.359 166.814C186.359 166.814 214.202 175.041 219.898 182.634C219.898 182.634 233.819 173.775 241.413 175.041L249.006 176.306L225.593 197.189L195.851 194.658L184.461 170.611Z" fill="#F2F2F2"/>
<path d="M183.195 166.814L157.25 202.884L194.586 221.235C194.586 221.235 198.076 223.134 200.76 221.235L225.593 209.845L249.006 176.306L225.593 188.33C225.593 188.33 223.062 183.267 217.999 185.798L183.195 166.814Z" fill="#F9A826"/>
<path d="M223.061 230.727L228.124 217.438C228.124 217.438 239.514 202.884 233.186 195.923C226.858 188.962 219.897 216.173 219.897 216.173L223.061 230.727Z" fill="#A0616A"/>
<path d="M164.653 228.607L175.699 219.651C175.699 219.651 192.854 212.776 190.873 203.58C188.891 194.384 169.218 214.429 169.218 214.429L164.653 228.607Z" fill="#A0616A"/>
<path opacity="0.1" d="M137.317 164.599H136.684C136.684 164.599 126.876 152.893 124.978 168.713C123.079 184.533 116.751 237.055 133.204 238.953C149.657 240.852 161.364 231.043 161.364 231.043C161.364 231.043 173.387 212.692 168.957 212.692C166.814 212.692 160.985 211.73 155.668 212.059C149.997 212.411 144.901 214.009 145.227 212.376C145.86 209.212 155.036 169.029 137.317 164.599Z" fill="black"/>
<path d="M136.368 152.26L133.837 150.995C133.837 150.995 123.712 152.893 121.814 168.713C119.915 184.533 113.587 237.055 130.04 238.954C146.493 240.852 168.641 236.422 168.641 236.422C168.641 236.422 173.07 212.376 168.641 212.376C164.211 212.376 141.43 215.54 142.063 212.376C142.696 209.212 154.086 156.69 136.368 152.26Z" fill="#575A89"/>
<path d="M213.886 223.45L220.864 212.755L225.276 230.411L213.886 235.473V223.45Z" fill="#575A89"/>
<path d="M70.54 70.945C79.9761 70.945 87.6256 63.2956 87.6256 53.8595C87.6256 44.4234 79.9761 36.7739 70.54 36.7739C61.1039 36.7739 53.4545 44.4234 53.4545 53.8595C53.4545 63.2956 61.1039 70.945 70.54 70.945Z" fill="#F2F2F2"/>
<path d="M90.7896 181.052H50.2905V221.551H90.7896V181.052Z" fill="#F2F2F2"/>
<path d="M235.401 0L245.652 17.7544L255.902 35.5089H235.401H214.9L225.15 17.7544L235.401 0Z" fill="#F2F2F2"/>
<path d="M414 106.455C413.755 114.03 411.91 120.101 408.466 124.669C405.021 129.238 400.929 131.522 396.189 131.523C392.328 131.523 388.944 129.287 386.037 124.816C383.129 120.345 381.676 113.467 381.676 104.183C381.676 102.131 381.725 100.176 381.823 98.3192C381.92 96.4627 382.042 94.7036 382.189 93.0419L384.755 68.9272H367.823C364.891 99.4187 362.485 117.56 360.603 123.35C358.722 129.14 355.533 132.036 351.038 132.036C349.009 131.986 347.073 131.175 345.614 129.764C344.768 129.014 344.099 128.086 343.656 127.047C343.212 126.007 343.005 124.882 343.048 123.753C343.048 121.506 344.82 118.367 348.362 114.335C351.905 110.303 353.872 106.626 354.263 103.303L358.661 68.9272H351.551C349.547 68.9391 347.574 69.4291 345.797 70.3564C344.162 71.1076 342.739 72.2536 341.656 73.6914L338.504 78.3824H335.939C338.332 70.9554 341.276 65.3726 344.771 61.6341C348.264 57.8959 352.283 56.0268 356.828 56.0269H412.827V68.9272H393.917C393.33 74.7909 392.878 80.6546 392.561 86.5183C392.242 92.3821 392.084 98.2703 392.084 104.183C392.084 108.19 393.013 111.44 394.87 113.932C396.726 116.424 399.047 117.67 401.833 117.67C403.543 117.67 405.338 116.973 407.22 115.58C408.114 114.954 408.861 114.141 409.411 113.199C409.962 112.256 410.302 111.206 410.409 110.12C410.555 109.046 410.665 108.203 410.738 107.591C410.812 106.981 410.848 106.602 410.848 106.455L414 106.455Z" fill="#F9A826"/>
<path opacity="0.1" d="M414 106.455C413.755 114.03 411.91 120.101 408.466 124.669C405.021 129.238 400.929 131.522 396.189 131.523C392.328 131.523 388.944 129.287 386.037 124.816C383.129 120.345 381.676 113.467 381.676 104.183C381.676 102.131 381.725 100.176 381.823 98.3192C381.92 96.4627 382.042 94.7036 382.189 93.0419L384.755 68.9272H367.823C364.891 99.4187 362.485 117.56 360.603 123.35C358.722 129.14 355.533 132.036 351.038 132.036C349.009 131.986 347.073 131.175 345.614 129.764C344.768 129.014 344.099 128.086 343.656 127.047C343.212 126.007 343.005 124.882 343.048 123.753C343.048 121.506 344.82 118.367 348.362 114.335C351.905 110.303 353.872 106.626 354.263 103.303L358.661 68.9272H351.551C349.547 68.9391 347.574 69.4291 345.797 70.3564C344.162 71.1076 342.739 72.2536 341.656 73.6914L338.504 78.3824H335.939C338.332 70.9554 341.276 65.3726 344.771 61.6341C348.264 57.8959 352.283 56.0268 356.828 56.0269H412.827V68.9272H393.917C393.33 74.7909 392.878 80.6546 392.561 86.5183C392.242 92.3821 392.084 98.2703 392.084 104.183C392.084 108.19 393.013 111.44 394.87 113.932C396.726 116.424 399.047 117.67 401.833 117.67C403.543 117.67 405.338 116.973 407.22 115.58C408.114 114.954 408.861 114.141 409.411 113.199C409.962 112.256 410.302 111.206 410.409 110.12C410.555 109.046 410.665 108.203 410.738 107.591C410.812 106.981 410.848 106.602 410.848 106.455L414 106.455Z" fill="black"/>
<path d="M414 104.165C413.755 111.74 411.91 117.811 408.466 122.379C405.021 126.948 400.929 129.232 396.189 129.233C392.328 129.233 388.944 126.997 386.037 122.526C383.129 118.055 381.676 111.177 381.676 101.893C381.676 99.8407 381.725 97.8861 381.823 96.0292C381.92 94.1727 382.042 92.4136 382.189 90.7518L384.755 66.6371H367.823C364.891 97.1286 362.485 115.27 360.603 121.06C358.722 126.85 355.533 129.746 351.038 129.746C349.009 129.696 347.073 128.885 345.614 127.474C344.768 126.724 344.099 125.796 343.656 124.757C343.212 123.717 343.005 122.592 343.048 121.463C343.048 119.216 344.82 116.077 348.362 112.045C351.905 108.013 353.872 104.336 354.263 101.013L358.661 66.6371H351.551C349.547 66.6491 347.574 67.139 345.797 68.0663C344.162 68.8175 342.739 69.9636 341.656 71.4013L338.504 76.0924H335.939C338.332 68.6653 341.276 63.0825 344.771 59.344C348.264 55.6059 352.283 53.7368 356.828 53.7368H412.827V66.6371H393.917C393.33 72.5009 392.878 78.3646 392.561 84.2283C392.242 90.0921 392.084 95.9803 392.084 101.893C392.084 105.9 393.013 109.15 394.87 111.642C396.726 114.134 399.047 115.38 401.833 115.38C403.543 115.38 405.338 114.683 407.22 113.291C408.114 112.664 408.861 111.851 409.411 110.909C409.962 109.966 410.302 108.916 410.409 107.83C410.555 106.756 410.665 105.913 410.738 105.301C410.812 104.691 410.848 104.312 410.848 104.165H414Z" fill="#F9A826"/>
</g>
<defs>
<clipPath id="clip0">
<rect width="414" height="431.641" fill="white"/>
</clipPath>
</defs>
</svg>
