<svg width="342" height="246" viewBox="0 0 342 246" fill="none" xmlns="http://www.w3.org/2000/svg">
<path d="M62.2346 180.816L83.1606 147.908L36.296 118.107L12.0939 156.167L50.8568 180.816H62.2346Z" fill="#F0F0F0"/>
<path d="M91.8887 191.082H40.0541V180.647H91.8887V191.082ZM40.7273 190.409H91.2156V181.321H40.7273V190.409Z" fill="#3F3D56"/>
<path d="M85.4936 189.23C87.3525 189.23 88.8595 187.723 88.8595 185.865C88.8595 184.006 87.3525 182.499 85.4936 182.499C83.6346 182.499 82.1277 184.006 82.1277 185.865C82.1277 187.723 83.6346 189.23 85.4936 189.23Z" fill="#F9A826"/>
<path d="M76.0691 189.23C77.928 189.23 79.435 187.723 79.435 185.865C79.435 184.006 77.928 182.499 76.0691 182.499C74.2101 182.499 72.7032 184.006 72.7032 185.865C72.7032 187.723 74.2101 189.23 76.0691 189.23Z" fill="#F9A826"/>
<path d="M66.6446 189.23C68.5035 189.23 70.0105 187.723 70.0105 185.865C70.0105 184.006 68.5035 182.499 66.6446 182.499C64.7856 182.499 63.2787 184.006 63.2787 185.865C63.2787 187.723 64.7856 189.23 66.6446 189.23Z" fill="#F9A826"/>
<path d="M57.2201 189.23C59.079 189.23 60.586 187.723 60.586 185.865C60.586 184.006 59.079 182.499 57.2201 182.499C55.3611 182.499 53.8542 184.006 53.8542 185.865C53.8542 187.723 55.3611 189.23 57.2201 189.23Z" fill="#F9A826"/>
<path d="M47.7957 189.23C49.6546 189.23 51.1616 187.723 51.1616 185.865C51.1616 184.006 49.6546 182.499 47.7957 182.499C45.9368 182.499 44.4298 184.006 44.4298 185.865C44.4298 187.723 45.9368 189.23 47.7957 189.23Z" fill="#F9A826"/>
<path d="M261.866 244.094H0V244.768H261.866V244.094Z" fill="#3F3D56"/>
<path d="M136.992 122.249H128.24V113.498H136.992V122.249ZM128.914 121.576H136.318V114.171H128.914V121.576Z" fill="#3F3D56"/>
<path d="M97.6116 128.869L99.1134 129.678L104.224 132.432L112.473 136.877L117.281 127.957C117.734 127.119 118.017 126.199 118.114 125.252C118.211 124.304 118.121 123.347 117.847 122.434C117.574 121.521 117.123 120.672 116.521 119.934C115.919 119.195 115.177 118.583 114.338 118.132C112.545 117.164 110.491 116.79 108.472 117.064C106.453 117.338 104.572 118.246 103.102 119.657L103.1 119.659C102.376 120.354 101.766 121.157 101.291 122.04L97.6116 128.869Z" fill="#2F2E41"/>
<path d="M120.129 219.839L119.121 230.926L115.341 231.43L112.821 218.831L120.129 219.839Z" fill="#FFB8B8"/>
<path d="M114.333 231.43C114.333 231.43 119.121 228.91 120.129 230.926C120.129 230.926 119.373 236.973 122.396 237.729C125.42 238.485 126.68 243.777 122.396 244.281C118.113 244.785 115.341 243.273 113.829 243.273C112.317 243.273 113.829 237.981 113.829 237.981L114.333 231.43Z" fill="#2F2E41"/>
<path d="M89.6389 219.839L90.647 230.926L94.4266 231.43L96.9463 218.831L89.6389 219.839Z" fill="#FFB8B8"/>
<path d="M95.4345 231.43C95.4345 231.43 90.6469 228.91 89.639 230.926C89.639 230.926 90.3949 236.973 87.3711 237.729C84.3474 238.485 83.0875 243.777 87.3711 244.281C91.6548 244.785 94.4266 243.273 95.9385 243.273C97.4503 243.273 95.9385 237.981 95.9385 237.981L95.4345 231.43Z" fill="#2F2E41"/>
<path d="M110.301 130.89C113.92 130.89 116.853 127.957 116.853 124.338C116.853 120.72 113.92 117.787 110.301 117.787C106.683 117.787 103.75 120.72 103.75 124.338C103.75 127.957 106.683 130.89 110.301 130.89Z" fill="#FFB8B8"/>
<path d="M89.387 137.189L94.6786 145.505L100.978 145.001L111.309 145.757C111.309 145.757 112.284 143.806 113.081 141.909C113.517 140.961 113.852 139.971 114.081 138.953C114.333 137.189 110.805 135.425 110.805 135.425C110.805 135.425 110.667 135.4 110.435 135.345C110.128 135.272 109.654 135.151 109.135 134.974C107.963 134.576 106.554 133.901 106.27 132.906C105.766 131.142 109.545 128.622 109.545 128.622L105.01 124.338C105.01 124.338 100.981 129.935 96.0872 131.21C95.8035 131.285 95.5157 131.344 95.2254 131.386C95.2103 131.389 95.1977 131.391 95.1826 131.394C89.891 132.15 89.387 137.189 89.387 137.189Z" fill="#FFB8B8"/>
<path d="M92.1587 134.922L89.387 137.189C89.387 137.189 87.1191 148.024 87.8751 151.048C88.631 154.072 87.6231 156.844 87.6231 157.348C87.6231 157.852 85.3553 176.75 85.3553 176.75C85.3553 176.75 80.8196 186.829 85.6072 185.822C90.3949 184.814 88.631 174.734 88.631 174.734L94.4266 157.096V142.229L92.1587 134.922Z" fill="#FFB8B8"/>
<path d="M112.065 136.937L114.081 138.449L115.089 159.615L122.648 177.758C122.648 177.758 128.192 186.577 124.664 186.829C121.136 187.081 118.869 177.758 118.869 177.758L112.065 160.371L111.057 143.489L112.065 136.937Z" fill="#FFB8B8"/>
<path d="M99.4662 138.449C99.4662 138.449 104.506 141.977 112.569 140.717C112.569 140.717 114.837 145.253 113.577 147.772C112.317 150.292 115.089 156.34 115.593 157.096C116.097 157.852 121.892 173.474 123.908 190.357C125.924 207.24 131.468 218.831 126.68 220.343C121.892 221.855 112.065 223.618 111.057 222.107C110.049 220.595 108.537 183.05 108.537 183.05L105.766 197.412C105.766 197.412 109.545 221.855 106.774 222.358C104.002 222.862 86.6152 221.351 87.1191 218.327C87.6231 215.303 92.6627 199.428 92.6627 199.428C92.6627 199.428 92.4107 167.679 97.4503 161.631C97.4503 161.631 99.4662 158.356 96.6944 154.072C93.9226 149.788 94.1746 142.985 94.1746 142.985C94.1746 142.985 96.1904 142.985 99.4662 138.449Z" fill="#2F2E41"/>
<path d="M95.2253 131.386L99.4664 140.717L100.474 140.213L96.087 131.21L95.2253 131.386Z" fill="#2F2E41"/>
<path d="M109.135 134.974L112.317 141.977L113.081 141.909L112.821 140.717L110.435 135.345C110.127 135.272 109.654 135.151 109.135 134.974Z" fill="#2F2E41"/>
<path d="M99.1134 129.678C99.3557 130.457 99.8227 131.148 100.456 131.663C101.089 132.179 101.86 132.496 102.672 132.575C103.485 132.654 104.303 132.491 105.023 132.108C105.744 131.724 106.335 131.137 106.723 130.419C103.536 126.251 106.27 123.633 111.448 121.652C111.838 120.928 112.004 120.105 111.924 119.286C111.845 118.468 111.524 117.691 111.002 117.056C109.575 116.873 108.124 117.012 106.758 117.462C105.391 117.912 104.142 118.662 103.102 119.656L103.1 119.659L99.4208 126.483C99.1588 126.968 98.9966 127.5 98.9438 128.049C98.891 128.598 98.9487 129.152 99.1134 129.678Z" fill="#2F2E41"/>
<path d="M106.396 126.606C106.883 126.606 107.278 125.929 107.278 125.094C107.278 124.259 106.883 123.582 106.396 123.582C105.909 123.582 105.514 124.259 105.514 125.094C105.514 125.929 105.909 126.606 106.396 126.606Z" fill="#FFB8B8"/>
<path d="M109.024 122.627L116.598 126.059L117.987 122.995C117.748 121.875 117.247 120.828 116.525 119.939L111.312 117.578L109.024 122.627Z" fill="#2F2E41"/>
<path d="M127.231 190.24C129.089 190.24 130.596 188.733 130.596 186.874C130.596 185.015 129.089 183.508 127.231 183.508C125.372 183.508 123.865 185.015 123.865 186.874C123.865 188.733 125.372 190.24 127.231 190.24Z" fill="#F9A826"/>
<path d="M19.1709 210.249C20.3858 210.249 21.3707 209.264 21.3707 208.05C21.3707 206.835 20.3858 205.85 19.1709 205.85C17.956 205.85 16.9712 206.835 16.9712 208.05C16.9712 209.264 17.956 210.249 19.1709 210.249Z" fill="#FF6584"/>
<path d="M30.2846 219.514H29.6114V244.56H30.2846V219.514Z" fill="#3F3D56"/>
<path d="M29.9481 223.056C31.9042 223.056 33.4899 221.47 33.4899 219.514C33.4899 217.558 31.9042 215.972 29.9481 215.972C27.9919 215.972 26.4062 217.558 26.4062 219.514C26.4062 221.47 27.9919 223.056 29.9481 223.056Z" fill="#3F3D56"/>
<path d="M29.9481 234.951C29.9481 234.951 29.4421 224.068 19.0695 225.333L29.9481 234.951Z" fill="#3F3D56"/>
<path d="M120.837 206.751L118.682 198.251C114.861 196.632 110.951 195.229 106.972 194.05L106.7 198L105.597 193.648C100.663 192.238 97.3054 191.617 97.3054 191.617C97.3054 191.617 101.839 208.861 111.351 222.043L122.433 223.99L113.824 225.232C115.02 226.671 116.306 228.034 117.673 229.312C131.509 242.155 146.919 248.047 152.093 242.473C157.267 236.899 150.245 221.969 136.41 209.128C132.121 205.147 126.733 201.952 121.339 199.437L120.837 206.751Z" fill="#F2F2F2"/>
<path d="M141.332 197.519L143.88 189.129C141.447 185.768 138.825 182.546 136.029 179.48L133.754 182.721L135.059 178.425C131.563 174.668 129.01 172.402 129.01 172.402C129.01 172.402 123.979 189.507 125.306 205.708L133.787 213.103L125.774 209.716C126.054 211.567 126.451 213.398 126.961 215.2C132.167 233.345 142.313 246.355 149.623 244.257C156.933 242.16 158.639 225.75 153.434 207.605C151.82 201.98 148.859 196.46 145.542 191.519L141.332 197.519Z" fill="#F2F2F2"/>
<path d="M268.052 58.1418H266.708V21.3151C266.708 18.516 266.156 15.7442 265.085 13.1582C264.014 10.5721 262.444 8.22234 260.465 6.24305C258.485 4.26376 256.136 2.6937 253.55 1.62251C250.964 0.55133 248.192 0 245.393 0H167.368C161.715 0 156.293 2.24569 152.296 6.24305C148.298 10.2404 146.053 15.662 146.053 21.3151V223.353C146.053 226.152 146.604 228.923 147.675 231.509C148.746 234.096 150.316 236.445 152.296 238.425C154.275 240.404 156.625 241.974 159.211 243.045C161.797 244.116 164.569 244.668 167.368 244.668H245.393C251.046 244.668 256.467 242.422 260.465 238.424C264.462 234.427 266.707 229.006 266.707 223.353V84.3557H268.052L268.052 58.1418Z" fill="#E6E6E6"/>
<path d="M246.253 5.54346H236.069C236.537 6.69182 236.716 7.93774 236.589 9.17148C236.463 10.4052 236.034 11.5889 235.343 12.6182C234.651 13.6475 233.716 14.4909 232.622 15.074C231.527 15.6571 230.306 15.9621 229.066 15.962H184.366C183.126 15.962 181.905 15.6569 180.811 15.0737C179.716 14.4906 178.782 13.6472 178.09 12.6179C177.398 11.5886 176.97 10.405 176.844 9.17131C176.717 7.93763 176.896 6.69176 177.364 5.54346H167.852C163.63 5.54346 159.581 7.22052 156.596 10.2057C153.611 13.1909 151.934 17.2397 151.934 21.4614V223.205C151.934 227.427 153.611 231.476 156.596 234.461C159.581 237.446 163.63 239.123 167.852 239.123H246.253C250.474 239.123 254.523 237.446 257.508 234.461C260.493 231.476 262.171 227.427 262.171 223.205V21.461C262.17 17.2394 260.493 13.1907 257.508 10.2056C254.523 7.22047 250.474 5.54346 246.253 5.54346Z" fill="white"/>
<path d="M197.062 85.908C197.062 84.4978 197.433 83.1124 198.138 81.8913C198.844 80.6702 199.858 79.6564 201.08 78.952C199.859 78.2467 198.473 77.8754 197.063 77.8752C195.653 77.8751 194.268 78.2461 193.047 78.9511C191.826 79.656 190.812 80.67 190.107 81.8911C189.402 83.1122 189.03 84.4974 189.03 85.9075C189.03 87.3175 189.402 88.7027 190.107 89.9238C190.812 91.1449 191.826 92.1589 193.047 92.8639C194.268 93.5688 195.653 93.9398 197.063 93.9397C198.473 93.9395 199.859 93.5682 201.08 92.863C199.858 92.1587 198.844 91.1451 198.138 89.9241C197.433 88.7032 197.062 87.318 197.062 85.908Z" fill="#CCCCCC"/>
<path d="M207.16 85.908C207.159 84.4978 207.53 83.1124 208.236 81.8913C208.941 80.6701 209.956 79.6564 211.177 78.952C209.956 78.2467 208.571 77.8754 207.161 77.8752C205.751 77.8751 204.366 78.2461 203.145 78.9511C201.923 79.656 200.909 80.67 200.204 81.8911C199.499 83.1122 199.128 84.4974 199.128 85.9075C199.128 87.3175 199.499 88.7027 200.204 89.9238C200.909 91.1449 201.923 92.1589 203.145 92.8639C204.366 93.5688 205.751 93.9398 207.161 93.9397C208.571 93.9395 209.956 93.5682 211.177 92.863C209.956 92.1587 208.941 91.1451 208.236 89.9241C207.531 88.7032 207.159 87.318 207.16 85.908Z" fill="#CCCCCC"/>
<path d="M217.028 93.9398C221.464 93.9398 225.06 90.3436 225.06 85.9076C225.06 81.4715 221.464 77.8754 217.028 77.8754C212.592 77.8754 208.996 81.4715 208.996 85.9076C208.996 90.3436 212.592 93.9398 217.028 93.9398Z" fill="#F9A826"/>
<path d="M230.452 110.995H183.638C183.193 110.995 182.765 110.818 182.45 110.502C182.135 110.187 181.958 109.76 181.957 109.314V62.5008C181.958 62.0552 182.135 61.6279 182.45 61.3128C182.765 60.9976 183.193 60.8203 183.638 60.8198H230.452C230.897 60.8203 231.325 60.9976 231.64 61.3128C231.955 61.6279 232.132 62.0552 232.133 62.5008V109.314C232.132 109.76 231.955 110.187 231.64 110.502C231.325 110.818 230.897 110.995 230.452 110.995ZM183.638 61.4926C183.371 61.4929 183.114 61.5992 182.925 61.7883C182.736 61.9774 182.63 62.2338 182.63 62.5012V109.315C182.63 109.582 182.736 109.838 182.925 110.028C183.114 110.217 183.371 110.323 183.638 110.323H230.452C230.719 110.323 230.976 110.217 231.165 110.028C231.354 109.838 231.46 109.582 231.46 109.315V62.5012C231.46 62.2338 231.354 61.9774 231.165 61.7883C230.976 61.5992 230.719 61.4929 230.452 61.4926H183.638Z" fill="#CCCCCC"/>
<path d="M240.904 146.88H169.107V147.553H240.904V146.88Z" fill="#CCCCCC"/>
<path d="M171.374 142.682C172.626 142.682 173.641 141.667 173.641 140.414C173.641 139.162 172.626 138.147 171.374 138.147C170.122 138.147 169.107 139.162 169.107 140.414C169.107 141.667 170.122 142.682 171.374 142.682Z" fill="#F9A826"/>
<path d="M240.904 169.553H169.107V170.226H240.904V169.553Z" fill="#CCCCCC"/>
<path d="M171.374 165.355C172.626 165.355 173.641 164.34 173.641 163.087C173.641 161.835 172.626 160.82 171.374 160.82C170.122 160.82 169.107 161.835 169.107 163.087C169.107 164.34 170.122 165.355 171.374 165.355Z" fill="#F9A826"/>
<path d="M239.591 195.372H216.9C216.508 195.372 216.133 195.216 215.856 194.939C215.578 194.661 215.423 194.286 215.422 193.894V185.941C215.423 185.549 215.578 185.173 215.856 184.896C216.133 184.619 216.508 184.463 216.9 184.463H239.591C239.982 184.463 240.358 184.619 240.635 184.896C240.913 185.173 241.068 185.549 241.069 185.941V193.894C241.068 194.286 240.913 194.661 240.635 194.939C240.358 195.216 239.982 195.372 239.591 195.372Z" fill="#F9A826"/>
<path d="M178.77 142.682C180.022 142.682 181.038 141.667 181.038 140.414C181.038 139.162 180.022 138.147 178.77 138.147C177.518 138.147 176.503 139.162 176.503 140.414C176.503 141.667 177.518 142.682 178.77 142.682Z" fill="#F9A826"/>
<path d="M186.166 142.682C187.419 142.682 188.434 141.667 188.434 140.414C188.434 139.162 187.419 138.147 186.166 138.147C184.914 138.147 183.899 139.162 183.899 140.414C183.899 141.667 184.914 142.682 186.166 142.682Z" fill="#F9A826"/>
<path d="M178.77 165.355C180.022 165.355 181.038 164.34 181.038 163.087C181.038 161.835 180.022 160.82 178.77 160.82C177.518 160.82 176.503 161.835 176.503 163.087C176.503 164.34 177.518 165.355 178.77 165.355Z" fill="#F9A826"/>
<path d="M186.166 165.355C187.419 165.355 188.434 164.34 188.434 163.087C188.434 161.835 187.419 160.82 186.166 160.82C184.914 160.82 183.899 161.835 183.899 163.087C183.899 164.34 184.914 165.355 186.166 165.355Z" fill="#F9A826"/>
<path d="M341.086 245.427H105.216C104.711 245.427 104.302 245.247 104.302 245.027C104.302 244.806 104.711 244.626 105.216 244.626H341.086C341.591 244.626 342 244.806 342 245.027C342 245.248 341.591 245.427 341.086 245.427Z" fill="#3F3D56"/>
<path d="M282.811 160.796C282.972 160.87 283.127 160.956 283.274 161.055L298.009 154.766L298.535 150.884L304.422 150.848L304.075 159.75L284.626 164.894C284.586 165.029 284.536 165.161 284.479 165.291C284.198 165.891 283.746 166.394 283.18 166.738C282.613 167.082 281.958 167.251 281.296 167.223C280.634 167.196 279.995 166.973 279.459 166.584C278.923 166.194 278.514 165.655 278.283 165.034C278.052 164.413 278.01 163.737 278.162 163.092C278.314 162.448 278.654 161.862 279.137 161.409C279.621 160.956 280.228 160.657 280.881 160.547C281.535 160.438 282.206 160.525 282.811 160.796Z" fill="#FFB8B8"/>
<path d="M306.564 241.466H302.536L300.62 225.931L306.564 225.932L306.564 241.466Z" fill="#FFB8B8"/>
<path d="M299.659 240.315H307.427V245.206H294.769C294.769 243.909 295.284 242.665 296.201 241.748C297.118 240.831 298.362 240.315 299.659 240.315Z" fill="#2F2E41"/>
<path d="M322.227 240.328L318.219 240.723L314.789 225.451L320.705 224.868L322.227 240.328Z" fill="#FFB8B8"/>
<path d="M315.243 239.86L322.973 239.099L323.453 243.966L310.856 245.206C310.793 244.567 310.856 243.922 311.043 243.307C311.229 242.693 311.535 242.121 311.942 241.624C312.35 241.128 312.851 240.717 313.417 240.414C313.984 240.111 314.604 239.923 315.243 239.86Z" fill="#2F2E41"/>
<path d="M307.685 134.407C312.141 134.407 315.753 130.795 315.753 126.339C315.753 121.883 312.141 118.27 307.685 118.27C303.228 118.27 299.616 121.883 299.616 126.339C299.616 130.795 303.228 134.407 307.685 134.407Z" fill="#FFB8B8"/>
<path d="M301.636 238.325C301.29 238.326 300.955 238.204 300.689 237.982C300.424 237.76 300.245 237.451 300.186 237.11C298.101 225.538 291.287 187.699 291.124 186.651C291.12 186.627 291.118 186.603 291.119 186.579V183.757C291.118 183.655 291.151 183.554 291.21 183.471L292.111 182.21C292.153 182.149 292.21 182.099 292.275 182.064C292.34 182.028 292.412 182.008 292.486 182.005C297.618 181.764 314.426 181.059 315.238 182.073C316.053 183.093 315.765 186.182 315.699 186.791L315.703 186.854L323.254 235.145C323.313 235.53 323.218 235.923 322.989 236.238C322.761 236.554 322.417 236.767 322.033 236.832L317.317 237.609C316.966 237.665 316.606 237.593 316.303 237.407C316 237.221 315.774 236.932 315.666 236.593C314.207 231.931 309.316 216.251 307.621 210.184C307.61 210.146 307.586 210.113 307.553 210.091C307.519 210.069 307.479 210.06 307.44 210.065C307.4 210.071 307.364 210.091 307.338 210.121C307.312 210.151 307.298 210.19 307.299 210.23C307.383 216.013 307.588 230.77 307.659 235.866L307.666 236.415C307.67 236.787 307.533 237.146 307.284 237.422C307.035 237.698 306.692 237.87 306.322 237.905L301.774 238.319C301.728 238.323 301.682 238.325 301.636 238.325Z" fill="#2F2E41"/>
<path d="M302.564 137.58C301.156 138.417 300.313 139.955 299.83 141.521C298.935 144.419 298.396 147.415 298.225 150.443L297.714 159.51L291.388 183.548C296.871 188.186 300.034 187.132 307.414 183.338C314.794 179.543 315.637 184.603 315.637 184.603L317.113 164.15L319.222 141.8C318.748 141.23 318.213 140.715 317.624 140.265C315.675 138.749 313.408 137.696 310.993 137.184C308.578 136.672 306.078 136.715 303.681 137.31L302.564 137.58Z" fill="#F9A826"/>
<path d="M300.509 165.651C300.679 165.715 300.844 165.792 301.002 165.882L315.571 158.59L315.813 154.639L321.823 154.225L322.145 163.23L302.675 169.669C302.516 170.351 302.154 170.968 301.635 171.439C301.117 171.91 300.467 172.211 299.773 172.304C299.079 172.396 298.374 172.276 297.75 171.957C297.126 171.639 296.614 171.138 296.282 170.522C295.95 169.906 295.813 169.203 295.89 168.507C295.967 167.811 296.254 167.155 296.713 166.626C297.172 166.097 297.781 165.721 298.459 165.547C299.137 165.372 299.852 165.409 300.509 165.651Z" fill="#FFB8B8"/>
<path d="M319.116 141.902C322.701 143.168 323.332 156.874 323.332 156.874C319.115 154.555 314.054 158.35 314.054 158.35C314.054 158.35 313 154.766 311.735 150.127C311.353 148.822 311.307 147.442 311.602 146.114C311.897 144.787 312.523 143.556 313.422 142.536C313.422 142.536 315.531 140.637 319.116 141.902Z" fill="#F9A826"/>
<path d="M314.919 128.472C313.914 127.668 312.543 129.13 312.543 129.13L311.738 121.892C311.738 121.892 306.712 122.494 303.495 121.691C300.278 120.888 299.775 124.606 299.775 124.606C299.609 123.104 299.576 121.59 299.675 120.082C299.875 118.273 302.489 116.463 307.114 115.257C311.738 114.05 314.151 119.278 314.151 119.278C317.368 120.886 315.925 129.277 314.919 128.472Z" fill="#2F2E41"/>
</svg>
