<svg width="342" height="247" viewBox="0 0 342 247" fill="none" xmlns="http://www.w3.org/2000/svg">
<g clip-path="url(#clip0)">
<path d="M300.015 120.288H296.971V240.54H300.015V120.288Z" fill="#3F3D56"/>
<path d="M328.111 135.613C328.305 177.662 298.721 211.886 298.721 211.886C298.721 211.886 268.823 177.936 268.629 135.887C268.435 93.838 298.019 59.6135 298.019 59.6135C298.019 59.6135 327.917 93.5639 328.111 135.613Z" fill="#3F3D56"/>
<path d="M239.144 176.868H237.578V238.717H239.144V176.868Z" fill="#3F3D56"/>
<path d="M253.594 184.75C253.694 206.377 238.478 223.979 238.478 223.979C238.478 223.979 223.101 206.518 223.001 184.891C222.902 163.264 238.117 145.662 238.117 145.662C238.117 145.662 253.494 163.123 253.594 184.75Z" fill="#3F3D56"/>
<path d="M270.006 246.951C293.435 246.951 312.428 244.04 312.428 240.449C312.428 236.857 293.435 233.946 270.006 233.946C246.577 233.946 227.584 236.857 227.584 240.449C227.584 244.04 246.577 246.951 270.006 246.951Z" fill="#3F3D56"/>
<path d="M273.505 88.895C269.911 82.8221 262.8 82.5391 262.8 82.5391C262.8 82.5391 255.871 81.653 251.426 90.9021C247.283 99.5231 241.566 107.847 250.506 109.865L252.121 104.839L253.121 110.239C254.394 110.331 255.671 110.352 256.946 110.304C266.52 109.995 275.638 110.395 275.345 106.959C274.954 102.392 276.963 94.7384 273.505 88.895Z" fill="#2F2E41"/>
<path d="M260.562 100.332C260.562 100.332 265.206 106.834 262.42 112.098C259.633 117.362 268.922 122.936 268.922 122.936L275.735 108.073C275.735 108.073 267.684 102.809 269.851 97.8544L260.562 100.332Z" fill="#FBBEBE"/>
<path d="M263.658 103.119C268.105 103.119 271.709 99.514 271.709 95.0676C271.709 90.6212 268.105 87.0166 263.658 87.0166C259.212 87.0166 255.607 90.6212 255.607 95.0676C255.607 99.514 259.212 103.119 263.658 103.119Z" fill="#FBBEBE"/>
<path d="M235.796 104.374L242.524 95.6937C242.524 95.6937 244.893 86.5947 248.324 87.056C251.755 87.5172 246.969 97.968 246.969 97.968L240.284 107.577L235.796 104.374Z" fill="#FBBEBE"/>
<path d="M269.851 219.857L272.019 231.314L276.664 232.553L275.425 218.928L269.851 219.857Z" fill="#FBBEBE"/>
<path d="M316.609 207.471L324.969 218.928L328.375 220.476L331.162 215.832L322.802 204.994L316.609 207.471Z" fill="#FBBEBE"/>
<path d="M267.993 117.982L262.828 111.182C262.828 111.182 252.82 113.027 251.892 113.956C250.963 114.885 254.369 131.916 254.369 131.916C254.369 131.916 254.988 136.561 257.775 139.038L260.562 140.896L283.476 136.251L284.338 126.056C284.651 122.342 284.186 118.604 282.971 115.081C281.756 111.557 279.819 108.327 277.283 105.596L273.296 106.141L267.993 117.982Z" fill="#575A89"/>
<path d="M253.13 114.576L251.582 113.956L244.46 113.337C244.46 113.337 241.983 112.718 242.602 111.479C243.221 110.24 243.841 109.931 242.602 109.621C241.363 109.312 241.054 109.002 241.363 108.073C241.673 107.144 243.531 105.286 243.531 105.286L238.267 100.951C238.267 100.951 237.982 101.152 237.521 101.525C234.908 103.641 226.638 111.276 232.693 118.911C239.815 127.891 248.176 133.155 254.988 131.297L253.13 114.576Z" fill="#575A89"/>
<path d="M259.942 139.348V143.683C259.942 143.683 257.156 148.947 258.084 153.901C259.013 158.856 259.323 161.333 259.323 161.333C259.424 165.547 260.155 169.721 261.491 173.719C263.658 179.912 256.536 220.476 265.516 221.096C274.496 221.715 279.45 222.334 282.237 219.238C285.024 216.141 277.593 162.881 277.593 162.881C277.593 162.881 302.984 215.832 308.248 213.664C313.512 211.496 326.827 206.542 325.279 203.755C323.731 200.968 284.714 139.038 284.714 139.038L283.476 136.251L259.942 139.348Z" fill="#2F2E41"/>
<path d="M274.806 229.147C274.806 229.147 269.851 228.837 269.851 230.385C269.851 231.933 267.374 237.197 267.374 237.197C267.374 237.197 265.516 243.391 270.47 242.771C275.425 242.152 278.521 236.578 278.521 236.578L277.283 230.695L274.806 229.147Z" fill="#2F2E41"/>
<path d="M326.517 218.309C326.517 218.309 322.182 215.522 322.492 217.38C322.801 219.238 323.111 224.192 325.279 224.502C327.446 224.811 333.949 226.669 334.259 227.289C334.568 227.908 342 230.385 342 226.36C342 222.334 337.355 219.238 337.355 219.238L332.091 215.212C332.091 215.212 328.685 214.903 328.066 217.07C327.446 219.238 326.517 218.309 326.517 218.309Z" fill="#2F2E41"/>
<path d="M263.671 87.7112C266.51 87.7112 268.812 85.4094 268.812 82.5699C268.812 79.7304 266.51 77.4285 263.671 77.4285C260.831 77.4285 258.529 79.7304 258.529 82.5699C258.529 85.4094 260.831 87.7112 263.671 87.7112Z" fill="#2F2E41"/>
<path d="M257.988 81.2169C257.988 79.9471 258.458 78.7222 259.307 77.7783C260.157 76.8344 261.325 76.2381 262.588 76.1044C262.408 76.0854 262.228 76.0757 262.047 76.0755C260.683 76.0755 259.376 76.6172 258.411 77.5814C257.447 78.5456 256.906 79.8533 256.906 81.2169C256.906 82.5805 257.447 83.8882 258.411 84.8524C259.376 85.8166 260.683 86.3582 262.047 86.3582C262.228 86.358 262.408 86.3484 262.588 86.3293C261.325 86.1956 260.157 85.5994 259.307 84.6555C258.458 83.7115 257.988 82.4867 257.988 81.2169Z" fill="#2F2E41"/>
<path d="M271.916 88.3097L264.891 84.6298L255.19 86.1354L253.183 95L258.179 94.8078L259.575 91.5512V94.7542L261.88 94.6656L263.218 89.4805L264.055 95L272.251 94.8328L271.916 88.3097Z" fill="#2F2E41"/>
<path d="M271.495 140.065L260.661 140.358C260.661 140.358 251.417 142.157 251.936 138.426C252.454 134.694 261.473 135.999 261.473 135.999L271.345 134.493L271.495 140.065Z" fill="#FBBEBE"/>
<path d="M280.067 105.071C280.612 104.988 281.168 105.103 281.635 105.394C282.103 105.685 282.451 106.134 282.617 106.659C284.738 113.342 291.272 135.708 284.78 138.777C277.134 142.391 271.554 142.232 271.554 142.232L268.567 134.878L271.286 132.327L274.189 113.662L275.58 105.751L280.067 105.071Z" fill="#575A89"/>
<path opacity="0.4" d="M278.057 117.517L276.819 129.903L265.981 134.548L278.057 131.761V117.517Z" fill="black"/>
<path d="M219.609 76.6271C223.1 77.5521 226.12 79.746 228.079 82.7798L229.092 84.3484L229.143 84.4132L246.912 89.6127C247.238 89.708 247.513 89.9274 247.679 90.2236C247.844 90.5198 247.887 90.8692 247.798 91.1966L246.418 96.2548C246.373 96.4195 246.296 96.5738 246.191 96.7086C246.087 96.8435 245.956 96.9563 245.808 97.0406C245.659 97.1248 245.495 97.1789 245.326 97.1996C245.156 97.2204 244.984 97.2074 244.82 97.1614L227.046 92.1934L227.046 92.1939L225.261 92.8688C221.974 94.1115 218.368 94.234 215.005 93.2173L219.609 76.6271Z" fill="#3F3D56"/>
<path d="M238.322 91.2963C238.49 90.7211 237.753 89.9991 236.674 89.6835C235.596 89.3679 234.585 89.5784 234.417 90.1535C234.248 90.7287 234.986 91.4508 236.065 91.7663C237.143 92.0819 238.154 91.8714 238.322 91.2963Z" fill="#575A89"/>
<path d="M237.414 91.8267C237.826 91.8267 238.16 91.4927 238.16 91.0807C238.16 90.6687 237.826 90.3347 237.414 90.3347C237.002 90.3347 236.668 90.6687 236.668 91.0807C236.668 91.4927 237.002 91.8267 237.414 91.8267Z" fill="#3F3D56"/>
<path d="M221.095 86.2079C222.576 81.6382 222.102 77.3906 220.036 76.7205C217.969 76.0505 215.093 79.2117 213.611 83.7814C212.129 88.351 212.603 92.5987 214.67 93.2687C216.736 93.9388 219.613 90.7776 221.095 86.2079Z" fill="#F9A826"/>
<path opacity="0.4" d="M220.542 86.0463C221.97 81.6431 221.582 77.5395 219.703 76.6468C219.816 76.6609 219.927 76.6856 220.036 76.7205C222.102 77.3906 222.576 81.6382 221.095 86.2079C219.613 90.7776 216.736 93.9388 214.67 93.2687C214.595 93.2442 214.522 93.2149 214.451 93.1808C216.483 93.4397 219.139 90.3753 220.542 86.0463Z" fill="black"/>
<path d="M219.843 76.6433L179.514 45.3607C172.383 39.789 165.54 33.8582 159.011 27.5912C147.515 16.6334 131.909 7.87242 113.739 3.20799C69.5951 -8.12451 34.6239 11.9694 18.718 41.4741C-5.58793 86.5606 -24.2152 159.724 83.5571 120.779C107.127 112.262 130.985 111.356 149.075 106.87L214.579 93.3645L219.843 76.6433Z" fill="#F9A826"/>
<path d="M98.769 24.0026C99.9661 24.0026 100.937 23.0322 100.937 21.8351C100.937 20.638 99.9661 19.6675 98.769 19.6675C97.5719 19.6675 96.6014 20.638 96.6014 21.8351C96.6014 23.0322 97.5719 24.0026 98.769 24.0026Z" fill="#F2F2F2"/>
<path d="M140.876 26.8452H140.311V26.281H140.201V26.8452H139.637V26.9555H140.201V27.5196H140.311V26.9555H140.876V26.8452Z" fill="#F2F2F2"/>
<path d="M197.542 73.9122H196.977V73.348H196.867V73.9122H196.303V74.0224H196.867V74.5866H196.977V74.0224H197.542V73.9122Z" fill="#F2F2F2"/>
<path d="M193.516 88.4658H192.952V87.9016H192.842V88.4658H192.278V88.576H192.842V89.1402H192.952V88.576H193.516V88.4658Z" fill="#F2F2F2"/>
<path d="M20.4212 100.852H19.857V100.288H19.7468V100.852H19.1826V100.962H19.7468V101.526H19.857V100.962H20.4212V100.852Z" fill="#F2F2F2"/>
<path d="M45.1933 33.3479H44.6291V32.7837H44.5189V33.3479H43.9547V33.4581H44.5189V34.0223H44.6291V33.4581H45.1933V33.3479Z" fill="#F2F2F2"/>
<path d="M141.495 90.943H140.931V90.3788H140.82V90.943H140.256V91.0532H140.82V91.6174H140.931V91.0532H141.495V90.943Z" fill="#F2F2F2"/>
<path d="M82.3515 13.5302H81.7873V12.966H81.677V13.5302H81.1129V13.6405H81.677V14.2046H81.7873V13.6405H82.3515V13.5302Z" fill="#F2F2F2"/>
<path d="M82.5682 58.1132L81.8653 58.2215C82.0851 59.6274 82.2586 61.0642 82.3855 62.4855L83.0946 62.4235C82.9676 60.9837 82.7912 59.5345 82.5682 58.1132Z" fill="#E6E6E6"/>
<path d="M80.6453 49.6473L79.9641 49.8548C80.3759 51.2172 80.7444 52.6138 81.0571 54.0041L81.7538 53.8462C81.4349 52.4404 81.0602 51.0283 80.6453 49.6473Z" fill="#E6E6E6"/>
<path d="M77.5767 41.5283L76.9296 41.8255C77.5241 43.123 78.0815 44.4545 78.5862 45.786L79.252 45.5351C78.741 44.1882 78.1806 42.8381 77.5767 41.5283Z" fill="#E6E6E6"/>
<path d="M73.4274 33.917L72.8267 34.2979C73.5915 35.4993 74.3254 36.7441 75.0066 37.992L75.6321 37.6514C74.9447 36.3881 74.2015 35.1309 73.4274 33.917Z" fill="#E6E6E6"/>
<path d="M68.2686 26.9406L67.7267 27.402C68.6495 28.4858 69.5475 29.6191 70.3959 30.7648L70.9657 30.3406C70.111 29.1825 69.2038 28.0368 68.2686 26.9406Z" fill="#E6E6E6"/>
<path d="M62.2056 20.729L61.7318 21.2585C62.797 22.2091 63.8405 23.2093 64.8345 24.228L65.3454 23.7295C64.3391 22.6984 63.2832 21.6889 62.2056 20.729Z" fill="#E6E6E6"/>
<path d="M55.3561 15.3968L54.9567 15.9851C56.1395 16.7809 57.31 17.6294 58.434 18.5057L58.8738 17.9452C57.7342 17.0596 56.5514 16.2019 55.3561 15.3968Z" fill="#E6E6E6"/>
<path d="M49.1228 11.6934V12.4985C49.8629 12.8855 50.5967 13.2912 51.3151 13.7061L51.6712 13.0899C50.8352 12.6068 49.9857 12.1413 49.1228 11.6934Z" fill="#E6E6E6"/>
<path d="M82.6162 66.8781L83.328 66.8651C83.3411 67.5839 83.3421 68.3064 83.3309 69.0129L82.6192 69.0018C82.63 68.3033 82.6291 67.5888 82.6162 66.8781Z" fill="#E6E6E6"/>
<path d="M40.7653 119.114L40.0624 119.223C40.2823 120.629 40.4557 122.065 40.5827 123.487L41.2918 123.425C41.1648 121.985 40.9883 120.536 40.7653 119.114Z" fill="#E6E6E6"/>
<path d="M38.8424 110.649L38.1611 110.856C38.573 112.218 38.9415 113.615 39.2542 115.005L39.9509 114.847C39.632 113.442 39.2573 112.03 38.8424 110.649Z" fill="#E6E6E6"/>
<path d="M35.7738 102.53L35.1266 102.827C35.7211 104.124 36.2785 105.456 36.7832 106.787L37.449 106.536C36.938 105.189 36.3776 103.839 35.7738 102.53Z" fill="#E6E6E6"/>
<path d="M31.6245 94.9183L31.0237 95.2992C31.7886 96.5006 32.5225 97.7454 33.2037 98.9933L33.8292 98.6527C33.1418 97.3893 32.3986 96.1321 31.6245 94.9183Z" fill="#E6E6E6"/>
<path d="M26.4657 87.9418L25.9238 88.4032C26.8465 89.487 27.7445 90.6203 28.593 91.766L29.1627 91.3418C28.3081 90.1837 27.4008 89.038 26.4657 87.9418Z" fill="#E6E6E6"/>
<path d="M20.4027 81.7303L19.9289 82.2598C20.9941 83.2104 22.0376 84.2106 23.0316 85.2293L23.5425 84.7308C22.5362 83.6997 21.4802 82.6902 20.4027 81.7303Z" fill="#E6E6E6"/>
<path d="M13.5532 76.3981L13.1537 76.9864C14.3366 77.7822 15.5071 78.6307 16.6311 79.507L17.0708 78.9465C15.9313 78.0609 14.7484 77.2032 13.5532 76.3981Z" fill="#E6E6E6"/>
<path d="M7.31989 72.6946V73.4997C8.05995 73.8868 8.79382 74.2925 9.51221 74.7074L9.86831 74.0912C9.03225 73.6081 8.18277 73.1426 7.31989 72.6946Z" fill="#E6E6E6"/>
<path d="M40.8134 127.879L41.5251 127.866C41.5382 128.585 41.5392 129.308 41.528 130.014L40.8163 130.003C40.8272 129.305 40.8262 128.59 40.8134 127.879Z" fill="#E6E6E6"/>
<path d="M183.824 88.459L183.121 88.5674C183.341 89.9732 183.515 91.41 183.641 92.8313L184.351 92.7693C184.224 91.3295 184.047 89.8803 183.824 88.459Z" fill="#E6E6E6"/>
<path d="M181.901 79.9931L181.22 80.2006C181.632 81.563 182 82.9595 182.313 84.3499L183.01 84.192C182.691 82.7861 182.316 81.3741 181.901 79.9931Z" fill="#E6E6E6"/>
<path d="M178.833 71.8741L178.185 72.1713C178.78 73.4688 179.337 74.8003 179.842 76.1318L180.508 75.881C179.997 74.534 179.436 73.1839 178.833 71.8741Z" fill="#E6E6E6"/>
<path d="M174.683 64.2628L174.083 64.6437C174.847 65.8451 175.581 67.09 176.263 68.3378L176.888 67.9972C176.201 66.7339 175.457 65.4767 174.683 64.2628Z" fill="#E6E6E6"/>
<path d="M169.525 57.2864L168.983 57.7478C169.905 58.8316 170.803 59.9649 171.652 61.1106L172.222 60.6864C171.367 59.5283 170.46 58.3826 169.525 57.2864Z" fill="#E6E6E6"/>
<path d="M163.462 51.0748L162.988 51.6043C164.053 52.5549 165.097 53.5551 166.09 54.5739L166.601 54.0753C165.595 53.0442 164.539 52.0347 163.462 51.0748Z" fill="#E6E6E6"/>
<path d="M156.612 45.7426L156.213 46.3309C157.395 47.1267 158.566 47.9752 159.69 48.8515L160.13 48.291C158.99 47.4054 157.807 46.5477 156.612 45.7426Z" fill="#E6E6E6"/>
<path d="M150.379 42.0392V42.8443C151.119 43.2313 151.853 43.637 152.571 44.0519L152.927 43.4357C152.091 42.9526 151.242 42.4871 150.379 42.0392Z" fill="#E6E6E6"/>
<path d="M183.872 97.2239L184.584 97.2109C184.597 97.9297 184.598 98.6522 184.587 99.3587L183.875 99.3476C183.886 98.6491 183.885 97.9346 183.872 97.2239Z" fill="#E6E6E6"/>
<path d="M46.2294 61.8977H45.7045V61.3726H45.602V61.8977H45.0768V61.9999H45.602V62.5251H45.7045V61.9999H46.2294V61.8977Z" fill="#F2F2F2"/>
<path d="M40.1785 93.5927H39.6536V93.0675H39.5511V93.5927H39.0259V93.6952H39.5511V94.22H39.6536V93.6952H40.1785V93.5927Z" fill="#F2F2F2"/>
<path d="M22.424 121.371H21.8989V120.846H21.7964V121.371H21.2715V121.473H21.7964V121.998H21.8989V121.473H22.424V121.371Z" fill="#F2F2F2"/>
<path d="M71.8138 86.1397C66.7376 78.594 64.5335 69.4791 65.6013 60.4478C66.669 51.4165 70.9379 43.0668 77.6338 36.913C84.3297 30.7592 93.0092 27.2086 102.098 26.9053C111.188 26.6019 120.084 29.5659 127.176 35.2596C134.267 40.9533 139.083 48.9997 140.751 57.9397C142.418 66.8798 140.827 76.1214 136.265 83.9887C131.703 91.856 124.473 97.828 115.886 100.822C107.298 103.815 97.9225 103.633 89.4583 100.307C88.9096 102.265 87.8837 104.057 86.4726 105.522C85.0614 106.987 83.3091 108.079 81.3724 108.701C79.4356 109.322 77.375 109.454 75.3749 109.084C73.3748 108.714 71.4977 107.853 69.9117 106.58C68.3256 105.307 67.0801 103.66 66.2866 101.787C65.4931 99.9139 65.1765 97.8735 65.3649 95.8482C65.5534 93.8229 66.2411 91.876 67.3666 90.1817C68.492 88.4874 70.02 87.0986 71.8138 86.1397Z" fill="#3F3D56"/>
<path d="M103.154 43.1768C111.871 43.1768 117.869 48.0123 117.869 54.9634C117.869 59.5665 115.638 62.7515 111.337 65.2855C107.292 67.6335 105.92 69.3538 105.92 72.3295C105.92 72.5707 105.873 72.8095 105.78 73.0324C105.688 73.2552 105.553 73.4577 105.382 73.6282C105.212 73.7987 105.009 73.934 104.786 74.0263C104.563 74.1186 104.325 74.1661 104.083 74.1661H99.6267C99.1507 74.1661 98.6933 73.9813 98.3509 73.6506C98.0085 73.32 97.8078 72.8693 97.7912 72.3936L97.7833 72.1668C97.3881 67.3777 99.0619 64.402 103.27 61.9378C107.199 59.5898 108.849 58.1019 108.849 55.2192C108.849 52.3364 106.06 50.2209 102.596 50.2209C99.9628 50.2209 97.8792 51.5024 96.9235 53.5947C96.5876 54.303 96.0559 54.9003 95.3913 55.3159C94.7266 55.7315 93.9569 55.948 93.173 55.9399C90.1533 55.9399 88.1584 52.7286 89.5707 50.0594C91.8046 45.8371 96.5181 43.1768 103.154 43.1768ZM97.0394 83.0235C97.0394 80.35 99.2712 78.2345 102.014 78.2345C104.781 78.2345 107.013 80.3268 107.013 83.0235C107.013 85.7203 104.781 87.8126 102.014 87.8126C99.2479 87.8126 97.0394 85.7203 97.0394 83.0235Z" fill="#F9A826"/>
</g>
<defs>
<clipPath id="clip0">
<rect width="342" height="246.951" fill="white"/>
</clipPath>
</defs>
</svg>
