<svg width="414" height="298" viewBox="0 0 414 298" fill="none" xmlns="http://www.w3.org/2000/svg">
<g clip-path="url(#clip0)">
<path d="M0 297.363H66.593" stroke="#3F3D56" stroke-miterlimit="10"/>
<path d="M385.358 51.2495H105.264C100.967 51.2495 97.4827 54.7335 97.4827 59.0311V243.648C97.4827 247.946 100.967 251.43 105.264 251.43H385.358C389.656 251.43 393.14 247.946 393.14 243.648V59.0311C393.14 54.7335 389.656 51.2495 385.358 51.2495Z" fill="#F2F2F2"/>
<path d="M376.332 38.6128H96.2379C91.9402 38.6128 88.4563 42.0967 88.4563 46.3944V231.011C88.4563 235.309 91.9402 238.793 96.2379 238.793H376.332C380.629 238.793 384.113 235.309 384.113 231.011V46.3944C384.113 42.0967 380.629 38.6128 376.332 38.6128Z" stroke="#3F3D56" stroke-miterlimit="10"/>
<path d="M88.4563 57.8047H384.113" stroke="#3F3D56" stroke-miterlimit="10"/>
<path opacity="0.3" d="M342.957 102.799H268.014C266.443 102.799 265.169 104.073 265.169 105.644V112.39C265.169 113.961 266.443 115.235 268.014 115.235H342.957C344.529 115.235 345.802 113.961 345.802 112.39V105.644C345.802 104.073 344.529 102.799 342.957 102.799Z" fill="#F9A826"/>
<path opacity="0.3" d="M358.402 137.299H252.569C250.998 137.299 249.724 138.573 249.724 140.144V144.483C249.724 146.054 250.998 147.328 252.569 147.328H358.402C359.973 147.328 361.247 146.054 361.247 144.483V140.144C361.247 138.573 359.973 137.299 358.402 137.299Z" fill="#F9A826"/>
<path opacity="0.3" d="M358.402 164.578H252.569C250.998 164.578 249.724 165.852 249.724 167.423V171.762C249.724 173.333 250.998 174.607 252.569 174.607H358.402C359.973 174.607 361.247 173.333 361.247 171.762V167.423C361.247 165.852 359.973 164.578 358.402 164.578Z" fill="#F9A826"/>
<path opacity="0.3" d="M358.402 191.857H252.569C250.998 191.857 249.724 193.131 249.724 194.702V199.041C249.724 200.612 250.998 201.886 252.569 201.886H358.402C359.973 201.886 361.247 200.612 361.247 199.041V194.702C361.247 193.131 359.973 191.857 358.402 191.857Z" fill="#F9A826"/>
<path d="M346.969 98.7876H272.025C270.454 98.7876 269.18 100.061 269.18 101.633V108.378C269.18 109.95 270.454 111.224 272.025 111.224H346.969C348.54 111.224 349.814 109.95 349.814 108.378V101.633C349.814 100.061 348.54 98.7876 346.969 98.7876Z" stroke="#3F3D56" stroke-miterlimit="10"/>
<path d="M362.413 133.287H256.581C255.009 133.287 253.735 134.561 253.735 136.132V140.471C253.735 142.042 255.009 143.316 256.581 143.316H362.413C363.985 143.316 365.259 142.042 365.259 140.471V136.132C365.259 134.561 363.985 133.287 362.413 133.287Z" stroke="#3F3D56" stroke-miterlimit="10"/>
<path d="M362.413 160.566H256.581C255.009 160.566 253.735 161.84 253.735 163.412V167.75C253.735 169.322 255.009 170.595 256.581 170.595H362.413C363.985 170.595 365.259 169.322 365.259 167.75V163.412C365.259 161.84 363.985 160.566 362.413 160.566Z" stroke="#3F3D56" stroke-miterlimit="10"/>
<path d="M362.413 187.846H256.581C255.009 187.846 253.735 189.12 253.735 190.691V195.03C253.735 196.601 255.009 197.875 256.581 197.875H362.413C363.985 197.875 365.259 196.601 365.259 195.03V190.691C365.259 189.12 363.985 187.846 362.413 187.846Z" stroke="#3F3D56" stroke-miterlimit="10"/>
<path opacity="0.3" d="M110.921 56.6653C114.245 56.6653 116.939 53.9712 116.939 50.6478C116.939 47.3245 114.245 44.6304 110.921 44.6304C107.598 44.6304 104.904 47.3245 104.904 50.6478C104.904 53.9712 107.598 56.6653 110.921 56.6653Z" fill="#F9A826"/>
<path opacity="0.3" d="M127.77 56.6653C131.094 56.6653 133.788 53.9712 133.788 50.6478C133.788 47.3245 131.094 44.6304 127.77 44.6304C124.447 44.6304 121.753 47.3245 121.753 50.6478C121.753 53.9712 124.447 56.6653 127.77 56.6653Z" fill="#F9A826"/>
<path opacity="0.3" d="M144.619 56.6653C147.943 56.6653 150.637 53.9712 150.637 50.6478C150.637 47.3245 147.943 44.6304 144.619 44.6304C141.296 44.6304 138.602 47.3245 138.602 50.6478C138.602 53.9712 141.296 56.6653 144.619 56.6653Z" fill="#F9A826"/>
<path d="M113.328 54.2585C116.652 54.2585 119.346 51.5644 119.346 48.2411C119.346 44.9177 116.652 42.2236 113.328 42.2236C110.005 42.2236 107.311 44.9177 107.311 48.2411C107.311 51.5644 110.005 54.2585 113.328 54.2585Z" stroke="#3F3D56" stroke-miterlimit="10"/>
<path d="M130.177 54.2585C133.501 54.2585 136.195 51.5644 136.195 48.2411C136.195 44.9177 133.501 42.2236 130.177 42.2236C126.854 42.2236 124.16 44.9177 124.16 48.2411C124.16 51.5644 126.854 54.2585 130.177 54.2585Z" stroke="#3F3D56" stroke-miterlimit="10"/>
<path d="M147.026 54.2585C150.35 54.2585 153.044 51.5644 153.044 48.2411C153.044 44.9177 150.35 42.2236 147.026 42.2236C143.703 42.2236 141.009 44.9177 141.009 48.2411C141.009 51.5644 143.703 54.2585 147.026 54.2585Z" stroke="#3F3D56" stroke-miterlimit="10"/>
<path d="M181.869 230.369C180.861 225.728 180.594 219.389 180.933 214.98C180.933 214.98 175.839 192.601 171.831 190.513L171.829 190.514C171.768 190.593 169.823 193.143 169.576 201.034C169.326 209.051 166.487 214.311 166.487 214.311C166.487 214.311 167.406 224.303 166.881 230.369L181.869 230.369Z" fill="#F9A826"/>
<path d="M218.926 87.9561H126.475C125.223 87.9561 123.983 88.2027 122.826 88.682C121.669 89.1612 120.618 89.8636 119.732 90.7492C118.847 91.6347 118.144 92.686 117.665 93.843C117.186 95 116.939 96.24 116.939 97.4924V220.833C116.939 222.085 117.186 223.325 117.665 224.482C118.144 225.639 118.847 226.69 119.732 227.576C120.618 228.461 121.669 229.164 122.826 229.643C123.983 230.122 125.223 230.369 126.475 230.369H158.911C157.828 225.876 156.481 218.859 157.845 213.98L157.845 213.977L157.846 213.979C157.909 213.752 157.977 213.527 158.053 213.309C158.989 210.143 159.302 206.825 158.972 203.539C159.574 200.732 159.574 197.829 158.972 195.022C157.97 190.346 157.268 185.753 157.268 185.753C157.268 185.753 156.716 179.574 157.198 175.786C157.209 175.703 157.221 175.624 157.233 175.543C157.063 175.505 156.967 175.482 156.967 175.482C156.967 175.482 158.387 169.053 158.888 164.961C159.006 163.995 159.162 162.77 159.331 161.465C158.868 161.388 158.413 161.272 157.97 161.12C153.46 159.533 152.041 145.17 152.041 145.17V140.619C152.041 140.619 150.538 133.647 155.798 130.557C160.864 127.582 162.887 126.768 163.03 126.712C163.068 126.684 163.106 126.659 163.145 126.628C163.718 126.179 164.171 125.596 164.465 124.93C164.472 124.815 164.474 124.701 164.47 124.588C164.385 122.957 163.249 121.473 162.171 120.178C161.252 119.074 160.333 117.97 159.414 116.866C159.099 116.537 158.857 116.145 158.704 115.717C158.646 115.48 158.62 115.237 158.629 114.993C158.628 114.903 158.629 114.813 158.63 114.723C158.645 113.9 158.668 113.077 158.697 112.254C158.723 111.535 158.904 110.628 159.608 110.48C159.975 110.403 160.459 110.537 160.653 110.217C160.718 110.085 160.734 109.934 160.7 109.791C160.697 109.802 160.697 109.813 160.694 109.824C160.691 109.81 160.689 109.797 160.687 109.784C160.542 109.207 160.454 108.618 160.426 108.024C160.418 107.756 160.456 107.489 160.539 107.234C160.947 106.04 162.351 105.55 163.592 105.325C164.833 105.1 166.226 104.906 167.005 103.914C167.214 103.585 167.44 103.267 167.683 102.962C168.04 102.637 168.479 102.416 168.953 102.321C170.493 101.932 172.121 102.076 173.569 102.731C174.169 103.005 174.772 103.374 175.431 103.332C176.115 103.289 176.699 102.807 177.374 102.69C178.465 102.501 179.508 103.318 180.045 104.286C180.387 104.902 180.558 105.598 180.54 106.301C180.553 107.002 180.3 107.682 179.832 108.203C179.363 108.701 178.662 109.043 178.468 109.699C178.388 109.966 178.407 110.254 178.336 110.524C178.328 110.557 178.313 110.589 178.302 110.621C178.315 110.638 178.329 110.654 178.342 110.671C179.163 111.753 179.713 113.016 179.947 114.354C180.18 115.692 180.091 117.066 179.685 118.363C179.279 119.659 178.57 120.84 177.615 121.806C176.66 122.772 175.488 123.496 174.197 123.917C174.193 124.001 174.19 124.086 174.191 124.171C174.166 124.697 174.256 125.223 174.452 125.712C174.649 126.201 174.948 126.642 175.33 127.005L182.77 130.056C182.77 130.056 187.249 129.513 188.866 136.198C189.125 137.309 189.218 138.452 189.143 139.591C189.084 140.599 189.221 142.373 190.369 144.669C192.206 148.344 191.789 156.777 188.031 157.612C184.472 158.403 183.087 158.071 182.951 158.034L182.943 158.181C183.001 159.764 183.564 173.413 185.609 175.065C186.175 175.521 186.067 175.83 185.603 176.038L185.604 176.039C185.604 176.039 185.608 176.127 185.616 176.285C185.678 177.283 185.993 181.085 187.362 183.248C188.949 185.753 188.783 200.2 188.783 200.2L189.868 208.717C189.868 208.717 189.2 213.978 189.868 214.896C190.247 215.417 190.706 223.482 191.033 230.369H218.926C221.455 230.369 223.881 229.364 225.669 227.576C227.457 225.787 228.462 223.362 228.462 220.833V97.4924C228.462 96.24 228.216 95 227.736 93.843C227.257 92.686 226.555 91.6347 225.669 90.7492C224.784 89.8636 223.732 89.1612 222.575 88.682C221.418 88.2027 220.178 87.9561 218.926 87.9561Z" fill="#F9A826"/>
<path d="M209.298 77.1245H116.847C111.581 77.1245 107.311 81.3941 107.311 86.6608V210.001C107.311 215.268 111.581 219.537 116.847 219.537H209.298C214.565 219.537 218.834 215.268 218.834 210.001V86.6608C218.834 81.3941 214.565 77.1245 209.298 77.1245Z" stroke="#3F3D56" stroke-miterlimit="10"/>
<path d="M40.4468 129.026C40.4468 129.026 36.7063 127.92 35.904 129.124C35.1017 130.327 36.9978 139.052 36.9978 139.052L45.2401 139.553L42.3636 132.289L40.4468 129.026Z" fill="#2F2E41"/>
<path d="M11.6114 200.67C11.6114 200.67 19.111 217.135 13.3354 216.617C7.55986 216.1 5.3186 200.67 5.3186 200.67H11.6114Z" fill="#A0616A"/>
<path d="M60.6606 198.955C60.6606 198.955 57.3705 216.745 62.849 214.845C68.3275 212.945 66.7661 197.431 66.7661 197.431L60.6606 198.955Z" fill="#A0616A"/>
<path d="M38.851 124.898C38.851 124.898 38.7648 133.173 41.9543 133.604C45.1438 134.035 40.1441 138.432 40.1441 138.432L34.4547 139.552L26.2655 138.949L22.645 134.294C22.645 134.294 29.024 131.277 26.2655 121.881L38.851 124.898Z" fill="#A0616A"/>
<path opacity="0.1" d="M38.851 124.898C38.851 124.898 38.7648 133.173 41.9543 133.604C45.1438 134.035 40.1441 138.432 40.1441 138.432L34.4547 139.552L26.2655 138.949L22.645 134.294C22.645 134.294 29.024 131.277 26.2655 121.881L38.851 124.898Z" fill="black"/>
<path d="M53.5058 194.895C53.5058 194.895 57.5573 203.601 54.3678 230.927C54.3678 230.927 55.316 240.582 54.5402 242.392C53.7644 244.202 47.3854 268.77 47.3854 268.77C47.3854 268.77 39.1962 270.58 38.0756 265.15C38.0756 265.15 39.1962 257.391 39.11 256.185C39.0238 254.978 40.9202 241.789 40.9202 241.789L37.0411 216.273L34.1102 239.289C34.1102 239.289 34.1102 245.927 33.162 247.392C32.2138 248.857 33.162 278.339 33.162 278.339C33.162 278.339 35.8343 282.821 31.7828 282.907C27.7313 282.994 24.1108 282.821 23.7659 279.976C23.4211 277.132 23.2487 274.287 22.3867 272.563C21.5247 270.839 20.404 251.099 20.6626 244.202C20.9213 237.306 14.9733 201.877 16.8697 198.17C18.7662 194.464 53.5058 194.895 53.5058 194.895Z" fill="#2F2E41"/>
<path d="M34.4549 128.001C40.1679 128.001 44.7992 123.37 44.7992 117.657C44.7992 111.944 40.1679 107.312 34.4549 107.312C28.7419 107.312 24.1106 111.944 24.1106 117.657C24.1106 123.37 28.7419 128.001 34.4549 128.001Z" fill="#A0616A"/>
<path d="M24.1107 134.466C24.1107 134.466 30.4034 139.121 39.5409 135.415C39.5409 135.415 42.558 133.949 42.2994 131.708C42.0408 129.467 48.5921 149.724 48.5921 149.724L55.2297 184.981L54.8849 199.377C54.8849 199.377 51.954 197.911 42.8166 201.187C33.6791 204.463 18.7661 197.48 18.7661 197.48L19.2833 160.499L19.8005 138.949L21.1798 134.208C21.1798 134.208 21.8694 132.915 24.1107 134.466Z" fill="#F2F2F2"/>
<path d="M39.1387 128.679C39.1387 128.679 40.6615 128.432 42.1269 130.76C43.5923 133.087 47.0404 134.552 47.0404 134.552C47.0404 134.552 55.4021 135.07 56.6089 139.552C57.8157 144.035 60.8328 150.155 62.2983 161.448C63.7637 172.74 66.6946 190.756 67.1256 192.222C67.5566 193.687 66.5222 198.17 67.729 199.549C68.9358 200.928 59.195 200.928 59.195 200.928C59.195 200.928 58.3329 193.86 57.7295 193.86C57.1261 193.86 57.2985 198.601 57.9019 202.049C58.5053 205.497 53.5056 202.049 53.5056 202.049C53.5056 202.049 49.6265 186.274 45.9198 172.051C42.2131 157.827 40.058 149.983 40.7476 146.793C41.4372 143.604 43.3337 134.466 41.9545 133.604C40.5752 132.742 39.1387 128.679 39.1387 128.679Z" fill="#2F2E41"/>
<path d="M26.7078 128.672C26.7078 128.672 24.4556 129.898 18.7663 133.949C13.0769 138.001 9.1978 141.104 9.1978 141.104C9.1978 141.104 6.95654 142.828 5.57731 153.086C4.19807 163.344 1.09478 189.894 2.30162 193.256C3.50845 196.618 3.93946 198.601 3.50845 200.583C3.07744 202.566 12.5597 202.48 12.7321 202.049C12.9045 201.618 12.4735 193.774 12.9045 193.601C13.3355 193.429 15.663 198.256 16.094 202.308C16.525 206.359 21.5247 209.549 22.6454 209.549C23.766 209.549 29.5416 186.188 29.6278 170.24C29.714 154.293 27.7313 140.845 26.2659 138.949C24.8004 137.052 26.7078 128.672 26.7078 128.672Z" fill="#2F2E41"/>
<path d="M41.8684 269.546C41.8684 269.546 42.558 267.649 44.9717 268.253C47.3854 268.856 49.0232 266.701 49.0232 266.701C49.0232 266.701 50.3162 266.529 49.4542 268.166C48.5922 269.804 47.9026 270.925 47.9026 270.925C47.9026 270.925 53.0747 282.735 49.7128 285.579C46.3509 288.424 42.4718 286.7 42.4718 286.7C42.4718 286.7 38.6789 284.028 38.8513 276.959C38.8513 276.959 38.6789 274.718 36.6101 271.097C34.5412 267.477 32.9896 261.96 35.4894 260.925C37.9893 259.891 38.6327 259.853 38.6327 259.853C38.6327 259.853 37.4629 265.203 40.4846 267.073L41.8684 269.546Z" fill="#3F3D56"/>
<path d="M25.8346 282.907C25.8346 282.907 23.7658 279.028 27.2139 278.597C30.662 278.166 34.3687 277.907 34.1962 279.717C34.0238 281.528 33.5928 284.286 33.5928 284.286L34.1962 286.269C34.1962 286.269 34.3687 291.182 34.9721 291.786C35.5755 292.389 38.8512 297.561 31.8688 297.561C24.8864 297.561 22.8175 296.785 23.421 295.148C24.0244 293.51 24.1968 285.407 24.1968 285.407L25.8346 282.907Z" fill="#3F3D56"/>
<path d="M31.1793 109.382C31.1793 109.382 36.0066 110.675 38.5065 111.192C41.0064 111.709 40.7478 110.244 40.7478 110.244C40.7478 110.244 44.0235 110.675 43.8511 110.33C43.6787 109.985 45.2303 108.175 43.4201 106.106C41.6098 104.037 42.127 102.486 42.127 102.486H40.5754L40.1444 101.882H37.7307C37.7307 101.882 35.9204 101.193 31.1793 101.882C26.4382 102.572 19.973 102.744 19.4558 105.589C18.9386 108.434 16.2663 111.968 17.2145 113.606C18.1628 115.244 23.5935 121.967 24.1107 124.812C24.6279 127.657 27.0429 128.289 26.9561 126.507C26.8692 124.726 24.4555 118.519 26.5244 118.261C28.5932 118.002 32.1275 112.744 31.1793 109.382Z" fill="#2F2E41"/>
<path d="M375.039 2.9917C373.329 3.08829 371.68 3.65932 370.276 4.64076C368.873 5.62221 367.77 6.97526 367.092 8.5482C365.105 13.3517 367.664 18.994 371.505 22.4967C375.346 25.9995 380.28 28.0016 384.763 30.6333C390.784 34.168 396.194 39.0749 399.207 45.3735C402.22 51.6722 402.54 59.4744 398.999 65.4918C395.712 71.077 389.735 74.4197 384.035 77.5025" stroke="#3F3D56" stroke-miterlimit="10"/>
<path d="M380.102 6.81977C383.979 6.81977 387.122 5.29311 387.122 3.40988C387.122 1.52666 383.979 0 380.102 0C376.224 0 373.081 1.52666 373.081 3.40988C373.081 5.29311 376.224 6.81977 380.102 6.81977Z" fill="#F9A826"/>
<path d="M385.718 29.2851C389.595 29.2851 392.738 27.7584 392.738 25.8752C392.738 23.992 389.595 22.4653 385.718 22.4653C381.841 22.4653 378.698 23.992 378.698 25.8752C378.698 27.7584 381.841 29.2851 385.718 29.2851Z" fill="#F9A826"/>
<path d="M372.881 32.8954C376.758 32.8954 379.901 31.3688 379.901 29.4856C379.901 27.6023 376.758 26.0757 372.881 26.0757C369.003 26.0757 365.86 27.6023 365.86 29.4856C365.86 31.3688 369.003 32.8954 372.881 32.8954Z" fill="#F9A826"/>
<path d="M392.939 51.75C396.816 51.75 399.959 50.2233 399.959 48.3401C399.959 46.4568 396.816 44.9302 392.939 44.9302C389.062 44.9302 385.919 46.4568 385.919 48.3401C385.919 50.2233 389.062 51.75 392.939 51.75Z" fill="#F9A826"/>
<path d="M406.98 51.75C410.857 51.75 414 50.2233 414 48.3401C414 46.4568 410.857 44.9302 406.98 44.9302C403.102 44.9302 399.959 46.4568 399.959 48.3401C399.959 50.2233 403.102 51.75 406.98 51.75Z" fill="#F9A826"/>
</g>
<defs>
<clipPath id="clip0">
<rect width="414" height="297.564" fill="white"/>
</clipPath>
</defs>
</svg>
