<svg width="108" height="77" viewBox="0 0 108 77" fill="none" xmlns="http://www.w3.org/2000/svg">
<g clip-path="url(#clip0)">
<path d="M55.1578 75.9487C58.4061 75.9487 61.0393 73.3154 61.0393 70.0672C61.0393 66.8189 58.4061 64.1856 55.1578 64.1856C51.9095 64.1856 49.2762 66.8189 49.2762 70.0672C49.2762 73.3154 51.9095 75.9487 55.1578 75.9487Z" fill="#F9A826"/>
<path d="M90.2944 75.6183C93.5848 74.6301 97.083 73.5996 99.6925 71.2504C102.024 69.1512 103.599 65.9456 102.633 62.7974C101.669 59.6557 98.7809 57.5608 95.7996 56.5188C94.1086 55.9279 92.3396 55.6 90.5712 55.3425C88.6488 55.0625 86.718 54.8331 84.7881 54.6124C76.9735 53.7186 69.1296 53.1726 61.2563 52.9744C57.3713 52.8765 53.487 52.8789 49.6015 52.9353C46.1315 52.9857 42.4769 52.9844 39.2578 51.5096C36.7545 50.3627 34.4825 48.2762 33.785 45.5342C32.9798 42.3691 34.4649 39.1459 36.5953 36.8536C37.7183 35.6453 39.0307 34.6283 40.3846 33.6932C41.8534 32.6788 43.3734 31.7362 44.9263 30.8563C47.9848 29.1241 51.1825 27.65 54.4859 26.4491C56.1156 25.8566 57.7694 25.3453 59.4376 24.8737C60.8463 24.4755 62.2593 24.0767 63.6207 23.5341C66.2525 22.4851 68.7557 20.7084 69.4248 17.7955C70.0591 15.0349 68.9897 12.0379 67.1151 9.98706C64.9462 7.61437 61.676 6.57425 58.5408 6.40596C55.021 6.21703 51.5823 7.09794 48.274 8.21593C44.7455 9.40835 41.2931 10.7794 37.69 11.7453C34.1171 12.7021 30.475 13.3791 26.7969 13.7701C24.9964 13.9619 23.1414 14.1783 21.3301 14.0316C19.8121 13.9086 18.3018 13.4621 17.1831 12.3848C16.2238 11.461 15.6524 10.1915 15.8488 8.85171C15.8845 8.60837 16.2542 8.71182 16.2187 8.95368C15.9796 10.5845 17.0882 12.0873 18.4542 12.8572C20.0331 13.7468 21.9543 13.7481 23.7121 13.6463C27.5234 13.4161 31.309 12.8689 35.0295 12.0103C38.6853 11.1753 42.2106 9.98159 45.7319 8.70648C49.0762 7.49545 52.4952 6.31348 56.0681 6.05118C59.1682 5.82358 62.4293 6.27522 65.13 7.89532C67.5036 9.31916 69.249 11.6937 69.8052 14.4185C70.3486 17.0811 69.596 19.7611 67.5804 21.6192C65.4936 23.543 62.6321 24.3655 59.9655 25.123C56.5833 26.0838 53.2737 27.2069 50.0701 28.6651C46.8229 30.1391 43.7087 31.8899 40.7619 33.8982C37.9175 35.8419 35.1104 38.2877 34.2108 41.7553C33.7918 43.3706 33.8692 45.0838 34.5703 46.6095C35.1938 47.966 36.2206 49.1072 37.4167 49.9873C40.2706 52.0874 43.8676 52.5185 47.3149 52.5614C51.1866 52.6096 55.0585 52.4789 58.9316 52.5425C66.8247 52.672 74.7016 53.1525 82.5624 53.9838C84.5322 54.1923 86.4994 54.4228 88.4641 54.6752C90.2314 54.9022 92.0045 55.1279 93.742 55.5311C96.8314 56.2482 99.8376 57.627 101.758 60.2464C102.61 61.3817 103.138 62.7272 103.285 64.1392C103.42 65.6126 103.059 67.0888 102.393 68.3996C100.918 71.3008 98.1564 73.1461 95.2233 74.3584C93.6523 75.0078 92.0228 75.4997 90.3964 75.9881C90.1595 76.0593 90.0582 75.6892 90.2944 75.6183L90.2944 75.6183Z" fill="#F2F2F2"/>
<path d="M16.0966 11.9549C17.7914 11.9549 19.1652 10.581 19.1652 8.88626C19.1652 7.1915 17.7914 5.81763 16.0966 5.81763C14.4018 5.81763 13.028 7.1915 13.028 8.88626C13.028 10.581 14.4018 11.9549 16.0966 11.9549Z" fill="#F2F2F2"/>
<path d="M37.3853 17.7725C39.08 17.7725 40.4539 16.3986 40.4539 14.7039C40.4539 13.0091 39.08 11.6353 37.3853 11.6353C35.6905 11.6353 34.3167 13.0091 34.3167 14.7039C34.3167 16.3986 35.6905 17.7725 37.3853 17.7725Z" fill="#F2F2F2"/>
<path d="M55.4135 6.13727C57.1082 6.13727 58.4821 4.76339 58.4821 3.06863C58.4821 1.37387 57.1082 0 55.4135 0C53.7187 0 52.3448 1.37387 52.3448 3.06863C52.3448 4.76339 53.7187 6.13727 55.4135 6.13727Z" fill="#F2F2F2"/>
<path d="M66.6652 19.179C68.36 19.179 69.7338 17.8051 69.7338 16.1103C69.7338 14.4156 68.36 13.0417 66.6652 13.0417C64.9704 13.0417 63.5966 14.4156 63.5966 16.1103C63.5966 17.8051 64.9704 19.179 66.6652 19.179Z" fill="#F2F2F2"/>
<path d="M51.4499 34.2664C53.1446 34.2664 54.5185 32.8925 54.5185 31.1978C54.5185 29.503 53.1446 28.1292 51.4499 28.1292C49.7551 28.1292 48.3812 29.503 48.3812 31.1978C48.3812 32.8925 49.7551 34.2664 51.4499 34.2664Z" fill="#F2F2F2"/>
<path d="M32.143 41.5544C33.8377 41.5544 35.2116 40.1806 35.2116 38.4858C35.2116 36.791 33.8377 35.4172 32.143 35.4172C30.4482 35.4172 29.0743 36.791 29.0743 38.4858C29.0743 40.1806 30.4482 41.5544 32.143 41.5544Z" fill="#F2F2F2"/>
<path d="M52.6006 52.934C54.2954 52.934 55.6693 51.5601 55.6693 49.8653C55.6693 48.1706 54.2954 46.7967 52.6006 46.7967C50.9059 46.7967 49.532 48.1706 49.532 49.8653C49.532 51.5601 50.9059 52.934 52.6006 52.934Z" fill="#F2F2F2"/>
<path d="M74.5924 59.327C76.2872 59.327 77.6611 57.9531 77.6611 56.2583C77.6611 54.5636 76.2872 53.1897 74.5924 53.1897C72.8977 53.1897 71.5238 54.5636 71.5238 56.2583C71.5238 57.9531 72.8977 59.327 74.5924 59.327Z" fill="#F2F2F2"/>
<path d="M100.292 57.9205C101.987 57.9205 103.361 56.5466 103.361 54.8518C103.361 53.1571 101.987 51.7832 100.292 51.7832C98.5976 51.7832 97.2238 53.1571 97.2238 54.8518C97.2238 56.5466 98.5976 57.9205 100.292 57.9205Z" fill="#F2F2F2"/>
<path d="M54.5277 8.6949C45.3356 8.75983 37.8093 16.2297 37.6787 25.421C37.6775 25.5059 37.6769 26.1026 37.677 26.883C37.6771 28.0273 38.1316 29.1247 38.9407 29.9339C39.7498 30.743 40.8472 31.1976 41.9915 31.1978H41.9915C42.5587 31.1977 43.1204 31.0858 43.6444 30.8685C44.1683 30.6512 44.6444 30.3328 45.0452 29.9315C45.4461 29.5302 45.764 29.0538 45.9807 28.5296C46.1974 28.0054 46.3087 27.4436 46.3082 26.8764C46.3078 26.3455 46.3075 25.9781 46.3075 25.9555C46.3072 24.535 46.6767 23.1389 47.3796 21.9045C48.0826 20.6701 49.0947 19.6399 50.3165 18.9153C51.5384 18.1908 52.9278 17.7967 54.3481 17.772C55.7684 17.7473 57.1706 18.0927 58.417 18.7743C59.6633 19.4559 60.7107 20.4501 61.4562 21.6593C62.2017 22.8685 62.6196 24.2509 62.6687 25.6706C62.7179 27.0903 62.3967 28.4983 61.7366 29.7561C61.0766 31.014 60.1004 32.0783 58.9043 32.8445L58.9058 32.8464C58.9058 32.8464 52.7649 36.7997 50.8927 42.223L50.8943 42.2234C50.5651 43.3344 50.3982 44.4872 50.399 45.6459C50.399 46.1223 50.427 50.29 50.4812 53.6727C50.5001 54.8398 50.9771 55.9528 51.8093 56.7714C52.6415 57.59 53.7621 58.0486 54.9294 58.0483H54.9294C55.516 58.0483 56.0967 57.9323 56.6383 57.707C57.1798 57.4817 57.6715 57.1515 58.0849 56.7355C58.4984 56.3194 58.8255 55.8257 59.0474 55.2828C59.2694 54.7399 59.3818 54.1584 59.3782 53.5719C59.3594 50.4739 59.3492 46.8667 59.3492 46.6049C59.3492 43.2748 62.5617 39.9568 65.2005 37.7931C68.2392 35.3015 70.4259 31.9061 71.3042 28.0759C71.4985 27.2873 71.6057 26.4798 71.6237 25.6678C71.6237 23.4285 71.1806 21.2114 70.3199 19.1441C69.4593 17.0768 68.198 15.2003 66.6089 13.6226C65.0198 12.0449 63.1342 10.7972 61.0607 9.95152C58.9873 9.1058 56.767 8.67872 54.5277 8.6949Z" fill="#F9A826"/>
<path d="M107.848 76.11H0.152289C0.111988 76.1099 0.0733793 76.0938 0.0449239 76.0653C0.0164685 76.0367 0.000488281 75.9981 0.000488281 75.9578C0.000488281 75.9175 0.0164685 75.8788 0.0449239 75.8503C0.0733793 75.8218 0.111988 75.8057 0.152289 75.8055H107.848C107.888 75.8055 107.927 75.8216 107.955 75.8501C107.984 75.8787 108 75.9174 108 75.9578C108 75.9982 107.984 76.0369 107.955 76.0654C107.927 76.094 107.888 76.11 107.848 76.11Z" fill="#3F3D56"/>
<path d="M80.3534 34.9052C82.4718 34.9052 84.1892 33.1878 84.1892 31.0694C84.1892 28.9509 82.4718 27.2336 80.3534 27.2336C78.2349 27.2336 76.5176 28.9509 76.5176 31.0694C76.5176 33.1878 78.2349 34.9052 80.3534 34.9052Z" fill="#2F2E41"/>
<path d="M73.2653 74.4309H71.6978L70.952 68.3846H73.2656L73.2653 74.4309Z" fill="#A0616A"/>
<path d="M70.578 73.983H73.6011V75.8864H68.6746C68.6746 75.6364 68.7238 75.3889 68.8194 75.158C68.9151 74.9271 69.0553 74.7172 69.2321 74.5405C69.4088 74.3637 69.6186 74.2235 69.8496 74.1279C70.0805 74.0322 70.328 73.983 70.578 73.983Z" fill="#2F2E41"/>
<path d="M85.4119 74.4309H83.8444L83.0986 68.3846H85.4123L85.4119 74.4309Z" fill="#A0616A"/>
<path d="M82.7247 73.983H85.7478V75.8864H80.8213C80.8213 75.6364 80.8705 75.3889 80.9662 75.158C81.0618 74.9271 81.202 74.7172 81.3788 74.5405C81.5555 74.3637 81.7654 74.2235 81.9963 74.1279C82.2272 74.0322 82.4748 73.983 82.7247 73.983Z" fill="#2F2E41"/>
<path d="M79.7705 34.9276C81.5049 34.9276 82.9109 33.5216 82.9109 31.7872C82.9109 30.0528 81.5049 28.6469 79.7705 28.6469C78.0361 28.6469 76.6301 30.0528 76.6301 31.7872C76.6301 33.5216 78.0361 34.9276 79.7705 34.9276Z" fill="#A0616A"/>
<path d="M81.6422 45.0585L83.0474 41.83C83.3886 41.0727 83.4865 40.2281 83.3273 39.4128C83.1681 38.5974 82.7598 37.8516 82.1588 37.2782C82.0353 37.1562 81.9042 37.0422 81.7662 36.9368C81.0729 36.3945 80.2185 36.0988 79.3382 36.0968C78.7463 36.0991 78.1619 36.2291 77.6249 36.4778C77.5788 36.4983 77.5341 36.52 77.488 36.5418C77.3998 36.5839 77.3129 36.63 77.2285 36.6773C76.6781 36.9933 76.2096 37.4343 75.8609 37.9647C75.5122 38.4951 75.293 39.0999 75.2211 39.7306L74.6009 44.9268C74.445 45.3347 68.8805 60.0641 70.8266 71.3094C70.8473 71.4295 70.9059 71.5398 70.9937 71.6242C71.0816 71.7086 71.1942 71.7628 71.315 71.7786L73.2879 72.0471C73.4319 72.0668 73.5781 72.0312 73.697 71.9475C73.8158 71.8637 73.8985 71.7381 73.9284 71.5958L77.2387 55.8166C77.2594 55.7186 77.3123 55.6303 77.389 55.5658C77.4657 55.5014 77.5618 55.4646 77.6619 55.4612C77.7621 55.4578 77.8604 55.4881 77.9413 55.5472C78.0222 55.6063 78.081 55.6908 78.1082 55.7872L82.7853 72.3809C82.8186 72.5014 82.8906 72.6077 82.9901 72.6835C83.0896 72.7592 83.2113 72.8002 83.3364 72.8002C83.3737 72.8 83.4109 72.7966 83.4476 72.79L85.8577 72.3259C85.9978 72.2997 86.1231 72.2221 86.209 72.1083C86.2949 71.9945 86.3351 71.8528 86.3219 71.7109C85.9677 67.7613 84.0856 47.9775 81.6422 45.0585Z" fill="#2F2E41"/>
<path d="M67.5662 34.4006C67.5444 34.5873 67.5638 34.7765 67.623 34.9549C67.6823 35.1333 67.7799 35.2965 67.909 35.4331C68.0382 35.5697 68.1957 35.6763 68.3705 35.7454C68.5453 35.8145 68.7331 35.8444 68.9208 35.8331L70.6761 40.0515L72.004 38.0832L70.1334 34.3791C70.0935 34.0652 69.9398 33.7768 69.7015 33.5686C69.4631 33.3604 69.1567 33.2469 68.8402 33.2496C68.5238 33.2522 68.2193 33.3709 67.9845 33.583C67.7497 33.7952 67.6008 34.0861 67.5662 34.4006L67.5662 34.4006Z" fill="#A0616A"/>
<path d="M79.5963 49.3061C79.7829 49.2838 79.9624 49.2208 80.1221 49.1216C80.2817 49.0225 80.4177 48.8895 80.5204 48.7321C80.6232 48.5747 80.6901 48.3966 80.7166 48.2106C80.7431 48.0245 80.7284 47.8348 80.6737 47.655L84.367 44.965L82.1434 44.1324L78.9771 46.8145C78.6811 46.9265 78.4365 47.1431 78.2896 47.4234C78.1427 47.7037 78.1037 48.0282 78.18 48.3353C78.2563 48.6424 78.4426 48.9109 78.7037 49.0898C78.9647 49.2687 79.2823 49.3457 79.5963 49.3061Z" fill="#A0616A"/>
<path d="M73.5755 42.8638C73.4339 42.8637 73.2927 42.8497 73.1538 42.8222C72.8178 42.7583 72.5028 42.6127 72.2364 42.3983C71.97 42.1839 71.7604 41.9072 71.6262 41.5927L69.1669 38.594C69.1149 38.5306 69.077 38.4568 69.0559 38.3776C69.0347 38.2984 69.0307 38.2156 69.0442 38.1347C69.0576 38.0538 69.0882 37.9767 69.1339 37.9086C69.1795 37.8405 69.2392 37.783 69.3089 37.7398L71.0586 36.6567C71.1232 36.6167 71.1951 36.5899 71.2701 36.5779C71.3451 36.5658 71.4218 36.5687 71.4957 36.5864C71.5695 36.6041 71.6392 36.6363 71.7006 36.6811C71.7619 36.7258 71.8139 36.7823 71.8533 36.8473L73.5866 39.7029L76.906 37.2497C77.1703 37.1111 77.4757 37.0723 77.7662 37.1402C78.0568 37.2082 78.3133 37.3784 78.4887 37.6198C78.6641 37.8612 78.7469 38.1577 78.7218 38.455C78.6967 38.7524 78.5655 39.0308 78.3521 39.2394L75.039 42.2616C74.6497 42.6475 74.1237 42.864 73.5755 42.8638Z" fill="#2F2E41"/>
<path d="M82.545 47.3738C82.5405 47.3738 82.536 47.3738 82.5315 47.3737C82.4508 47.3717 82.3714 47.3528 82.2985 47.3182C82.2256 47.2836 82.1608 47.2341 82.1082 47.1729L80.5526 45.3581C80.4996 45.2963 80.4604 45.224 80.4374 45.1459C80.4144 45.0678 80.4083 44.9857 80.4195 44.905C80.4306 44.8244 80.4587 44.747 80.5019 44.6781C80.5452 44.6091 80.6026 44.5501 80.6703 44.5049L83.5831 42.563L80.9443 39.3905C80.7908 39.1346 80.7345 38.832 80.7857 38.538C80.8368 38.244 80.9921 37.9783 81.223 37.7893C81.454 37.6003 81.7452 37.5007 82.0435 37.5087C82.3418 37.5167 82.6273 37.6318 82.8478 37.8329L86.055 40.967C86.3074 41.1976 86.5001 41.486 86.6165 41.8075C86.7329 42.1289 86.7696 42.4738 86.7234 42.8126C86.6772 43.1513 86.5494 43.4738 86.3512 43.7523C86.1529 44.0309 85.89 44.2571 85.585 44.4116L82.9637 47.1931C82.9099 47.2501 82.845 47.2955 82.773 47.3266C82.701 47.3577 82.6234 47.3737 82.545 47.3738Z" fill="#2F2E41"/>
<path d="M78.972 40.6868C78.947 40.6868 78.9221 40.6852 78.8973 40.6821C78.789 40.6689 78.6867 40.6249 78.6026 40.5554C78.5185 40.4858 78.4562 40.3936 78.4229 40.2897L77.254 36.7059C77.2247 36.6153 77.2292 36.5171 77.2667 36.4296C77.3041 36.3421 77.372 36.271 77.4578 36.2297L77.4957 36.2118C77.5301 36.1954 77.5642 36.1792 77.5989 36.1637C78.144 35.911 78.7374 35.7791 79.3382 35.7772C80.1182 35.7787 80.8808 36.0078 81.5325 36.4366C81.6198 36.4947 81.6809 36.5848 81.7024 36.6875C81.724 36.7902 81.7043 36.8973 81.6477 36.9856L79.4549 40.4209C79.4035 40.5025 79.3322 40.5697 79.2478 40.6162C79.1633 40.6627 79.0684 40.687 78.972 40.6868Z" fill="#E6E6E6"/>
<path d="M83.3775 29.357C84.0707 29.357 84.6326 28.795 84.6326 28.1018C84.6326 27.4086 84.0707 26.8467 83.3775 26.8467C82.6843 26.8467 82.1223 27.4086 82.1223 28.1018C82.1223 28.795 82.6843 29.357 83.3775 29.357Z" fill="#2F2E41"/>
<path d="M79.0747 26.7222C78.193 26.7222 77.3475 27.0724 76.724 27.6958C76.1006 28.3193 75.7504 29.1648 75.7504 30.0465V31.453H77.4802L78.3076 30.0465L78.5558 31.453H83.8055L82.3991 30.0465C82.3991 29.1648 82.0488 28.3193 81.4254 27.6958C80.8019 27.0724 79.9564 26.7222 79.0747 26.7222Z" fill="#2F2E41"/>
<path d="M84.0227 27.242C84.1615 26.808 84.4489 26.4368 84.8343 26.1937C85.2197 25.9506 85.6785 25.8512 86.1299 25.9129C86.9298 26.0466 87.5623 26.6895 87.9391 27.4077C88.3159 28.1258 88.4899 28.9295 88.7432 29.6999C88.9966 30.4703 89.3558 31.2449 89.9954 31.7436C90.6349 32.2424 91.6163 32.3776 92.2444 31.8646C92.1726 32.3993 91.9346 32.8978 91.564 33.2898C91.1933 33.6818 90.7088 33.9473 90.179 34.0488C89.6492 34.1503 89.1009 34.0827 88.6116 33.8555C88.1224 33.6283 87.7169 33.2531 87.4526 32.7828C87.1212 32.1931 87.0356 31.5021 86.9373 30.8328C86.839 30.1636 86.7113 29.4711 86.3156 28.9225C85.92 28.3739 85.1793 28.0156 84.5507 28.2655L84.0227 27.242Z" fill="#2F2E41"/>
<path d="M43.2097 29.1569C42.0654 29.1568 40.968 28.7022 40.1589 27.893C39.3498 27.0839 38.8952 25.9865 38.8952 24.8422C38.8951 24.0617 38.8957 23.4651 38.8969 23.3802C38.9332 20.7071 39.6064 18.0812 40.8606 15.7203C38.8 18.5412 37.667 21.9329 37.6183 25.426C37.6171 25.5108 37.6165 26.1075 37.6166 26.8879C37.6166 28.0322 38.0712 29.1296 38.8803 29.9388C39.6894 30.7479 40.7868 31.2026 41.9311 31.2027C42.8714 31.2023 43.7859 30.8951 44.5356 30.3276C45.2853 29.7601 45.8293 28.9634 46.085 28.0585C45.295 28.767 44.2708 29.1582 43.2097 29.1569Z" fill="#3F3D56"/>
<path d="M54.8202 17.7865C56.143 17.8497 57.4308 18.233 58.5729 18.9035C59.715 19.574 60.6773 20.5116 61.3772 21.636C62.0771 22.7603 62.4936 24.0377 62.5911 25.3585C62.6886 26.6792 62.464 28.0039 61.9367 29.2188C62.6994 28.3231 63.26 27.2735 63.5802 26.1415C63.9005 25.0095 63.9729 23.8218 63.7925 22.6593C63.6121 21.4968 63.1831 20.3868 62.5349 19.4051C61.8867 18.4234 61.0344 17.593 60.0361 16.9706C59.0379 16.3481 57.9172 15.9482 56.7503 15.7982C55.5835 15.6481 54.3981 15.7514 53.2748 16.101C52.1516 16.4506 51.1169 17.0383 50.2413 17.8241C49.3658 18.6098 48.67 19.5751 48.2013 20.6541C49.0113 19.7012 50.0294 18.9471 51.177 18.4499C52.3245 17.9527 53.571 17.7257 54.8202 17.7865Z" fill="#3F3D56"/>
<path d="M56.1476 56.0075C54.9803 56.0077 53.8597 55.5491 53.0275 54.7305C52.1953 53.9119 51.7183 52.799 51.6994 51.6318C51.6453 48.2491 51.6172 44.0814 51.6172 43.6051C51.6165 42.4463 51.7833 41.2936 52.1125 40.1825L52.1109 40.1822C52.3053 39.6245 52.5401 39.0818 52.8134 38.5582C51.9744 39.6763 51.3067 40.9131 50.8323 42.2279L50.8339 42.2283C50.5047 43.3393 50.3379 44.4921 50.3386 45.6508C50.3386 46.1272 50.3667 50.2949 50.4208 53.6776C50.4397 54.8447 50.9167 55.9577 51.7489 56.7763C52.5811 57.5949 53.7017 58.0535 54.869 58.0532C55.8315 58.0531 56.768 57.7408 57.538 57.1634C58.308 56.586 58.87 55.7744 59.1398 54.8505C58.3219 55.5963 57.2545 56.009 56.1476 56.0075Z" fill="#3F3D56"/>
<path d="M16.1796 74.4892L17.747 74.489L18.4928 68.4428L16.1792 68.4429L16.1796 74.4892Z" fill="#FFB8B8"/>
<path d="M20.7701 75.9446L15.8436 75.9448L15.8435 74.0414L18.8666 74.0412C19.3714 74.0412 19.8556 74.2417 20.2126 74.5987C20.5696 74.9556 20.7701 75.4398 20.7701 75.9446L20.7701 75.9446Z" fill="#2F2E41"/>
<path d="M10.5536 74.4892L12.121 74.489L12.8668 68.4428L10.5532 68.4429L10.5536 74.4892Z" fill="#FFB8B8"/>
<path d="M15.1443 75.9446L10.2178 75.9448L10.2177 74.0414L13.2408 74.0412C13.7456 74.0412 14.2297 74.2417 14.5867 74.5987C14.9437 74.9556 15.1443 75.4398 15.1443 75.9446L15.1443 75.9446Z" fill="#2F2E41"/>
<path d="M11.9235 72.6296L10.3924 72.5491C10.3134 72.545 10.2361 72.5252 10.1648 72.4909C10.0936 72.4567 10.0298 72.4086 9.97726 72.3495C9.92471 72.2905 9.88441 72.2216 9.85869 72.1468C9.83296 72.072 9.82233 71.9929 9.8274 71.914L11.6574 51.6526L20.0848 53.9267L20.8967 53.7052L18.3576 71.6419C18.336 71.7769 18.269 71.9004 18.1677 71.9921C18.0664 72.0838 17.9368 72.1382 17.8004 72.1463L16.1499 72.2232C16.0673 72.2278 15.9848 72.2152 15.9073 72.1862C15.8299 72.1573 15.7594 72.1126 15.7001 72.0549C15.6408 71.9973 15.5942 71.928 15.5631 71.8514C15.532 71.7749 15.5171 71.6927 15.5193 71.61L15.8184 60.8447C15.8198 60.7949 15.8025 60.7464 15.7699 60.7088C15.7373 60.6711 15.6918 60.647 15.6424 60.6412C15.5929 60.6355 15.5431 60.6484 15.5027 60.6775C15.4623 60.7067 15.4343 60.7499 15.4242 60.7987L12.5401 72.1542C12.5128 72.2889 12.4397 72.4101 12.3332 72.4969C12.2267 72.5838 12.0933 72.631 11.9559 72.6306C11.9451 72.6306 11.9343 72.6303 11.9235 72.6296Z" fill="#2F2E41"/>
<path d="M16.4609 35.0745C18.1953 35.0745 19.6013 33.6685 19.6013 31.9341C19.6013 30.1998 18.1953 28.7938 16.4609 28.7938C14.7265 28.7938 13.3206 30.1998 13.3206 31.9341C13.3206 33.6685 14.7265 35.0745 16.4609 35.0745Z" fill="#FFB8B8"/>
<path d="M11.2324 41.1603L11.5777 48.6104L11.7026 51.3208C11.7075 51.4388 11.7476 51.5527 11.8176 51.6478C11.8876 51.7429 11.9844 51.8149 12.0956 51.8547L20.1938 54.7882C20.2592 54.8125 20.3285 54.8247 20.3983 54.8241C20.478 54.8245 20.5571 54.8088 20.6306 54.7779C20.7042 54.7471 20.7708 54.7018 20.8265 54.6446C20.8821 54.5875 20.9257 54.5197 20.9546 54.4454C20.9835 54.371 20.9971 54.2916 20.9946 54.2119L20.6626 40.8164C20.6408 39.7173 20.2362 38.6604 19.5186 37.8276C18.8011 36.9949 17.8154 36.4386 16.7317 36.2547C16.6534 36.2428 16.5737 36.2308 16.494 36.2202C15.822 36.1368 15.1398 36.2016 14.4956 36.4102C13.8513 36.6187 13.2606 36.9659 12.7649 37.4273C12.2517 37.8994 11.8484 38.4784 11.5836 39.1234C11.3188 39.7685 11.1989 40.4638 11.2324 41.1603L11.2324 41.1603Z" fill="#CCCCCC"/>
<path d="M24.0623 53.3017C23.8707 53.2422 23.6957 53.1388 23.5513 52.9998C23.4068 52.8607 23.2968 52.6898 23.2301 52.5006C23.1634 52.3115 23.1419 52.1094 23.1672 51.9104C23.1925 51.7115 23.2639 51.5212 23.3758 51.3548L20.6296 47.7031L22.9994 47.5565L25.2439 51.0466C25.4842 51.2324 25.6514 51.4969 25.7162 51.7936C25.781 52.0903 25.7393 52.4004 25.5983 52.6694C25.4573 52.9385 25.2261 53.1493 24.9452 53.2649C24.6644 53.3805 24.3518 53.3935 24.0623 53.3017H24.0623Z" fill="#FFB8B8"/>
<path d="M22.1314 50.6939C22.0587 50.6644 21.9925 50.6207 21.9367 50.5655C21.881 50.5102 21.8367 50.4444 21.8065 50.3719L17.6692 40.5147C17.588 40.3217 17.5457 40.1146 17.5446 39.9052C17.5435 39.6958 17.5836 39.4883 17.6628 39.2944C17.7419 39.1006 17.8585 38.9243 18.0058 38.7755C18.1531 38.6267 18.3283 38.5084 18.5214 38.4274C18.7145 38.3464 18.9216 38.3042 19.131 38.3032C19.3403 38.3023 19.5478 38.3426 19.7416 38.4219C19.9354 38.5012 20.1117 38.6179 20.2603 38.7654C20.409 38.9128 20.5271 39.0881 20.608 39.2812L24.7453 49.1386C24.8065 49.2848 24.8071 49.4492 24.7472 49.5959C24.6873 49.7425 24.5716 49.8594 24.4256 49.9209L22.5888 50.6917C22.5165 50.7224 22.4389 50.7383 22.3603 50.7387C22.2818 50.7391 22.204 50.7239 22.1314 50.694L22.1314 50.6939Z" fill="#CCCCCC"/>
<path d="M15.4513 50.3463L19.4251 42.7375C19.5017 42.5912 19.6332 42.4812 19.7908 42.4318C19.9484 42.3823 20.1192 42.3974 20.2657 42.4737L26.0337 45.4861C26.18 45.5627 26.29 45.6942 26.3394 45.8518C26.3889 46.0094 26.3738 46.1802 26.2975 46.3267L22.3237 53.9355C22.2471 54.0818 22.1155 54.1918 21.9579 54.2413C21.8003 54.2907 21.6295 54.2757 21.483 54.1994L15.7151 51.187C15.5688 51.1103 15.4588 50.9788 15.4094 50.8212C15.3599 50.6636 15.375 50.4928 15.4513 50.3463Z" fill="#3F3D56"/>
<path d="M18.1162 46.87C18.0455 46.6823 17.932 46.5138 17.7846 46.3777C17.6373 46.2417 17.4601 46.142 17.2674 46.0866C17.0747 46.0312 16.8716 46.0217 16.6745 46.0587C16.4774 46.0957 16.2917 46.1782 16.1322 46.2997L12.3247 43.774L12.3182 46.1483L15.9349 48.1828C16.1345 48.4117 16.4084 48.563 16.7084 48.6101C17.0085 48.6573 17.3155 48.5973 17.5758 48.4407C17.836 48.2841 18.0328 48.0408 18.1316 47.7536C18.2304 47.4664 18.225 47.1536 18.1162 46.87Z" fill="#FFB8B8"/>
<path d="M13.3022 47.404L10.1905 44.9391C9.85391 44.8261 9.54974 44.6331 9.30414 44.3766C9.05854 44.1202 8.87884 43.8079 8.78047 43.4667C8.6821 43.1255 8.66799 42.7656 8.73936 42.4177C8.81074 42.0699 8.96545 41.7445 9.19023 41.4696L12.0156 37.7669C12.2119 37.527 12.488 37.3657 12.7935 37.3126C13.0989 37.2595 13.4132 37.3181 13.679 37.4777C13.9448 37.6372 14.1443 37.8871 14.241 38.1817C14.3377 38.4762 14.3252 38.7958 14.2058 39.0818L11.9703 42.7386L15.2555 44.2968C15.3319 44.3331 15.3997 44.3851 15.4545 44.4495C15.5093 44.5139 15.5498 44.5892 15.5734 44.6704C15.5969 44.7516 15.603 44.8369 15.5911 44.9206C15.5793 45.0043 15.5498 45.0845 15.5046 45.156L14.1785 47.2547C14.1336 47.3255 14.0744 47.3862 14.0047 47.4327C13.9349 47.4792 13.8562 47.5105 13.7736 47.5246C13.7703 47.5252 13.767 47.5257 13.7637 47.5262C13.6825 47.5385 13.5997 47.5339 13.5203 47.5129C13.4409 47.4919 13.3667 47.4548 13.3022 47.404Z" fill="#CCCCCC"/>
<path d="M14.088 34.0369C14.0745 33.9975 14.0703 33.9555 14.0755 33.9142C14.0808 33.8729 14.0954 33.8333 14.1183 33.7985C14.1412 33.7637 14.1718 33.7347 14.2077 33.7135C14.2436 33.6924 14.2838 33.6797 14.3254 33.6765C14.4104 33.6811 14.4936 33.7029 14.57 33.7406C14.6464 33.7783 14.7144 33.8311 14.7698 33.8958C14.8835 34.0268 15.0158 34.1404 15.1625 34.233C15.3144 34.3095 15.5204 34.2986 15.607 34.1526C15.6884 34.0155 15.6326 33.832 15.5834 33.6727C15.4581 33.2676 15.388 32.8474 15.375 32.4235C15.3608 31.9504 15.4276 31.4566 15.6895 31.0876C16.0275 30.6114 16.632 30.4306 17.2041 30.4437C17.7761 30.4568 18.3389 30.6334 18.9055 30.745C19.1011 30.7835 19.3311 30.8033 19.4619 30.6516C19.601 30.4904 19.5499 30.2295 19.4907 30.0119C19.3372 29.4471 19.1743 28.8631 18.8175 28.4069C18.4318 27.9329 17.8808 27.6227 17.2754 27.5387C16.6943 27.4668 16.1044 27.5337 15.5541 27.7342C14.6577 28.0167 13.8689 28.5662 13.2932 29.3092C12.6998 30.0994 12.4433 31.0923 12.58 32.071C12.7135 32.9234 13.1652 33.6935 13.844 34.226L14.088 34.0369Z" fill="#2F2E41"/>
<path d="M53.862 74.5142C53.0265 74.1503 52.287 73.5972 51.7018 72.8985C51.1167 72.1999 50.7019 71.3748 50.4903 70.4884C50.2786 69.602 50.2759 68.6785 50.4822 67.7909C50.6886 66.9033 51.0984 66.0757 51.6794 65.3736C51.0058 65.8654 50.4445 66.4948 50.0328 67.2202C49.6211 67.9455 49.3684 68.75 49.2914 69.5805C49.2144 70.4109 49.3149 71.2483 49.5862 72.0369C49.8576 72.8255 50.2935 73.5475 50.8652 74.1547C51.4369 74.762 52.1312 75.2407 52.902 75.5591C53.6728 75.8776 54.5026 76.0284 55.3362 76.0016C56.1698 75.9749 56.9881 75.7711 57.7369 75.4039C58.4857 75.0367 59.1479 74.5144 59.6794 73.8717C58.8504 74.4776 57.877 74.8558 56.8564 74.9685C55.8357 75.0812 54.8033 74.9246 53.862 74.5142Z" fill="#3F3D56"/>
</g>
<defs>
<clipPath id="clip0">
<rect width="108" height="76.11" fill="white"/>
</clipPath>
</defs>
</svg>
