<svg width="414" height="337" viewBox="0 0 414 337" fill="none" xmlns="http://www.w3.org/2000/svg">
<g clip-path="url(#clip0)">
<path opacity="0.1" d="M403.934 195.553C403.934 195.809 403.934 196.065 403.934 196.317C403.889 200.736 403.626 205.144 403.146 209.541C403.148 209.568 403.148 209.594 403.146 209.621C403.108 209.986 403.066 210.348 403.024 210.713C402.952 211.331 402.876 211.944 402.792 212.562C401.81 220.078 400.185 227.497 397.936 234.737C394.922 244.521 390.661 253.878 385.257 262.58C383.595 265.24 381.824 267.815 379.946 270.305C378.943 271.624 377.92 272.914 376.863 274.182C376.121 275.07 375.366 275.944 374.597 276.804L374.116 277.333C370.068 281.766 365.704 285.902 361.059 289.708C353.477 295.976 345.314 301.429 337.021 306.486C336.549 306.776 336.073 307.062 335.597 307.326C335.564 307.35 335.529 307.372 335.492 307.389C324.22 314.186 312.532 320.319 300.489 325.23C287.306 330.62 273.692 334.539 259.725 336.253C240.257 338.639 220.553 336.698 201.202 333.363C185.109 330.605 169.211 326.816 153.606 322.021L151.037 321.218C149.706 320.795 148.376 320.364 147.048 319.924C139.025 317.278 131.093 314.337 123.25 311.103C103.552 303.012 84.7345 292.935 67.0902 281.03C64.8438 279.523 62.6296 277.983 60.4478 276.409C57.3982 274.219 54.3852 271.964 51.4087 269.646L49.5722 268.226C41.7826 262.143 34.4845 255.458 27.7453 248.234C18.6809 238.396 10.9349 227.298 5.84251 214.628C5.03941 212.637 4.3037 210.608 3.63539 208.541L3.57221 208.336C3.23524 207.285 2.92355 206.235 2.63713 205.143C2.21592 203.58 1.84666 201.998 1.52935 200.396C1.46196 200.09 1.40299 199.783 1.34823 199.472C0.341501 194.081 -0.103135 188.601 0.0214313 183.118C0.126777 178.315 0.690937 173.533 1.70626 168.836C2.74547 163.967 4.34691 159.235 6.47853 154.734C8.40488 150.687 10.8593 146.911 13.778 143.505C15.829 141.124 18.1356 138.975 20.6564 137.095C25.2265 133.701 30.2936 131.336 35.546 129.466C38.0143 128.584 40.5163 127.811 43.0309 127.093C44.8126 126.58 46.6027 126.093 48.3844 125.614L53.6411 124.199C57.0107 123.283 60.3804 122.342 63.6995 121.325C72.747 118.57 81.6134 115.234 89.8143 110.261C91.1116 109.475 92.4342 108.614 93.7568 107.69C95.4417 106.522 97.1012 105.253 98.7439 103.884C100.403 102.498 102.029 101.015 103.579 99.4436C103.819 99.2 104.055 98.9563 104.291 98.7085C105.555 97.381 106.781 95.9906 107.918 94.5455C108.474 93.8398 109.013 93.1215 109.527 92.3905C110.239 91.3782 110.913 90.349 111.536 89.2904C114.661 83.9974 116.59 78.1584 116.363 72.0043C116.33 70.9903 116.238 69.9791 116.089 68.9755C115.542 65.2663 115.015 61.6452 114.628 58.104C113.002 43.4559 113.688 30.1731 124.711 17.6927C138.417 2.17931 159.928 -0.983858 179.51 0.255365C236.125 3.82601 287.664 36.0626 332.956 74.4407C336.873 77.7565 340.743 81.1171 344.564 84.5225C345.528 85.3795 346.492 86.242 347.458 87.1102C354.619 93.5415 361.67 100.212 368.236 107.358C368.767 107.938 369.298 108.517 369.82 109.101C370.14 109.462 370.465 109.819 370.78 110.185C372.827 112.495 374.814 114.862 376.74 117.284C381.901 123.715 386.458 130.605 390.354 137.868C396.32 149.265 400.359 161.567 402.308 174.276C403.041 178.891 403.523 183.543 403.752 188.21C403.824 189.583 403.87 190.961 403.896 192.335C403.896 192.776 403.896 193.213 403.896 193.654C403.938 194.292 403.938 194.914 403.934 195.553Z" fill="#F9A826"/>
<path d="M165.947 188.505L159.208 308.138L165.947 308.226L171.423 186.824L165.947 188.505Z" fill="#3F3D56"/>
<path d="M141.095 249.118H57.6965V267.181H141.095V249.118Z" fill="#F9A826"/>
<path d="M146.572 265.076V276.418H60.4222C57.3726 274.228 54.3596 271.974 51.3831 269.655V265.076H146.572Z" fill="#3F3D56"/>
<path d="M163.774 239.262C163.538 240.35 163.23 241.426 162.906 242.497C161.95 245.593 160.8 248.647 160.577 251.865C160.278 256.116 161.419 261.06 158.471 264.148C157.712 264.946 156.723 265.542 156.044 266.395C155.94 266.529 155.844 266.669 155.758 266.815C155.151 267.815 155.08 269.033 155.071 270.176C155.079 272.613 155.238 275.047 155.547 277.464C156.546 285.782 158.517 294.116 155.927 301.967C155.457 303.329 154.91 304.663 154.288 305.962C153.024 308.735 151.647 311.469 151.234 314.473C150.931 316.699 151.024 318.993 151.007 321.257C149.676 320.834 148.346 320.403 147.018 319.963C138.995 317.317 131.063 314.376 123.22 311.142C123.241 311.028 123.262 310.911 123.279 310.797C123.881 307.058 123.056 303.236 122.053 299.589C119.947 291.864 116.965 284.215 115.2 276.435C114.489 273.396 114.023 270.306 113.806 267.193C113.755 266.496 113.726 265.794 113.722 265.093C113.701 264.177 113.722 263.261 113.76 262.337C113.848 260.493 113.928 258.304 112.45 257.183C111.637 256.574 110.563 256.469 109.615 256.099C107.787 255.389 106.536 253.742 105.087 252.423C104.396 251.755 103.552 251.264 102.628 250.993C101.704 250.722 100.728 250.68 99.7839 250.869C90.3151 253.032 83.3568 261.043 74.5452 265.093C74.204 265.252 73.8628 265.404 73.5174 265.547C72.3776 265.963 71.2927 266.516 70.2868 267.193C69.5799 267.683 69.0672 268.403 68.8378 269.231C68.6146 270.121 68.8083 271.054 68.9178 271.969C69.0951 273.458 69.0311 274.966 68.7283 276.435C68.6141 277.004 68.4635 277.565 68.2776 278.115C67.9406 279.111 67.4899 280.085 67.0603 281.056C64.8139 279.549 62.5997 278.009 60.4179 276.435C57.3683 274.245 54.3553 271.991 51.3788 269.672L49.5718 268.222C41.7822 262.139 34.4841 255.455 27.7449 248.231C28.642 245.711 29.9394 243.367 30.5627 240.783C30.9166 239.3 31.0471 237.759 31.5357 236.318C32.0992 234.824 32.8828 233.422 33.8608 232.159C37.4425 227.177 41.8161 222.813 46.8087 219.237C52.0274 215.507 58.0549 212.516 62.7514 208.282C64.6573 206.618 66.3003 204.676 67.6247 202.523C67.7048 202.392 67.7806 202.254 67.848 202.102C68.2146 201.342 68.4685 200.533 68.6019 199.7C68.9389 197.818 68.8884 195.751 69.0568 193.945C74.778 194.932 80.6106 195.108 86.3811 194.466C93.0993 193.714 99.6701 191.853 106.388 191.13C106.894 191.071 107.403 191.025 107.913 190.983C110.066 190.811 112.222 190.773 114.383 190.798C116.19 190.798 117.997 190.878 119.804 190.937L139.697 191.609C141.9 191.685 144.15 191.769 146.201 192.571C148.635 193.525 150.586 195.423 152.148 197.511C152.346 197.78 152.544 198.049 152.73 198.326C154.015 200.197 155.047 202.229 155.796 204.371C155.876 204.589 155.952 204.791 156.023 205.03C156.213 205.614 156.377 206.202 156.525 206.799C156.638 207.265 156.739 207.732 156.832 208.202C157.295 210.529 157.569 212.907 158.302 215.154C158.353 215.318 158.407 215.482 158.466 215.642C159.347 218.103 160.808 220.309 161.912 222.674C162.708 224.386 163.315 226.179 163.723 228.021C164.548 231.721 164.565 235.555 163.774 239.262Z" fill="#35323E"/>
<path d="M103.305 88.93C101.528 87.5185 98.9499 88.5519 96.8692 89.4635C95.1246 90.2319 93.3288 90.879 91.4945 91.4C91.1192 91.5441 90.7122 91.5861 90.3152 91.5218C89.4728 91.3202 89.119 90.3246 88.4914 89.7197C87.4004 88.6737 85.6145 88.9216 84.2077 89.4887C82.8008 90.0558 81.4109 90.8749 79.9029 90.7489C78.2939 90.6229 76.8955 89.4383 75.2697 89.4004C72.4055 89.3332 70.0004 92.8535 67.292 91.9209C65.6409 91.3538 64.3436 89.2114 62.7177 89.8205C61.4541 90.2994 61.3404 92.0427 60.578 93.1811C59.6808 94.5086 57.9328 94.8824 56.4375 95.4705C51.7242 97.3273 48.6031 102.566 49.218 107.581C49.5592 110.35 50.9029 112.887 51.7916 115.529C54.4284 123.212 53.5228 131.879 56.8461 139.289C57.2673 138.894 57.5032 138.747 57.9117 138.356C56.8609 140.53 56.6583 143.015 57.3431 145.329C57.6927 146.493 58.2613 147.577 58.691 148.715C59.1373 149.992 59.4975 151.297 59.7693 152.622L63.4338 168.744C64.8659 175.045 66.3022 181.347 66.5507 187.799C66.7054 191.995 66.3832 196.194 65.5903 200.317C72.2285 199.221 78.3024 196.285 85.029 196.322C87.4973 196.322 89.9445 196.742 92.3917 197.078C99.5266 198.074 106.724 198.561 113.928 198.536C115.049 198.6 116.171 198.443 117.23 198.074C118.157 197.679 118.915 196.978 119.791 196.469C121.506 195.461 123.582 195.209 125.558 195.209C134.567 195.045 143.248 198.334 152.199 199.494C155.733 192.096 155.943 183.233 153.231 175.499C152.426 173.201 151.344 170.962 151.024 168.547C150.895 167.062 150.861 165.571 150.923 164.082C150.909 160.269 150.22 156.489 148.888 152.916C148.366 151.517 147.738 150.093 147.793 148.602C147.848 147.11 148.585 145.72 149.309 144.401C150.779 141.712 152.258 138.999 154.334 136.73C156.461 134.386 159.123 132.601 161.756 130.849L168.255 126.497C167.367 120.898 166.221 115 163.841 109.85C161.461 104.7 157.902 99.9654 153.088 96.9534C151.464 95.9796 149.766 95.1367 148.008 94.433C145.548 93.3996 142.987 92.488 140.321 92.3326C137.288 92.1603 134.302 92.9711 131.307 93.4752C121.88 95.0589 110.786 94.8656 103.305 88.93Z" fill="#F9A826"/>
<path d="M174.371 186.102L171.279 189.996L165.45 197.335L158.711 205.816L156.828 208.185H153.176L62.747 208.29L6.11571 208.353H3.58847C3.25151 207.303 2.93981 206.253 2.65339 205.161C2.23219 203.598 1.86293 202.016 1.54562 200.414C1.47823 200.107 1.41926 199.801 1.3645 199.49L21.911 186.094L29.6359 186.052L53.2656 185.917L66.462 185.841H68.8713H70.3834L79.1782 185.795L146.209 185.413L149.638 185.392H151.125L155.063 185.371L169.717 185.287L172.53 184.22L172.737 184.438L174.371 186.102Z" fill="#3F3D56"/>
<path d="M173.108 184.001L172.758 184.422L170.459 187.123L165.724 192.697L155.796 204.371L67.8484 202.132L1.52935 200.452C1.46196 200.145 1.40299 199.838 1.34823 199.527C0.341501 194.136 -0.103135 188.656 0.0214312 183.174L7.3757 179.418L9.06053 178.553L22.1727 171.832L33.6801 165.951L63.6953 169.841L70.3419 170.702L73.3493 171.088L77.7509 171.66L78.1216 171.71L147.145 180.637L154.773 181.624L159.25 182.204L173.049 183.993L173.108 184.001Z" fill="#504F60"/>
<path d="M158.787 204.165L158.715 205.816L158.294 215.138L156.028 266.387L155.548 277.464L154.284 305.962L153.572 322.059L151.003 321.257C149.672 320.834 148.342 320.403 147.014 319.963L153.176 208.223L153.307 205.879L156.02 205.039L158.787 204.165Z" fill="#3F3D56"/>
<path d="M6.3094 204.043L6.11986 208.358L5.84186 214.659C5.03876 212.668 4.30305 210.639 3.63474 208.572L3.57155 208.366C3.23459 207.316 2.9229 206.266 2.63647 205.173L6.3094 204.043Z" fill="#3F3D56"/>
<path d="M116.455 140.528C127.156 140.528 135.831 128.867 135.831 114.483C135.831 100.099 127.156 88.4384 116.455 88.4384C105.755 88.4384 97.0798 100.099 97.0798 114.483C97.0798 128.867 105.755 140.528 116.455 140.528Z" fill="#A1616A"/>
<path opacity="0.1" d="M116.455 140.528C127.156 140.528 135.831 128.867 135.831 114.483C135.831 100.099 127.156 88.4384 116.455 88.4384C105.755 88.4384 97.0798 100.099 97.0798 114.483C97.0798 128.867 105.755 140.528 116.455 140.528Z" fill="black"/>
<path d="M119.193 125.615C134.081 125.615 146.15 113.578 146.15 98.7304C146.15 83.8823 134.081 71.8455 119.193 71.8455C104.305 71.8455 92.2358 83.8823 92.2358 98.7304C92.2358 113.578 104.305 125.615 119.193 125.615Z" fill="#A1616A"/>
<path d="M119.728 57.2942C118.082 57.425 116.448 57.6735 114.838 58.0377C110.575 59.0711 106.89 61.3647 103.301 63.6163C101.692 64.6287 100.037 65.6831 99.0384 67.1701C97.244 69.8376 97.939 73.2318 96.9323 76.1934C96.41 77.714 95.4497 79.0793 94.6368 80.495C92.4002 84.3765 91.2292 88.6402 90.0793 92.862C89.8434 93.7357 89.776 94.9204 90.7322 95.2564C91.2827 95.3705 91.8555 95.3057 92.3665 95.0716C95.3865 94.076 99.2237 93.7904 101.465 95.8109C103.705 97.8315 103.516 101.415 106.182 102.952C109.236 104.729 114.004 102.583 116.775 104.679C117.963 105.578 118.393 107.019 119.366 108.102C121.632 110.623 125.991 110.501 129.618 109.993C131.699 109.699 134.251 109.501 135.515 110.959C136.121 111.648 136.294 112.593 136.998 113.215C138.261 114.34 140.574 113.769 141.808 112.614C143.042 111.459 143.632 109.896 144.659 108.598C146.66 106.078 150.177 104.704 152.241 102.213C153.968 100.112 154.49 97.4828 154.962 94.9456L156.718 85.5401C157.43 81.7258 158.079 77.5586 155.927 74.198C155.16 72.9882 154.061 71.9464 153.399 70.6946C152.957 69.8544 152.709 68.9681 152.195 68.1741C151.585 67.347 150.857 66.6139 150.034 65.9981L145.877 62.5661C144.455 61.3253 142.935 60.2014 141.332 59.2055C135.397 55.7567 126.509 56.6641 119.728 57.2942Z" fill="#464353"/>
<path d="M30.9376 126.548C29.9393 127.606 29.0168 128.749 27.947 129.74C27.0058 130.575 26.0217 131.36 24.9985 132.093C23.3474 133.325 21.7328 134.601 20.1547 135.92C18.5082 137.218 17.0184 138.702 15.7151 140.343C13.4659 143.355 12.4002 147.102 10.2942 150.215C8.43247 152.975 5.80835 155.155 3.91713 157.894C3.08745 159.045 2.47119 160.336 2.09752 161.704C1.8186 163.028 1.69282 164.38 1.72264 165.732C1.68473 167.95 1.65104 170.194 2.10594 172.365C2.56085 174.537 3.5591 176.671 5.2692 178.095C6.85715 179.418 8.90843 180.028 10.9176 180.532C11.9538 180.788 13.0742 181.027 14.0598 180.62C14.781 180.257 15.407 179.73 15.8878 179.082L21.0139 173.201C24.4425 169.253 28.006 165.22 32.7108 162.91C34.1851 162.191 35.7393 161.649 37.2177 160.952C43.4853 157.94 47.9164 151.773 49.6349 145.052C50.0561 143.41 50.3257 141.733 50.5995 140.057L51.3408 135.462C51.3977 135.231 51.3977 134.991 51.3408 134.76C51.2247 134.501 51.0379 134.28 50.8017 134.122C47.2311 131.246 43.8881 128.1 40.8022 124.712C40.0693 123.905 39.3827 122.801 38.5361 122.124C37.4747 121.284 37.5547 121.347 36.2785 122.124C34.3152 123.364 32.5201 124.851 30.9376 126.548Z" fill="#A1616A"/>
<path d="M66.0036 157.129C65.961 157.032 65.899 156.944 65.8214 156.871C65.7439 156.798 65.6523 156.741 65.5522 156.704C65.4521 156.667 65.3456 156.651 65.239 156.656C65.1324 156.661 65.0279 156.688 64.9319 156.734C64.8359 156.781 64.7503 156.846 64.6803 156.926C64.6102 157.007 64.5572 157.1 64.5243 157.201C64.4914 157.303 64.4794 157.41 64.4889 157.516C64.4985 157.622 64.5294 157.724 64.5799 157.818L64.1587 158.024L76.7191 183.699L78.9894 182.594L66.429 156.902L66.0036 157.129Z" fill="#3F3D56"/>
<path opacity="0.04" d="M30.9376 126.548C29.9393 127.606 29.0168 128.749 27.947 129.74C27.0058 130.575 26.0217 131.36 24.9985 132.093C23.3474 133.325 21.7328 134.601 20.1547 135.92C18.5082 137.218 17.0184 138.702 15.7151 140.343C13.4659 143.355 12.4002 147.102 10.2942 150.215C8.43247 152.975 5.80835 155.155 3.91713 157.894C3.08745 159.045 2.47119 160.336 2.09752 161.704C1.8186 163.028 1.69282 164.38 1.72264 165.732C1.68473 167.95 1.65104 170.194 2.10594 172.365C2.56085 174.537 3.5591 176.671 5.2692 178.095C6.85715 179.418 8.90843 180.028 10.9176 180.532C11.9538 180.788 13.0742 181.027 14.0598 180.62C14.781 180.257 15.407 179.73 15.8878 179.082L21.0139 173.201C24.4425 169.253 28.006 165.22 32.7108 162.91C34.1851 162.191 35.7393 161.649 37.2177 160.952C43.4853 157.94 47.9164 151.773 49.6349 145.052C50.0561 143.41 50.3257 141.733 50.5995 140.057L51.3408 135.462C51.3977 135.231 51.3977 134.991 51.3408 134.76C51.2247 134.501 51.0379 134.28 50.8017 134.122C47.2311 131.246 43.8881 128.1 40.8022 124.712C40.0693 123.905 39.3827 122.801 38.5361 122.124C37.4747 121.284 37.5547 121.347 36.2785 122.124C34.3152 123.364 32.5201 124.851 30.9376 126.548Z" fill="black"/>
<path d="M176.144 173.865C176.102 176.545 175.997 179.305 174.881 181.75C174.4 182.809 173.655 183.85 172.539 184.199C171.863 184.355 171.164 184.38 170.479 184.275C162.215 183.55 153.888 184.209 145.843 186.224C147.991 181.939 146.757 176.801 147.351 172.046C147.515 170.748 147.814 169.471 147.928 168.169C148.349 163.548 146.365 159.062 145.455 154.5C144.665 150.551 144.665 146.485 145.455 142.536C145.61 141.519 145.96 140.542 146.487 139.658C147.104 138.798 147.915 138.095 148.854 137.604C152.266 135.668 156.289 135.445 160.122 135.701C162.704 135.873 167.88 135.63 170.033 137.214C172.387 138.948 173.133 144.775 173.769 147.468C174.721 151.597 175.369 155.791 175.706 160.015C176.119 164.619 176.207 169.244 176.144 173.865Z" fill="#A1616A"/>
<path d="M25.2639 183.165L40.4274 193.247L108.663 190.727L63.5937 183.165H25.2639Z" fill="white"/>
<path d="M45.2587 103.061C42.7693 105.25 40.6591 107.829 38.3003 110.161C35.0654 113.362 31.3883 116.084 27.728 118.793C29.0404 119.159 30.235 119.859 31.1949 120.823C32.1548 121.788 32.847 122.985 33.2037 124.296C33.3638 124.914 33.4438 125.556 33.6249 126.161C34.0461 127.594 34.9728 128.829 35.9668 129.942C40.2379 134.743 46.2148 138.297 48.7336 144.225C48.8158 144.513 48.9941 144.765 49.2391 144.939C49.444 145.029 49.6716 145.056 49.8919 145.014C52.1707 144.775 53.9144 142.943 55.3676 141.162C58.4003 137.382 61.0328 133.206 62.5281 128.594C64.0234 123.981 64.2635 118.881 62.6334 114.311C61.8205 112.034 60.5653 109.942 59.3185 107.871C58.2262 106.059 57.1367 104.25 56.05 102.444C55.4813 101.49 54.7569 99.5537 53.6407 99.0832C51.2314 98.0498 46.8045 101.52 45.2587 103.061Z" fill="#F9A826"/>
<path d="M169.321 130.211L172.905 138.612C169.003 137.253 164.833 136.839 160.739 137.405C156.644 137.971 152.744 139.501 149.36 141.868C147.317 143.326 145.443 145.157 144.52 147.484C144.065 147.571 143.595 147.527 143.163 147.358C142.732 147.19 142.357 146.903 142.082 146.531C141.542 145.777 141.23 144.885 141.18 143.96C140.847 140.734 142.073 137.571 143.286 134.554C143.851 133.143 144.432 131.702 145.434 130.555C146.437 129.409 147.768 128.652 149.099 127.938C153.345 125.596 157.792 123.636 162.388 122.082C164.325 121.456 166.356 121.469 167.442 123.275C168.702 125.43 168.335 127.917 169.321 130.211Z" fill="#F9A826"/>
<path d="M25.3526 155.42C26.2498 156.134 27.0374 156.978 27.9599 157.659C28.9354 158.334 29.9735 158.915 31.0599 159.394L35.213 161.385C36.5 162.052 37.8467 162.598 39.2356 163.015C41.0131 163.489 42.879 163.536 44.6649 163.977C46.9184 164.531 48.9781 165.686 51.1978 166.354C53.4176 167.022 56.0165 167.131 57.8698 165.741C59.0281 164.871 59.9042 163.435 61.3405 163.22C62.2672 163.099 63.1601 163.544 63.9857 163.977L74.7939 169.643C76.2512 170.408 77.7928 171.257 78.5552 172.714C79.3176 174.172 78.8037 176.386 77.1989 176.764C76.6396 176.828 76.0771 176.86 75.5141 176.86C74.9581 176.928 74.3516 177.255 74.2758 177.814C74.273 178.161 74.3647 178.502 74.5411 178.801C75.0255 179.91 75.1687 181.238 74.6043 182.313C74.0399 183.388 72.6541 184.056 71.5464 183.573C71.7359 185.199 69.9626 186.337 68.3831 186.77C64.3985 187.858 60.1738 187.19 56.1007 186.501C54.5001 186.232 52.8742 185.955 51.4169 185.241C50.7177 184.901 50.069 184.464 49.3614 184.149C47.4196 183.287 45.2125 183.401 43.0896 183.439C33.2713 183.611 23.5372 181.796 13.8831 179.99C12.093 179.654 10.2523 179.297 8.72335 178.31C5.7749 176.394 4.67976 172.462 5.16415 168.984C5.64854 165.506 7.41761 162.355 9.15719 159.297L11.4107 155.336C11.7052 154.729 12.1175 154.186 12.6237 153.739C15.9386 151.215 22.5137 153.143 25.3526 155.42Z" fill="#A1616A"/>
<path opacity="0.04" d="M25.3526 155.42C26.2498 156.134 27.0374 156.978 27.9599 157.659C28.9354 158.334 29.9735 158.915 31.0599 159.394L35.213 161.385C36.5 162.052 37.8467 162.598 39.2356 163.015C41.0131 163.489 42.879 163.536 44.6649 163.977C46.9184 164.531 48.9781 165.686 51.1978 166.354C53.4176 167.022 56.0165 167.131 57.8698 165.741C59.0281 164.871 59.9042 163.435 61.3405 163.22C62.2672 163.099 63.1601 163.544 63.9857 163.977L74.7939 169.643C76.2512 170.408 77.7928 171.257 78.5552 172.714C79.3176 174.172 78.8037 176.386 77.1989 176.764C76.6396 176.828 76.0771 176.86 75.5141 176.86C74.9581 176.928 74.3516 177.255 74.2758 177.814C74.273 178.161 74.3647 178.502 74.5411 178.801C75.0255 179.91 75.1687 181.238 74.6043 182.313C74.0399 183.388 72.6541 184.056 71.5464 183.573C71.7359 185.199 69.9626 186.337 68.3831 186.77C64.3985 187.858 60.1738 187.19 56.1007 186.501C54.5001 186.232 52.8742 185.955 51.4169 185.241C50.7177 184.901 50.069 184.464 49.3614 184.149C47.4196 183.287 45.2125 183.401 43.0896 183.439C33.2713 183.611 23.5372 181.796 13.8831 179.99C12.093 179.654 10.2523 179.297 8.72335 178.31C5.7749 176.394 4.67976 172.462 5.16415 168.984C5.64854 165.506 7.41761 162.355 9.15719 159.297L11.4107 155.336C11.7052 154.729 12.1175 154.186 12.6237 153.739C15.9386 151.215 22.5137 153.143 25.3526 155.42Z" fill="black"/>
<path d="M153.93 162.678C151.736 163.712 149.217 163.813 146.925 164.607C144.634 165.401 142.688 166.829 140.586 167.992C135.11 171.042 128.792 172.193 122.588 173.29C118.827 173.962 115.006 174.634 111.215 174.474C106.085 174.256 101.157 172.55 96.1868 171.265C91.2165 169.979 85.9135 169.114 80.9896 170.559C78.4184 171.34 76.0678 172.714 74.1285 174.57C72.1892 176.426 70.7158 178.712 69.8276 181.242C68.7957 184.262 68.6525 187.518 68.8504 190.702C69.8866 191.462 71.3356 190.408 71.9 189.252C72.4644 188.097 72.7719 186.682 73.867 186.009C75.7667 186.652 76.23 189.177 77.7969 190.424C78.7741 191.206 80.0798 191.412 81.3224 191.588L87.7247 192.495C89.2663 192.714 91.0565 192.861 92.1727 191.777C92.716 191.252 93.0151 190.517 93.5121 189.954C94.5314 188.828 96.2331 188.635 97.7494 188.786C102.484 189.257 106.923 192.319 111.624 191.592C113.241 191.344 114.745 190.655 116.287 190.114C125.423 186.896 135.574 188.853 145.08 187.009C148.707 186.308 152.199 185.064 155.649 183.754C157.523 183.044 159.418 182.3 161.019 181.099C162.535 179.936 163.731 178.408 164.494 176.659C165.257 174.91 165.563 172.996 165.383 171.097C165.03 168.202 163.582 165.552 161.335 163.687C160.593 163.057 159.62 161.851 158.732 161.456C157.034 160.712 155.371 162.002 153.93 162.678Z" fill="#A1616A"/>
<g opacity="0.1">
<path opacity="0.1" d="M141.622 109.014C140.919 108.392 140.746 107.447 140.14 106.758C138.876 105.3 136.323 105.498 134.243 105.792C130.616 106.3 126.24 106.418 123.991 103.902C123.018 102.818 122.588 101.381 121.4 100.478C118.629 98.3775 113.861 100.528 110.807 98.7514C108.141 97.2013 108.313 93.6055 106.089 91.6101C103.865 89.6147 100.011 89.8752 96.9912 90.8708C96.4802 91.1049 95.9075 91.1696 95.3569 91.0556C94.4008 90.7195 94.4682 89.5349 94.704 88.6612C95.8539 84.4394 97.0249 80.1756 99.2615 76.2941C100.074 74.8785 101.035 73.5132 101.557 71.9926C102.471 69.3293 102.004 66.3173 103.204 63.7969C101.915 64.637 100.677 65.5528 99.8807 66.7374C98.0863 69.4049 98.7813 72.7991 97.7746 75.7606C97.2523 77.2813 96.292 78.6466 95.479 80.0622C93.2424 83.9437 92.0715 88.2075 90.9216 92.4292C90.6857 93.303 90.6183 94.4876 91.5745 94.8237C92.125 94.9377 92.6978 94.8729 93.2087 94.6388C96.2288 93.6433 100.066 93.3576 102.307 95.3782C104.548 97.3987 104.358 100.982 107.024 102.519C110.078 104.296 114.846 102.15 117.618 104.246C118.805 105.145 119.235 106.586 120.208 107.67C122.474 110.19 126.834 110.068 130.46 109.56C132.541 109.266 135.094 109.068 136.357 110.526C136.964 111.215 137.136 112.16 137.84 112.782C139.103 113.908 141.416 113.336 142.65 112.181C143.441 111.359 144.118 110.435 144.663 109.434C143.568 109.766 142.401 109.715 141.622 109.014Z" fill="black"/>
<path opacity="0.1" d="M149.297 104.393C149.025 104.742 148.774 105.105 148.543 105.481C150.16 104.33 151.874 103.255 153.083 101.789C153.397 101.409 153.679 101.004 153.926 100.579C152.245 101.78 150.493 102.885 149.297 104.393Z" fill="black"/>
</g>
<path d="M234.393 187.576L235.657 308.138L241.554 307.298L240.29 187.576H234.393Z" fill="#3F3D56"/>
<path d="M269.774 209.42L271.038 329.982L276.935 329.142L275.671 209.42H269.774Z" fill="#3F3D56"/>
<path d="M379.932 270.323L379.907 268.008V266.63L379.684 245.425L379.334 212.273L379.275 209.412H373.378L373.408 212.168L373.593 229.924L373.673 237.612L373.741 243.837L373.85 254.6L373.918 260.947V261.619L374.006 269.962L374.082 277.317L374.562 276.788C375.334 275.928 376.09 275.054 376.828 274.167L379.932 270.323Z" fill="#3F3D56"/>
<path d="M263.246 228.954L259.876 233.978L263.246 256.868L291.888 264.686H338.22L366.02 266.362L379.263 257.322L376.972 241.796L366.863 228.954H263.246Z" fill="#F9A826"/>
<path d="M259.877 233.978L258.192 247.933C258.192 247.933 249.346 275.292 320.53 273.616C391.714 271.94 379.499 266.357 379.499 266.357L379.078 250.168C379.078 250.168 381.559 257.83 345.382 256.792C309.204 255.755 275.461 252.402 275.461 252.402C275.461 252.402 262.825 254.633 259.877 233.978Z" fill="#3F3D56"/>
<path d="M319.182 108.896C315.122 110.74 312.047 114.315 309.987 118.268C307.927 122.221 306.769 126.56 305.628 130.87C304.423 135.416 303.214 139.973 302.591 144.632C301.479 152.916 302.313 161.624 306.129 169.064C309.945 176.503 316.996 182.506 325.252 183.939C328.44 184.497 331.717 184.384 334.939 184.052C340.764 183.437 346.501 182.176 352.045 180.292C357.836 178.339 363.864 175.331 366.442 169.79C367.937 166.577 368.063 162.914 367.992 159.377C367.793 149.736 366.333 140.163 363.649 130.9C362.87 128.211 361.964 125.502 360.313 123.238C358.662 120.973 356.404 119.314 354.1 117.777C344.248 111.16 331.3 103.402 319.182 108.896Z" fill="#FBBEBE"/>
<path opacity="0.05" d="M319.182 108.896C315.122 110.74 312.047 114.315 309.987 118.268C307.927 122.221 306.769 126.56 305.628 130.87C304.423 135.416 303.214 139.973 302.591 144.632C301.479 152.916 302.313 161.624 306.129 169.064C309.945 176.503 316.996 182.506 325.252 183.939C328.44 184.497 331.717 184.384 334.939 184.052C340.764 183.437 346.501 182.176 352.045 180.292C357.836 178.339 363.864 175.331 366.442 169.79C367.937 166.577 368.063 162.914 367.992 159.377C367.793 149.736 366.333 140.163 363.649 130.9C362.87 128.211 361.964 125.502 360.313 123.238C358.662 120.973 356.404 119.314 354.1 117.777C344.248 111.16 331.3 103.402 319.182 108.896Z" fill="black"/>
<path d="M314.621 161.771C315.796 163.382 317.217 164.8 318.833 165.972C322.843 168.736 327.99 169.11 332.859 169.261C336.768 169.379 341.249 169.156 343.701 166.115C344.804 164.745 345.301 162.998 345.748 161.296C348.503 150.849 350.46 140.209 351.603 129.467L362.756 129.505C367.583 150.118 367.187 171.546 366.766 192.714L366.155 223.581L358.97 222.821C341.906 221.019 324.818 219.216 307.662 218.906C297.61 218.721 287.556 219.052 277.538 219.897L293.185 173.495C295.216 167.463 297.267 161.351 297.743 155.012C298.429 145.817 295.843 136.109 299.428 127.602C299.714 126.917 300.076 126.207 300.729 125.85C301.382 125.493 302.208 125.582 302.957 125.678C304.373 125.867 308.698 125.678 309.726 126.581C311.243 127.892 310.24 128.089 309.705 130.202C308.749 133.983 307.843 137.482 307.856 141.423C307.869 148.576 310.093 156.129 314.621 161.771Z" fill="#F9A826"/>
<path d="M379.933 270.323C381.812 267.836 383.582 265.261 385.245 262.598C384.402 260.8 383.475 259.044 382.738 257.208C381.61 254.394 380.961 251.411 380.321 248.45C380.102 247.441 379.884 246.433 379.668 245.425C377.309 234.457 375.093 223.333 374.634 212.214C374.592 211.29 374.566 210.366 374.554 209.441C374.554 209.307 374.554 209.177 374.554 209.021C374.554 208.009 374.554 206.996 374.554 205.988C374.605 203.468 374.765 200.926 375.056 198.398C375.11 197.902 375.173 197.406 375.241 196.91C375.241 196.801 375.266 196.696 375.283 196.587L403.925 195.545L406.334 195.457C407.99 195.398 409.742 195.306 411.107 194.369C413.402 192.798 413.672 189.576 413.634 186.808C413.494 179.811 412.699 172.842 411.258 165.993C410.172 160.843 408.622 155.579 405.142 151.622C402.287 148.371 398.15 146.006 396.663 141.96C396.112 140.457 395.973 138.806 395.257 137.369C394.541 135.932 393.357 134.878 392.241 133.769C388.312 129.887 385.053 125.385 382.595 120.444C380.889 117.016 379.04 113.236 376.812 110.866C376.702 110.745 376.593 110.631 376.479 110.522C374.584 108.653 372.415 107.833 369.845 109.106C369.383 109.338 368.943 109.61 368.531 109.921C367.615 110.619 366.778 111.413 366.033 112.29C363.438 115.267 361.161 118.505 359.239 121.952C357.888 124.379 356.728 126.907 355.768 129.514C355.011 131.573 354.385 133.677 353.894 135.815C353.532 137.398 353.245 138.999 353.018 140.604C352.176 146.636 352.176 152.786 352.294 158.894C352.42 164.506 352.668 170.131 353.178 175.722C353.304 177.075 353.445 178.426 353.599 179.776C353.908 182.444 354.29 185.105 354.745 187.757C354.926 188.769 355.111 189.782 355.318 190.79C355.368 191.059 355.423 191.328 355.478 191.592L355.503 191.706C356.06 194.049 356.491 196.42 356.796 198.809C356.83 199.109 356.855 199.407 356.872 199.704C356.943 201.077 356.932 202.453 356.838 203.825C356.741 205.446 356.59 207.064 356.514 208.685C356.514 208.971 356.514 209.252 356.485 209.525C356.463 210.345 356.485 211.164 356.485 211.983C356.57 213.943 356.804 215.893 357.184 217.818C357.894 221.398 359.121 224.856 360.827 228.084C360.987 228.387 361.151 228.685 361.316 228.979C363.451 232.785 366.147 236.276 368.122 240.17C369.826 243.674 371.099 247.371 371.913 251.18C372.194 252.437 372.461 253.698 372.714 254.961C373.105 256.977 373.455 259.01 373.813 261.043C373.847 261.245 373.885 261.463 373.922 261.648C374.398 264.345 374.9 267.029 375.544 269.663C375.919 271.197 376.34 272.709 376.833 274.196L379.933 270.323Z" fill="#464353"/>
<path d="M374.305 237.212C374.305 237.59 374.28 237.969 374.263 238.351C374.188 240.194 374.018 242.032 373.754 243.858C373.405 246.35 372.793 248.799 371.93 251.163C371.357 252.718 370.629 254.211 369.756 255.62C368.982 256.871 368.076 258.036 367.052 259.094C364.525 261.715 360.886 262.551 357.365 263.656C355.744 264.124 354.179 264.762 352.693 265.559C352.428 265.706 352.167 265.866 351.914 266.034L347.508 268.945C346.135 269.848 344.733 270.785 343.789 272.125C343.634 272.353 343.494 272.59 343.368 272.835C342.772 274.068 342.336 275.373 342.07 276.716C339.779 286.235 337.484 295.763 335.912 305.424C335.807 306.063 335.706 306.706 335.597 307.348L335.559 307.55C335.54 307.502 335.517 307.456 335.491 307.411C324.22 314.208 312.531 320.341 300.489 325.252L297.873 303.408C297.601 301.632 297.51 299.833 297.604 298.039C297.852 295.212 299.006 292.532 299.318 289.713C299.613 286.954 299.09 284.169 297.814 281.703C297.317 280.745 296.694 279.804 296.58 278.733C296.466 277.662 297.086 276.683 298.164 276.574C299.006 275.641 299.074 274.368 298.825 273.108C298.693 272.45 298.496 271.807 298.235 271.188C297.519 269.432 296.614 267.521 297.229 265.727C297.391 265.402 297.464 265.039 297.439 264.677C297.444 264.655 297.444 264.632 297.439 264.61C297.296 264.139 296.736 263.933 296.445 263.534C295.898 262.791 296.445 261.778 296.782 260.921C297.11 260.001 297.3 259.037 297.347 258.061C297.393 257.519 297.427 256.973 297.486 256.435C297.568 255.707 297.699 254.986 297.877 254.276C298.901 250.252 301.361 246.739 304.798 244.396C306.436 243.295 308.26 242.493 309.932 241.455C311.645 240.304 313.28 239.041 314.827 237.675C318.536 234.594 322.393 231.69 326.397 228.962C330.703 226.029 335.163 223.329 339.758 220.871C340.741 220.342 341.724 219.827 342.707 219.326C343.776 218.765 344.853 218.235 345.937 217.734C349.408 216.083 353.346 216.7 357.183 217.801C358.792 218.259 360.38 218.805 361.914 219.3C363.411 219.786 364.851 220.431 366.21 221.224C369.609 223.215 372.418 226.156 373.585 229.87C373.587 229.893 373.587 229.917 373.585 229.941C374.327 232.268 374.373 234.763 374.305 237.212Z" fill="#F86D70"/>
<path opacity="0.1" d="M374.305 237.212C374.305 237.59 374.28 237.969 374.263 238.351C374.188 240.194 374.018 242.032 373.754 243.858C373.405 246.35 372.793 248.799 371.93 251.163C371.357 252.718 370.629 254.211 369.756 255.62C368.982 256.871 368.076 258.036 367.052 259.094C364.525 261.715 360.886 262.551 357.365 263.656C355.744 264.124 354.179 264.762 352.693 265.559C352.428 265.706 352.167 265.866 351.914 266.034L347.508 268.945C346.135 269.848 344.733 270.785 343.789 272.125C343.634 272.353 343.494 272.59 343.368 272.835C342.772 274.068 342.336 275.373 342.07 276.716C339.779 286.235 337.484 295.763 335.912 305.424C335.807 306.063 335.706 306.706 335.597 307.348L335.559 307.55C335.54 307.502 335.517 307.456 335.491 307.411C324.22 314.208 312.531 320.341 300.489 325.252L297.873 303.408C297.601 301.632 297.51 299.833 297.604 298.039C297.852 295.212 299.006 292.532 299.318 289.713C299.613 286.954 299.09 284.169 297.814 281.703C297.317 280.745 296.694 279.804 296.58 278.733C296.466 277.662 297.086 276.683 298.164 276.574C299.006 275.641 299.074 274.368 298.825 273.108C298.693 272.45 298.496 271.807 298.235 271.188C297.519 269.432 296.614 267.521 297.229 265.727C297.391 265.402 297.464 265.039 297.439 264.677C297.444 264.655 297.444 264.632 297.439 264.61C297.296 264.139 296.736 263.933 296.445 263.534C295.898 262.791 296.445 261.778 296.782 260.921C297.11 260.001 297.3 259.037 297.347 258.061C297.393 257.519 297.427 256.973 297.486 256.435C297.568 255.707 297.699 254.986 297.877 254.276C298.901 250.252 301.361 246.739 304.798 244.396C306.436 243.295 308.26 242.493 309.932 241.455C311.645 240.304 313.28 239.041 314.827 237.675C318.536 234.594 322.393 231.69 326.397 228.962C330.703 226.029 335.163 223.329 339.758 220.871C340.741 220.342 341.724 219.827 342.707 219.326C343.776 218.765 344.853 218.235 345.937 217.734C349.408 216.083 353.346 216.7 357.183 217.801C358.792 218.259 360.38 218.805 361.914 219.3C363.411 219.786 364.851 220.431 366.21 221.224C369.609 223.215 372.418 226.156 373.585 229.87C373.587 229.893 373.587 229.917 373.585 229.941C374.327 232.268 374.373 234.763 374.305 237.212Z" fill="black"/>
<path d="M334.312 167.631C334.269 167.534 334.207 167.446 334.13 167.373C334.052 167.299 333.96 167.243 333.86 167.206C333.76 167.169 333.654 167.153 333.547 167.158C333.44 167.163 333.336 167.19 333.24 167.236C333.144 167.283 333.058 167.348 332.988 167.428C332.918 167.508 332.865 167.602 332.832 167.703C332.799 167.805 332.787 167.911 332.797 168.017C332.807 168.123 332.838 168.226 332.888 168.32L332.467 168.526L345.027 194.201L347.298 193.096L334.737 167.404L334.312 167.631Z" fill="#3F3D56"/>
<path d="M350.015 140.738C364.903 140.738 376.972 128.701 376.972 113.853C376.972 99.005 364.903 86.9683 350.015 86.9683C335.127 86.9683 323.057 99.005 323.057 113.853C323.057 128.701 335.127 140.738 350.015 140.738Z" fill="#FBBEBE"/>
<path d="M385.594 97.2097C385.467 95.0725 385.149 92.951 384.642 90.8708C383.058 84.0782 380.164 77.3906 375.181 72.5135C374.874 71.3211 374.507 70.1448 374.082 68.989C374.074 68.9604 374.064 68.9324 374.052 68.905C372.566 64.8336 370.417 61.0343 367.692 57.6596C366.113 55.7021 364.066 53.7697 361.547 53.6941C360.839 53.6689 360.089 53.7907 359.441 53.4673C358.964 53.1597 358.562 52.7491 358.266 52.2658C357.018 50.6938 355.364 49.4916 353.481 48.789C351.599 48.0864 349.56 47.9102 347.584 48.2793L347.323 48.3339C347.175 48.3633 347.028 48.3969 346.901 48.4347C346.775 48.4726 346.548 48.5356 346.371 48.5902C346.565 48.9094 346.754 49.2329 346.939 49.5606C347.439 50.4483 347.903 51.3557 348.329 52.2826C348.683 53.0556 349.01 53.8411 349.311 54.6393C344.998 55.1308 341.485 58.1847 338.275 61.0916L330.719 67.9305C330.705 67.942 330.692 67.9546 330.681 67.9683L330.462 68.1783C330.407 68.2329 330.352 68.2875 330.302 68.3463C330.281 68.3638 330.263 68.3836 330.247 68.4051C330.184 68.4724 330.125 68.5438 330.066 68.6152C329.961 68.7475 329.866 68.888 329.784 69.0353C329.742 69.0983 329.706 69.1643 329.674 69.2327C329.663 69.2528 329.653 69.2739 329.645 69.2957C329.617 69.353 329.593 69.4119 329.573 69.4721C329.571 69.4804 329.571 69.489 329.573 69.4973C329.561 69.5318 329.551 69.5668 329.544 69.6024C329.458 69.898 329.483 70.2147 329.615 70.4929L334.598 70.5475H335.184C335.209 71.2112 335.23 71.8792 335.255 72.5429C334.464 73.1331 333.705 73.7641 332.981 74.4332C332.19 75.1627 331.449 75.9429 330.761 76.7688C326.267 82.1836 323.92 89.1779 323.685 96.2183C323.685 96.4368 323.685 96.6384 323.685 96.8652C323.685 97.508 323.685 98.1507 323.685 98.7892C323.685 99.2093 323.722 99.6294 323.756 100.049C323.758 100.597 323.903 101.134 324.177 101.608C324.213 101.661 324.253 101.711 324.295 101.759C324.548 102.033 324.851 102.255 325.188 102.414L325.551 102.591C325.732 102.679 325.904 102.763 326.073 102.86C327.661 103.754 328.6 105.481 330.045 106.59C330.129 106.653 330.213 106.716 330.297 106.771L330.487 106.897L330.605 106.972L330.765 107.065C330.87 107.128 330.978 107.185 331.089 107.237L331.292 107.338H331.325C331.494 107.413 331.662 107.485 331.835 107.548L332.075 107.632L332.147 107.657C332.214 107.678 332.286 107.703 332.357 107.72C332.5 107.762 332.641 107.8 332.778 107.833L333.2 107.926C333.364 107.955 333.532 107.985 333.701 108.006L333.949 108.039L334.202 108.064C334.604 108.101 335.008 108.122 335.415 108.127C336.693 108.12 337.969 108.031 339.236 107.863L349.985 106.603C352.424 106.321 354.913 106.04 357.318 106.535C359.357 106.955 361.235 107.922 363.215 108.606C363.661 108.762 364.108 108.905 364.558 109.026C364.723 109.073 364.891 109.123 365.06 109.165L365.291 109.224L365.831 109.354C366.024 109.4 366.218 109.447 366.412 109.484C366.686 109.543 366.955 109.594 367.229 109.644C367.414 109.682 367.604 109.711 367.793 109.745H367.831L368.37 109.829H368.501L368.901 109.883C369.095 109.913 369.289 109.938 369.487 109.959C369.916 110.012 370.346 110.058 370.775 110.098C371.47 110.165 372.17 110.215 372.882 110.257L373.581 110.299L374.28 110.333L376.386 110.425H376.479H376.773C377.649 110.486 378.529 110.441 379.393 110.291C379.545 110.261 379.692 110.228 379.84 110.186C379.987 110.144 380.109 110.102 380.261 110.051C381.841 109.447 382.995 108.056 383.795 106.569C383.963 106.254 384.119 105.939 384.263 105.615C384.406 105.292 384.536 104.964 384.654 104.637C384.802 104.217 384.928 103.818 385.038 103.397C385.071 103.284 385.101 103.171 385.126 103.053C385.151 102.935 385.21 102.704 385.244 102.528C385.349 102.045 385.429 101.557 385.488 101.066C385.488 100.911 385.526 100.751 385.543 100.596C385.581 100.175 385.61 99.7848 385.627 99.3731C385.627 99.0622 385.627 98.7472 385.627 98.4321C385.623 98.0919 385.594 97.6424 385.594 97.2097ZM374.794 72.1312C374.453 71.8119 374.103 71.5053 373.749 71.2154C374.143 71.4632 374.494 71.7724 374.79 72.1312H374.794Z" fill="#464353"/>
<path d="M298.278 112.374C295.106 111.984 291.959 110.597 288.83 111.278C286.871 111.698 285.186 112.912 283.62 114.16C277.789 118.821 272.83 124.474 268.974 130.858C268.32 131.812 267.861 132.886 267.622 134.017C267.42 135.327 267.778 136.659 268.203 137.915C271.084 146.405 277.247 153.496 280.052 162.011C283 170.967 281.977 180.754 279.803 189.929C277.109 201.255 272.731 212.115 266.813 222.149C266.01 223.641 265.004 225.015 263.823 226.232C262.29 227.702 260.23 228.752 259.32 230.676C258.899 231.516 258.777 232.474 258.478 233.373C257.635 235.893 255.597 238.053 255.399 240.712C255.251 242.741 256.216 244.66 256.801 246.593C257.789 249.913 257.684 253.46 256.502 256.717C254.367 262.556 248.782 267.865 250.403 273.868C254.021 272.831 258.031 271.482 259.737 268.134C260.339 266.95 260.639 265.538 261.654 264.673C263.68 262.955 267.129 264.509 269.282 262.929C270.908 261.728 270.967 259.266 270.242 257.376C269.518 255.486 268.271 253.822 267.715 251.877C266.746 248.37 268.296 244.66 268.01 241.035C267.875 239.355 267.357 237.746 267.319 236.074C267.247 232.827 269.05 229.773 271.447 227.568C273.843 225.362 276.804 223.9 279.719 222.459L290.738 216.998C294.735 215.024 299.116 212.617 300.426 208.366C300.923 206.774 300.927 205.077 300.952 203.413C301.327 177.994 307.713 153.088 314.06 128.467C315.046 124.653 316.048 120.822 317.514 117.159C318.98 113.496 321.848 110.555 323.31 107.153C314.831 106.161 307.085 113.475 298.278 112.374Z" fill="#464353"/>
<path d="M359.02 271.839C359.993 277.72 360.587 283.727 361.05 289.705C353.469 295.973 345.306 301.425 337.012 306.483C336.54 306.773 336.064 307.058 335.588 307.323L335.551 307.525C335.532 307.477 335.509 307.431 335.483 307.386C334.84 305.999 333.714 304.892 332.316 304.269C329.207 297.758 326.101 291.247 322.999 284.736C321.314 281.22 319.629 277.67 318.787 273.877C318.787 273.797 318.749 273.713 318.736 273.633C318.096 270.692 317.948 267.639 317.523 264.66C317.307 262.954 316.922 261.274 316.373 259.644C315.868 258.195 315.173 256.788 314.558 255.372C313.799 253.625 313.163 251.856 313.134 249.97C313.134 249.369 313.172 248.71 312.877 248.206C312.562 247.772 312.173 247.396 311.727 247.097C311.171 246.605 310.749 245.981 310.502 245.282C310.254 244.583 310.189 243.833 310.312 243.102C307.785 243.232 306.361 245.942 305.346 248.239C304.423 250.487 303.211 252.605 301.74 254.541C300.668 255.923 299.305 257.055 297.747 257.855C297.608 257.922 297.469 257.989 297.326 258.048C293.809 259.594 289.702 259.048 285.89 258.351C282.558 257.742 279.113 256.985 276.434 254.919L276.148 254.692C275.355 254.034 274.647 253.281 274.042 252.449C271.797 249.39 270.803 245.362 270.251 241.527C270.2 241.165 270.15 240.804 270.103 240.443C269.72 237.733 269.615 234.991 269.788 232.26C269.838 231.588 269.91 230.915 269.998 230.248C270.057 229.828 270.12 229.374 270.192 228.937C270.19 228.924 270.19 228.912 270.192 228.899C270.301 228.206 270.419 227.509 270.537 226.799C270.958 224.417 271.38 221.972 272.643 219.922C273.475 218.647 274.524 217.526 275.743 216.612C276.198 216.255 276.666 215.915 277.138 215.587C277.904 215.058 278.692 214.554 279.492 214.079C281.506 212.877 283.619 211.851 285.81 211.012C286.333 210.811 286.863 210.622 287.394 210.441C289.457 209.709 291.677 209.534 293.83 209.933C295.738 210.208 297.665 210.32 299.592 210.269C304.533 210.172 309.495 209.231 314.427 208.622C321.276 207.782 328.634 207.681 334.607 211.143C334.893 211.306 335.171 211.479 335.449 211.659C338.398 213.583 340.773 216.28 342.69 219.292C343.111 219.926 343.478 220.577 343.84 221.237C344.675 222.751 345.43 224.307 346.102 225.9C346.499 226.682 346.714 227.544 346.729 228.42C346.72 228.587 346.697 228.753 346.662 228.916C346.548 229.512 346.321 230.092 346.241 230.697C345.975 232.986 347.926 234.898 348.654 237.078C349.126 238.498 349.075 240.019 349.341 241.514C349.724 243.614 350.756 245.505 351.683 247.395C353.147 250.438 354.4 253.578 355.431 256.792C356.164 259.031 356.792 261.304 357.344 263.597C357.523 264.334 357.693 265.072 357.853 265.811C358.313 267.844 358.687 269.835 359.02 271.839Z" fill="#F86D70"/>
<path d="M403.929 209.63V212.571L403.385 212.562L402.779 212.554L396.006 212.47L379.318 212.252L374.634 212.193L373.421 212.176L366.391 212.088L356.484 211.958L335.466 211.685L298.994 211.214L285.831 211.046L280.549 210.979L275.688 210.916L272.66 210.874L269.791 210.836L248.525 210.563L242.628 210.487L241.343 210.47L240.509 208.324L234.448 192.735L233.34 189.887L234.183 186.526L237.973 189.047L240.307 189.336L278.725 194.1L285.936 194.995L301.226 196.894L316.204 198.75L322.076 199.477L356.821 203.787L366.53 204.993L374.567 205.988L403.141 209.534L403.929 209.63Z" fill="#3F3D56"/>
<path d="M234.183 186.526L241.764 206.27L403.929 209.63V188.206L234.183 186.526Z" fill="#504F60"/>
<path d="M242.607 208.37L243.871 328.932L249.767 328.092L248.504 208.37H242.607Z" fill="#3F3D56"/>
<path d="M403.386 212.558H402.779C401.797 220.075 400.173 227.494 397.923 234.734L396.006 212.47L395.926 211.521L403.011 210.706L403.247 210.681L403.386 212.558Z" fill="#3F3D56"/>
<path d="M380.341 198.288L318.635 199.549L299.47 193.247L350.857 190.307L380.341 198.288Z" fill="white"/>
<path d="M302.936 173.789C302.282 174.04 301.702 174.452 301.251 174.987C300.899 175.566 300.684 176.219 300.624 176.894L299.588 183.056C299.43 183.62 299.458 184.219 299.668 184.766C299.937 185.283 300.721 185.551 301.112 185.123C301.062 186.329 301.167 187.614 301.87 188.597C302.574 189.58 304.048 190.097 305.042 189.412C305.198 189.665 305.407 189.882 305.655 190.046C305.904 190.211 306.185 190.32 306.479 190.366C306.774 190.411 307.074 190.392 307.361 190.31C307.647 190.228 307.913 190.085 308.138 189.891C307.54 190.093 307.498 191.004 307.923 191.466C308.4 191.886 309.007 192.127 309.642 192.151C317.044 193.191 324.59 192.245 331.502 189.408C332.155 189.139 330.437 181.111 330.264 180.288C329.843 178.351 329.632 175.986 327.994 174.684C324.076 171.567 317.118 170.954 312.346 171.324C309.085 171.57 305.897 172.405 302.936 173.789Z" fill="#FBBEBE"/>
<path opacity="0.1" d="M365.721 174.722C350.486 175.012 334.935 175.26 320.395 170.71C321.784 176.078 321.688 181.721 320.117 187.039L391.352 192.92C394.372 193.168 406.894 194.579 409.838 193.869C412.783 193.159 385.135 184.077 386.251 181.267C389.321 173.525 399.607 168.988 392.198 168.698C382.848 168.329 375.144 174.546 365.721 174.722Z" fill="black"/>
<path d="M366.142 175.562C350.907 175.852 335.356 176.1 320.816 171.551C322.205 176.918 322.109 182.561 320.538 187.879L391.773 193.76C394.793 194.008 407.315 195.44 410.259 194.709C413.204 193.978 412.513 190.378 413.629 187.568C416.7 179.826 400.028 169.828 392.619 169.538C383.268 169.169 375.565 175.386 366.142 175.562Z" fill="#464353"/>
<path d="M341.919 176.73C342.573 176.98 343.153 177.392 343.604 177.927C343.956 178.507 344.172 179.159 344.236 179.834L345.272 185.997C345.428 186.561 345.4 187.16 345.192 187.706C344.922 188.223 344.135 188.492 343.747 188.064C343.793 189.269 343.692 190.555 342.989 191.538C342.285 192.521 340.811 193.037 339.813 192.353C339.657 192.606 339.448 192.822 339.2 192.987C338.952 193.152 338.671 193.261 338.376 193.306C338.082 193.352 337.781 193.333 337.494 193.251C337.208 193.169 336.943 193.026 336.717 192.831C337.315 193.033 337.362 193.945 336.936 194.407C336.458 194.826 335.85 195.068 335.213 195.091C327.813 196.132 320.268 195.185 313.357 192.348C312.704 192.079 314.418 184.052 314.595 183.229C315.017 181.292 315.227 178.927 316.866 177.625C320.779 174.508 327.741 173.894 332.513 174.264C335.773 174.511 338.96 175.346 341.919 176.73Z" fill="#FBBEBE"/>
<path d="M241.251 163.351C239.852 165.148 238.45 166.984 237.548 169.08C235.826 173.079 236.078 177.608 236.365 181.951C236.445 183.212 236.546 184.497 237.207 185.543C237.779 186.333 238.533 186.975 239.406 187.412C243.053 189.479 247.324 190.097 251.494 190.559C257.88 191.265 264.288 191.694 270.718 191.848C286.648 192.235 302.823 190.937 318.34 194.537C316.419 191.626 316.424 187.774 317.498 184.455C318.572 181.137 320.64 178.246 322.666 175.403C315.564 173.159 307.949 176.663 300.51 176.314C292.874 175.957 285.806 171.555 278.161 171.559C276.518 171.559 274.846 171.765 273.25 171.37C271.653 170.975 270.108 169.774 269.96 168.139C271.999 168.597 273.932 166.858 274.775 164.951C275.617 163.044 275.769 160.889 276.586 158.969C278.62 154.193 284.117 151.979 287.537 148.047C288.076 147.425 288.586 146.69 288.569 145.867C288.489 145.17 288.195 144.514 287.727 143.989C284.884 140.209 280.6 138.108 277.041 135.168C275.802 134.143 273.305 130.278 271.915 129.921C269.337 129.261 267.151 132.975 265.474 134.785C257.011 143.957 248.936 153.479 241.251 163.351Z" fill="#464353"/>
<path opacity="0.07" d="M325.947 162.284C327.014 163.073 327.963 164.011 328.764 165.069C329.164 165.6 329.448 166.208 329.6 166.854C329.751 167.501 329.767 168.171 329.645 168.824C329.514 167.607 329.786 166.38 330.42 165.331C331.053 164.282 332.013 163.469 333.153 163.014L325.947 162.284Z" fill="black"/>
<g opacity="0.1">
<path opacity="0.1" d="M349.306 52.123C348.811 50.8101 348.24 49.5267 347.596 48.2793C347.18 48.3591 346.77 48.4643 346.366 48.5944C347.089 49.7915 347.74 51.03 348.317 52.3036C348.641 52.2196 348.969 52.1608 349.306 52.123Z" fill="black"/>
<path opacity="0.1" d="M373.745 68.6866C373.858 68.779 373.968 68.884 374.077 68.9807C374.069 68.9534 374.06 68.9267 374.048 68.9008C373.952 68.8308 373.851 68.7594 373.745 68.6866Z" fill="black"/>
<path opacity="0.1" d="M334.59 70.5349C334.809 70.3626 335.011 70.182 335.247 70.014L335.179 68.0186L330.681 67.9724C329.952 68.6403 329.177 69.5981 329.607 70.4929L334.59 70.5349Z" fill="black"/>
<path opacity="0.1" d="M383.769 104.124C382.969 105.611 381.815 107.006 380.236 107.607C379.018 108.069 377.679 108.027 376.377 107.968C371.938 107.787 367.422 107.59 363.227 106.124C361.264 105.435 359.386 104.473 357.33 104.049C354.925 103.553 352.436 103.834 349.997 104.12L339.248 105.38C336.076 105.75 332.542 106.027 330.011 104.086C328.562 102.977 327.627 101.251 326.039 100.36C325.369 99.9822 324.573 99.7386 324.139 99.1C323.865 98.6259 323.72 98.0887 323.718 97.5416C323.684 97.1005 323.663 96.6594 323.646 96.2183C323.601 97.4999 323.624 98.783 323.718 100.062C323.72 100.609 323.865 101.146 324.139 101.62C324.56 102.255 325.369 102.498 326.039 102.881C327.627 103.771 328.566 105.498 330.011 106.607C332.538 108.548 336.076 108.287 339.248 107.901L349.997 106.64C352.436 106.355 354.925 106.073 357.33 106.569C359.369 106.989 361.247 107.955 363.227 108.644C367.439 110.11 371.938 110.324 376.377 110.488C377.679 110.543 379.018 110.589 380.236 110.127C381.815 109.526 382.969 108.132 383.769 106.645C385.319 103.767 385.753 100.503 385.589 97.2139C385.499 99.6227 384.878 101.982 383.769 104.124Z" fill="black"/>
</g>
<path opacity="0.1" d="M349.185 54.8241L355.082 60.2851C355.082 60.2851 350.027 58.1847 349.185 54.8241Z" fill="black"/>
</g>
<defs>
<clipPath id="clip0">
<rect width="414" height="337.333" fill="white"/>
</clipPath>
</defs>
</svg>
