<svg width="342" height="304" viewBox="0 0 342 304" fill="none" xmlns="http://www.w3.org/2000/svg">
<g clip-path="url(#clip0)">
<path opacity="0.1" d="M153.215 117.245C139.849 112.919 125.716 109.293 111.273 109.667C90.0388 110.218 69.6227 120.113 59.5534 134.738C51.0421 147.131 49.906 161.697 46.1906 175.478C41.613 192.456 32.924 208.568 23.6504 224.325C18.6694 232.789 13.4146 241.429 12.5487 250.729C11.3608 263.64 19.1838 276.548 31.5178 285.2C43.8518 293.852 60.2639 298.463 76.7537 299.54C85.5278 300.109 94.6978 299.669 102.51 296.509C110.773 293.178 116.816 287.083 125.113 283.79C132.803 280.741 141.765 280.348 150.391 280.796C161.563 281.361 172.627 283.257 183.349 286.443C195.372 290.04 206.544 295.217 218.541 298.866C230.539 302.515 243.949 304.58 256.243 301.645C267.785 298.892 276.94 292.105 285.196 285.229C298.501 274.178 310.872 262.048 322.183 248.964C329.64 240.308 336.586 231.168 339.917 221.054C346.278 201.715 337.755 179.818 318.686 166.5C302.889 155.461 281.636 150.588 260.824 147.627C241.844 144.9 219.885 144.63 202.44 137.684C185.802 131.041 170.667 122.892 153.215 117.245Z" fill="#F9A826"/>
<path opacity="0.1" d="M323.597 183.149C328.32 183.149 332.149 182.624 332.149 181.976C332.149 181.328 328.32 180.803 323.597 180.803C318.874 180.803 315.045 181.328 315.045 181.976C315.045 182.624 318.874 183.149 323.597 183.149Z" fill="#F9A826"/>
<path opacity="0.1" d="M290.836 186.472C295.559 186.472 299.388 185.947 299.388 185.299C299.388 184.651 295.559 184.126 290.836 184.126C286.113 184.126 282.284 184.651 282.284 185.299C282.284 185.947 286.113 186.472 290.836 186.472Z" fill="#F9A826"/>
<path opacity="0.1" d="M252.246 181.976C256.969 181.976 260.798 181.451 260.798 180.803C260.798 180.155 256.969 179.63 252.246 179.63C247.523 179.63 243.694 180.155 243.694 180.803C243.694 181.451 247.523 181.976 252.246 181.976Z" fill="#F9A826"/>
<path opacity="0.1" d="M303.947 195.594C307.305 195.594 310.027 195.22 310.027 194.758C310.027 194.296 307.305 193.921 303.947 193.921C300.589 193.921 297.867 194.296 297.867 194.758C297.867 195.22 300.589 195.594 303.947 195.594Z" fill="#F9A826"/>
<path opacity="0.1" d="M269.946 194.758C273.304 194.758 276.026 194.383 276.026 193.921C276.026 193.46 273.304 193.085 269.946 193.085C266.588 193.085 263.866 193.46 263.866 193.921C263.866 194.383 266.588 194.758 269.946 194.758Z" fill="#F9A826"/>
<path d="M290.651 185.033C290.651 185.033 302.648 145.71 288.775 129.961C278.413 118.178 266.616 119.599 261.342 121.046C259.977 121.409 258.707 122.065 257.621 122.968C256.535 123.871 255.658 124.999 255.051 126.275C253.201 130.253 253.541 136.71 266.56 144.249C288.36 156.871 289.718 174.186 289.718 174.186L290.651 185.033Z" fill="#F9A826"/>
<path d="M263.218 126.623C263.218 126.623 298.581 137.68 290.651 185.033" stroke="#565987" stroke-miterlimit="10"/>
<path d="M283.868 130.586C283.868 130.586 278.998 133.868 280.537 138.798" stroke="#565987" stroke-miterlimit="10"/>
<path d="M266.767 133.506C266.767 133.506 269.728 130.479 273.365 132.148" stroke="#565987" stroke-miterlimit="10"/>
<path d="M280.744 148.734C280.744 148.734 285.97 146.084 287.32 149.403" stroke="#565987" stroke-miterlimit="10"/>
<path d="M293.678 154.262C293.678 154.262 289.752 153.951 289.681 155.828" stroke="#565987" stroke-miterlimit="10"/>
<path d="M291.136 185.347C291.136 185.347 277.073 156.768 273.228 157.393C271.378 157.689 270.549 159.495 270.168 161.304C269.694 163.647 269.962 166.078 270.934 168.262C272.929 172.835 278.283 181.521 291.136 185.347Z" fill="#F9A826"/>
<path d="M273.332 162.818C273.332 162.818 288.079 184.2 290.928 185.14" stroke="#565987" stroke-miterlimit="10"/>
<path d="M271.978 166.156H275.419" stroke="#565987" stroke-miterlimit="10"/>
<path d="M276.1 173.979L281.496 174.208" stroke="#565987" stroke-miterlimit="10"/>
<path d="M279.383 167.721L278.798 170.53" stroke="#565987" stroke-miterlimit="10"/>
<path d="M285.118 176.273L285.015 178.827" stroke="#565987" stroke-miterlimit="10"/>
<path d="M290.721 185.347C290.721 185.347 304.783 156.768 308.628 157.393C310.478 157.689 311.307 159.495 311.689 161.304C312.162 163.647 311.894 166.078 310.923 168.262C308.928 172.835 303.573 181.521 290.721 185.347Z" fill="#F9A826"/>
<path d="M308.525 162.818C308.525 162.818 293.778 184.2 290.928 185.14" stroke="#565987" stroke-miterlimit="10"/>
<path d="M309.879 166.156H306.437" stroke="#565987" stroke-miterlimit="10"/>
<path d="M305.757 173.979L300.361 174.208" stroke="#565987" stroke-miterlimit="10"/>
<path d="M302.474 167.721L303.059 170.53" stroke="#565987" stroke-miterlimit="10"/>
<path d="M296.735 176.273L296.842 178.827" stroke="#565987" stroke-miterlimit="10"/>
<path d="M266.597 192.023C266.216 191.71 265.937 191.29 265.798 190.817C265.736 190.578 265.758 190.326 265.859 190.102C265.961 189.878 266.137 189.695 266.357 189.584C266.871 189.388 267.419 189.743 267.837 190.106C268.255 190.469 268.729 190.872 269.273 190.798C268.993 190.544 268.784 190.222 268.666 189.864C268.548 189.505 268.525 189.122 268.599 188.752C268.622 188.598 268.686 188.454 268.784 188.334C269.069 188.03 269.587 188.163 269.928 188.4C271.012 189.166 271.315 190.639 271.323 191.964C271.376 191.472 271.376 190.976 271.323 190.484C271.302 190.238 271.341 189.992 271.437 189.766C271.533 189.539 271.683 189.34 271.874 189.185C272.131 189.044 272.421 188.975 272.714 188.985C272.956 188.95 273.203 188.967 273.438 189.034C273.673 189.101 273.892 189.217 274.08 189.373C274.49 189.817 274.383 190.561 274.024 191.05C273.62 191.497 273.144 191.872 272.614 192.16C272.209 192.4 271.863 192.729 271.604 193.122C271.575 193.177 271.55 193.234 271.53 193.292H268.473C267.794 192.956 267.162 192.529 266.597 192.023Z" fill="#F9A826"/>
<path d="M320.133 180.51C319.75 180.199 319.471 179.778 319.334 179.304C319.272 179.066 319.294 178.815 319.396 178.591C319.498 178.367 319.673 178.185 319.893 178.075C320.407 177.879 320.955 178.235 321.373 178.594C321.791 178.953 322.269 179.363 322.813 179.286C322.532 179.032 322.322 178.711 322.203 178.352C322.085 177.993 322.061 177.61 322.135 177.239C322.158 177.086 322.223 176.942 322.324 176.825C322.609 176.521 323.123 176.651 323.464 176.891C324.548 177.654 324.852 179.112 324.859 180.455C324.914 179.963 324.914 179.467 324.859 178.975C324.838 178.73 324.877 178.483 324.973 178.257C325.069 178.03 325.219 177.831 325.41 177.676C325.669 177.539 325.958 177.471 326.25 177.48C326.491 177.442 326.737 177.455 326.973 177.519C327.208 177.583 327.427 177.695 327.616 177.85C328.03 178.29 327.923 179.034 327.56 179.522C327.159 179.978 326.682 180.362 326.15 180.655C325.745 180.895 325.4 181.224 325.14 181.617C325.11 181.671 325.085 181.728 325.066 181.787H322.01C321.33 181.447 320.699 181.018 320.133 180.51Z" fill="#F9A826"/>
<path d="M302.289 192.023C301.908 191.71 301.629 191.29 301.49 190.817C301.428 190.578 301.45 190.326 301.551 190.102C301.653 189.878 301.829 189.695 302.049 189.584C302.563 189.388 303.111 189.743 303.529 190.106C303.947 190.469 304.421 190.872 304.965 190.798C304.685 190.544 304.476 190.223 304.357 189.864C304.238 189.505 304.214 189.122 304.287 188.752C304.313 188.598 304.378 188.454 304.476 188.334C304.761 188.03 305.279 188.163 305.62 188.4C306.704 189.166 307.007 190.639 307.015 191.964C307.074 191.472 307.08 190.976 307.033 190.484C307.012 190.238 307.051 189.992 307.147 189.766C307.244 189.539 307.394 189.34 307.585 189.185C307.842 189.044 308.132 188.975 308.425 188.985C308.667 188.95 308.913 188.967 309.149 189.034C309.384 189.101 309.602 189.217 309.79 189.373C310.201 189.817 310.094 190.561 309.735 191.05C309.331 191.497 308.854 191.872 308.325 192.16C307.919 192.4 307.574 192.729 307.314 193.122C307.285 193.177 307.261 193.234 307.24 193.292H304.184C303.498 192.957 302.86 192.53 302.289 192.023Z" fill="#F9A826"/>
<path d="M251.691 168.754C251.691 168.754 250.544 170.252 252.22 172.514C253.897 174.775 255.273 176.688 254.718 178.098C254.718 178.098 252.191 173.898 250.133 173.838C248.076 173.779 249.426 171.281 251.691 168.754Z" fill="#F9A826"/>
<path opacity="0.1" d="M251.691 168.754C251.59 168.898 251.51 169.056 251.454 169.224C249.449 171.581 248.379 173.783 250.307 173.838C252.106 173.89 254.263 177.102 254.777 177.909C254.777 177.972 254.74 178.035 254.718 178.094C254.718 178.094 252.191 173.894 250.133 173.835C248.076 173.775 249.426 171.281 251.691 168.754Z" fill="black"/>
<path d="M249.56 170.663C249.56 171.192 249.619 171.618 249.693 171.618C249.767 171.618 249.822 171.192 249.822 170.663C249.822 170.134 249.748 170.386 249.678 170.386C249.608 170.386 249.56 170.138 249.56 170.663Z" fill="#FFD037"/>
<path d="M248.827 171.292C249.289 171.548 249.697 171.699 249.73 171.636C249.763 171.574 249.419 171.315 248.956 171.063C248.494 170.811 248.675 170.993 248.638 171.063C248.601 171.133 248.364 171.041 248.827 171.292Z" fill="#FFD037"/>
<path d="M257.742 168.754C257.742 168.754 258.889 170.252 257.212 172.514C255.536 174.775 254.159 176.688 254.718 178.098C254.718 178.098 257.242 173.898 259.299 173.838C261.357 173.779 260.006 171.281 257.742 168.754Z" fill="#F9A826"/>
<path opacity="0.1" d="M257.742 168.754C257.843 168.898 257.923 169.056 257.978 169.224C259.984 171.581 261.054 173.783 259.126 173.838C257.327 173.89 255.17 177.102 254.655 177.909C254.672 177.972 254.693 178.034 254.718 178.094C254.718 178.094 257.242 173.894 259.299 173.835C261.357 173.775 260.006 171.281 257.742 168.754Z" fill="black"/>
<path d="M259.873 170.663C259.873 171.192 259.814 171.618 259.74 171.618C259.666 171.618 259.61 171.192 259.61 170.663C259.61 170.134 259.684 170.386 259.755 170.386C259.825 170.386 259.873 170.138 259.873 170.663Z" fill="#FFD037"/>
<path d="M260.606 171.292C260.143 171.548 259.736 171.699 259.703 171.636C259.67 171.574 260.014 171.315 260.476 171.063C260.939 170.811 260.757 170.993 260.794 171.063C260.831 171.133 261.068 171.041 260.606 171.292Z" fill="#FFD037"/>
<path d="M259.507 177.902C259.507 177.902 256.306 177.805 255.34 177.117C254.374 176.429 250.411 175.607 250.159 176.71C249.907 177.813 245.348 182.194 248.96 182.224C252.572 182.253 257.368 181.661 258.33 181.073C259.292 180.485 259.507 177.902 259.507 177.902Z" fill="#A8A8A8"/>
<path opacity="0.2" d="M248.908 181.839C252.524 181.869 257.312 181.276 258.278 180.688C259.018 180.244 259.303 178.638 259.388 177.898H259.492C259.492 177.898 259.292 180.488 258.326 181.069C257.36 181.65 252.576 182.25 248.956 182.22C247.913 182.22 247.554 181.85 247.572 181.291C247.731 181.628 248.131 181.835 248.908 181.839Z" fill="black"/>
<path opacity="0.1" d="M47.7338 30.4002C52.1544 30.4002 55.7381 26.8166 55.7381 22.3959C55.7381 17.9752 52.1544 14.3915 47.7338 14.3915C43.3131 14.3915 39.7294 17.9752 39.7294 22.3959C39.7294 26.8166 43.3131 30.4002 47.7338 30.4002Z" fill="#F9A826"/>
<path opacity="0.1" d="M186.176 17.7665C190.597 17.7665 194.18 14.1828 194.18 9.76213C194.18 5.34145 190.597 1.75778 186.176 1.75778C181.755 1.75778 178.172 5.34145 178.172 9.76213C178.172 14.1828 181.755 17.7665 186.176 17.7665Z" fill="#F9A826"/>
<path opacity="0.1" d="M313.161 49.3879C317.582 49.3879 321.166 45.8042 321.166 41.3836C321.166 36.9629 317.582 33.3792 313.161 33.3792C308.741 33.3792 305.157 36.9629 305.157 41.3836C305.157 45.8042 308.741 49.3879 313.161 49.3879Z" fill="#F9A826"/>
<path opacity="0.1" d="M13.4146 109.204C20.8233 109.204 26.8292 103.198 26.8292 95.7895C26.8292 88.3808 20.8233 82.3749 13.4146 82.3749C6.00592 82.3749 0 88.3808 0 95.7895C0 103.198 6.00592 109.204 13.4146 109.204Z" fill="#F9A826"/>
<path opacity="0.1" d="M26.2741 175.444C33.6828 175.444 39.6887 169.438 39.6887 162.03C39.6887 154.621 33.6828 148.615 26.2741 148.615C18.8654 148.615 12.8595 154.621 12.8595 162.03C12.8595 169.438 18.8654 175.444 26.2741 175.444Z" fill="#F9A826"/>
<path opacity="0.1" d="M277.514 117.016C284.922 117.016 290.928 111.01 290.928 103.601C290.928 96.1927 284.922 90.1868 277.514 90.1868C270.105 90.1868 264.099 96.1927 264.099 103.601C264.099 111.01 270.105 117.016 277.514 117.016Z" fill="#F9A826"/>
<path d="M166.585 128.721C166.112 128.765 165.63 128.743 165.16 128.817C164.371 128.974 163.619 129.277 162.94 129.709C159.573 131.626 156.394 134.261 154.999 137.872C154.884 138.094 154.847 138.349 154.895 138.594C154.978 138.796 155.113 138.973 155.287 139.105L156.597 140.296C156.763 140.468 156.96 140.606 157.178 140.703C157.532 140.796 157.904 140.784 158.252 140.67C161.852 139.845 165.679 138.894 168.206 136.2C169.405 134.923 170.512 133.165 172.277 133.117C173.017 133.117 173.709 133.402 174.438 133.487C175.167 133.572 176.044 133.262 176.218 132.551C176.274 132.198 176.233 131.836 176.099 131.504L175.011 127.881C174.715 126.889 171.729 126.837 170.734 127.015C169.216 127.278 168.195 128.573 166.585 128.721Z" fill="#65617D"/>
<path d="M179.404 149.13C179.352 150.369 179.452 151.624 179.249 152.852C179.07 153.821 178.76 154.761 178.327 155.646C177.662 157.07 176.816 158.402 175.811 159.61C174.875 160.72 173.753 161.763 172.366 162.2C170.978 162.637 169.272 162.322 168.406 161.153C167.699 160.202 167.666 158.932 167.718 157.745C167.843 154.825 168.302 151.864 169.612 149.252C170.175 148.142 170.889 147.083 171.463 145.962C172.662 143.634 173.346 140.874 175.415 139.268C176.713 139.867 178.1 140.249 179.522 140.396C180.074 140.455 181.65 140.492 181.835 141.199C181.961 141.677 180.925 143.013 180.725 143.483C179.935 145.266 179.487 147.181 179.404 149.13Z" fill="#65617D"/>
<path d="M164.735 95.7599C165.179 96.8922 165.741 98.0024 165.845 99.2088C165.919 99.9489 165.845 100.689 165.845 101.429C165.907 102.443 166.076 103.448 166.348 104.427L168.41 112.864C168.717 114.126 169.024 115.421 168.865 116.709C168.757 117.567 168.447 118.4 168.45 119.262C168.49 119.916 168.594 120.564 168.761 121.198C169.151 123.154 169.045 125.177 168.45 127.082C168.389 127.225 168.368 127.382 168.387 127.537C168.439 127.777 168.672 127.925 168.883 128.04C171.102 129.254 173.521 130.06 176.025 130.419C178.285 125.043 179.864 119.405 180.725 113.637C181.251 110.144 181.506 106.606 182.179 103.139C182.195 102.939 182.28 102.75 182.42 102.606C182.672 102.395 183.053 102.528 183.349 102.669C187.131 104.487 190.769 106.59 194.232 108.96C195.45 107.383 196.306 105.557 196.741 103.613C197.175 101.668 197.176 99.6517 196.745 97.7064C196.31 96.0292 195.689 94.4057 194.895 92.866C194.048 90.9932 192.993 89.2217 191.749 87.5853C189.003 84.1438 184.977 81.9456 180.832 80.4543C178.312 79.5439 175.718 78.8704 173.128 78.1821C171.677 77.7936 169.246 76.528 167.836 77.5123C166.356 78.5374 165.371 81.0797 164.765 82.6931C164.015 84.6943 163.608 86.8071 163.558 88.9434C163.497 91.2709 163.897 93.5875 164.735 95.7599Z" fill="#3F3D56"/>
<path d="M194.484 105.933C193.71 106.776 194.362 108.124 194.214 109.263C194.117 109.778 193.933 110.272 193.67 110.725L190.128 117.678C189.536 118.722 189.093 119.843 188.811 121.009C188.326 123.518 189.322 126.338 188.049 128.554C187.638 129.269 187.001 129.883 186.831 130.69C186.705 131.278 186.831 131.892 186.768 132.488C186.683 133.188 186.309 133.817 186.102 134.49C185.94 135.137 185.825 135.795 185.758 136.459C185.309 139.289 183.827 141.852 181.598 143.653C180.321 144.735 178.682 145.293 177.01 145.214C175.359 145.074 173.72 143.952 173.383 142.332C173.268 141.78 173.291 141.166 172.946 140.718C172.458 140.078 171.429 140.052 170.959 139.397L172.78 136.4C173.346 135.471 173.923 134.501 174.016 133.417C174.127 132.088 173.487 130.764 173.716 129.45C173.912 128.321 174.723 127.381 174.967 126.264C175.27 124.876 174.664 123.474 174.334 122.089C173.527 118.681 174.43 115.129 175.33 111.728C176.525 107.228 177.75 102.658 180.17 98.6796C184.999 101.281 189.44 103.779 194.484 105.933Z" fill="#3F3D56"/>
<path d="M194.528 35.4441C194.817 36.2287 194.662 37.0983 194.606 37.9309C194.476 39.7812 194.869 41.6315 194.78 43.5077C194.691 45.3839 194.114 47.175 193.714 48.9994C192.578 54.2061 192.852 59.6311 191.823 64.86C190.554 71.336 187.308 77.368 186.668 83.9402C186.465 86.0273 186.491 88.2625 185.347 90.024C178.552 87.0329 172.129 83.26 166.208 78.7816C167.51 69.1194 168.798 59.4091 168.624 49.6618C168.54 48.4867 168.622 47.3057 168.868 46.1536C169.177 45.1859 169.621 44.2666 170.186 43.4226C171.618 41.0949 173.194 38.8598 174.767 36.6283C175.774 35.1999 176.862 33.7012 178.468 33.0314C180.074 32.3616 181.976 32.6613 183.726 32.9796C185.833 33.3644 187.938 33.7493 190.04 34.1341C191.353 34.3747 193.966 33.9158 194.528 35.4441Z" fill="#F9A826"/>
<path d="M143.856 72.4684C142.993 71.6048 142.051 70.8231 141.044 70.1334C142.358 68.5347 142.099 66.2218 142.42 64.1754C142.684 62.8462 143.085 61.5477 143.616 60.3009C143.749 59.9494 143.938 59.5608 144.304 59.4683C144.529 59.4405 144.757 59.4764 144.963 59.5719C146.073 59.9642 148.389 59.942 149.252 60.6599C150.292 61.5332 149.341 63.3613 148.948 64.453C148.671 65.1857 144.408 73.0235 143.856 72.4684Z" fill="#BE6F72"/>
<path d="M147.079 141.577C147.637 142.479 148.001 143.487 148.149 144.537C148.238 145.588 147.853 146.739 146.957 147.294C146.062 147.849 144.778 147.664 143.712 147.331C141.451 146.596 139.372 145.392 137.608 143.798C135.845 142.203 134.438 140.255 133.48 138.08C133.143 137.303 132.851 136.477 132.255 135.878C131.812 135.489 131.321 135.159 130.793 134.897C129.339 134.076 127.936 132.995 127.263 131.463C126.589 129.931 126.893 127.885 128.288 126.974C128.723 126.723 129.203 126.561 129.701 126.497C130.199 126.434 130.705 126.47 131.189 126.604C132.154 126.878 133.077 127.28 133.935 127.799C135.371 128.58 137.125 129.254 138.376 130.294C139.486 131.208 140.481 132.444 141.429 133.521C142.514 134.76 143.53 136.057 144.474 137.406C144.778 137.802 147.335 141.218 147.079 141.577Z" fill="#65617D"/>
<path d="M119.954 133.809C119.828 135.671 119.5 137.514 118.974 139.305C118.674 140.311 118.278 141.358 117.445 141.999C116.741 142.455 115.943 142.747 115.11 142.853C114.82 142.932 114.516 142.951 114.218 142.909C113.708 142.802 113.345 142.361 113.03 141.943C111.794 140.307 110.592 138.579 110.07 136.596C109.33 133.72 110.07 130.638 111.354 127.951C111.816 126.868 112.489 125.888 113.334 125.068C114.378 124.21 115.633 123.647 116.968 123.436C118.333 123.163 120.01 122.578 120.11 124.24C120.256 127.43 120.204 130.626 119.954 133.809Z" fill="#65617D"/>
<path d="M140.43 64.2531C142.983 65.5742 145.818 67.2543 146.35 70.0778C146.68 71.8023 146.047 73.5675 146.151 75.3216C146.243 76.8647 146.891 78.356 146.809 79.8955C146.723 80.6229 146.599 81.3455 146.439 82.0603C146.221 83.4258 146.35 84.8173 146.295 86.1976C146.173 89.3061 145.133 92.2961 144.63 95.3639C144.273 97.5544 144.19 99.7806 144.382 101.992C144.504 103.42 144.752 104.841 144.752 106.277C144.752 107.311 144.666 108.343 144.496 109.363C144 112.568 143.001 115.674 141.536 118.567C139.756 122.071 140.008 126.593 140.196 130.519C140.279 131.061 140.21 131.614 139.997 132.118C139.53 132.965 138.368 133.088 137.406 133.006C133.838 132.68 130.529 131.004 128.155 128.321C127.808 127.984 127.573 127.549 127.481 127.074C127.4 126.282 128.036 125.631 128.495 124.976C130.057 122.756 129.661 119.747 129.846 117.02C129.981 115.035 130.455 113.089 131.248 111.265C131.707 110.211 132.281 109.171 132.384 108.024C132.481 106.954 132.155 105.896 131.833 104.874L130.723 101.351C129.002 95.8783 127.27 90.3718 124.665 85.2613C122.956 86.3734 121.732 88.0928 121.242 90.0721C120.272 93.558 121.653 97.451 120.332 100.804C120.113 101.269 119.931 101.75 119.788 102.243C119.71 102.669 119.68 103.102 119.699 103.535C119.733 107.142 119.953 110.745 120.358 114.329C120.378 114.872 120.53 115.402 120.802 115.873C121.02 116.187 121.338 116.42 121.571 116.72C122.219 117.56 122.097 118.737 121.941 119.784L121.201 124.735C121.188 124.986 121.105 125.229 120.961 125.435C120.786 125.604 120.569 125.722 120.332 125.775C117.98 126.505 115.501 126.732 113.056 126.441C112.335 126.356 111.68 125.871 111.077 125.464C111.014 124.724 111.935 124.232 111.968 123.496C111.933 123.059 111.73 122.654 111.402 122.363C110.026 120.809 108.383 119.159 108.397 117.083C108.397 116.539 108.527 115.995 108.508 115.451C108.46 114.056 107.498 112.86 107.161 111.517C106.747 109.855 107.298 108.131 107.509 106.432C107.798 104.145 107.457 101.829 107.139 99.5456L105.899 91.1674C105.755 89.8671 105.498 88.5818 105.13 87.3262C104.663 86.0901 104.115 84.886 103.49 83.7219C102.306 81.3165 101.333 78.8149 100.363 76.3207C100.055 75.6431 99.8615 74.9191 99.7898 74.1781C99.7343 72.9088 100.389 71.7098 101.203 70.7329C102.728 68.9174 104.809 67.6556 107.124 67.1433C107.511 67.0354 107.918 67.0189 108.312 67.0952C108.644 67.2052 108.955 67.369 109.234 67.58C112.094 69.451 115.349 70.6341 118.744 71.0367C122.138 71.4392 125.58 71.0503 128.799 69.9002C129.169 70.1815 129.853 70.0593 130.279 69.8595C131.467 69.3155 132.436 68.4089 133.48 67.6392C135.423 66.1663 138.043 64.7675 140.43 64.2531Z" fill="#3F3D56"/>
<path d="M63.7276 159.288C63.9241 159.855 64.2198 160.382 64.601 160.846C65.9406 162.592 67.8094 163.987 68.6716 166.026C68.8529 166.463 68.9862 166.922 69.1527 167.366C69.6591 168.706 70.4848 169.903 71.5581 170.852C72.3768 171.532 73.2663 172.121 74.2114 172.61C75.847 173.502 77.6159 174.308 79.4736 174.26C79.8471 174.252 80.219 174.208 80.5838 174.127C81.162 174.007 81.7194 173.803 82.2379 173.52C83.4332 172.861 84.4583 171.574 84.2214 170.23C84.1736 169.974 84.0928 169.725 83.9809 169.49C83.7846 169.116 83.5581 168.758 83.3037 168.421C82.6783 167.555 82.0344 166.667 81.1204 166.112C80.0916 165.482 78.7964 165.327 77.8712 164.55C77.5062 164.22 77.1909 163.838 76.935 163.418C76.0965 162.129 75.4717 160.713 75.0847 159.225C74.8035 158.115 74.6147 156.897 73.8043 156.083C72.9939 155.269 71.88 155.084 70.7994 154.899C70.4343 154.823 70.0621 154.787 69.6893 154.791C69.1601 154.81 68.6124 154.962 68.1165 154.714C67.6207 154.466 67.4541 154.114 66.8546 154.162C66.3775 154.227 65.9277 154.423 65.5557 154.729C64.1495 155.768 63.217 157.619 63.7276 159.288Z" fill="#3F3D56"/>
<path d="M76.8758 160.971C77.1163 162.226 77.4864 163.562 78.4559 164.38C79.0739 164.913 79.9362 165.246 80.2433 165.997C80.5505 166.748 80.1545 167.692 79.6438 168.38C78.9918 169.25 78.1837 169.992 77.2607 170.567C76.4761 171.052 75.5399 171.422 74.6406 171.207C73.9005 171.033 73.3158 170.5 72.7645 169.986C71.4989 168.813 70.2037 167.595 69.4931 166.023C68.753 164.365 68.716 162.444 67.9093 160.812C67.4393 159.861 66.714 159.029 66.4291 158.007C66.3013 157.638 66.3013 157.237 66.4291 156.867C66.5671 156.603 66.7758 156.383 67.032 156.23C67.2882 156.078 67.5817 156 67.8797 156.005C68.4755 156.025 69.0631 156.15 69.6153 156.375C71.2859 156.971 72.996 157.449 74.7332 157.807C75.4252 157.937 75.8433 157.933 76.2134 158.603C76.5553 159.354 76.7787 160.152 76.8758 160.971Z" fill="#FBBEBE"/>
<path d="M81.1685 171.577C80.8941 171.997 80.6997 172.464 80.5949 172.954C80.5076 173.335 80.4937 173.729 80.5542 174.116C81.1324 173.996 81.6898 173.791 82.2083 173.509C83.4036 172.85 84.4287 171.562 84.1919 170.219C84.1441 169.963 84.0632 169.714 83.9513 169.479C83.7747 169.44 83.5908 169.447 83.418 169.501C83.2453 169.555 83.0897 169.653 82.9669 169.786C82.2779 170.286 81.6711 170.89 81.1685 171.577Z" fill="#FBBEBE"/>
<path d="M67.9056 143.46C67.7446 143.807 67.6967 144.195 67.7687 144.57C67.9389 145.311 68.6975 145.736 69.3821 146.073L75.8914 149.255C76.343 149.464 76.7828 149.698 77.2088 149.955C78.319 150.636 79.1923 151.598 80.1397 152.479C81.087 153.359 82.1417 154.185 83.3962 154.495C84.6485 154.77 85.9574 154.598 87.0968 154.011C87.7108 153.705 88.2809 153.318 88.7916 152.86C89.2338 152.472 89.6423 152.047 90.0128 151.59C90.3311 151.254 90.559 150.843 90.6752 150.395C90.7974 149.718 90.4606 149.052 90.0683 148.493C89.8425 148.171 89.5952 147.864 89.3282 147.575C86.8599 144.848 82.8152 143.434 79.3367 142.879C77.9527 142.657 76.639 142.139 75.3067 141.717C73.9745 141.295 72.5646 140.977 71.1806 141.173C69.7966 141.369 68.4348 142.165 67.9056 143.46Z" fill="#3F3D56"/>
<path opacity="0.1" d="M67.9056 143.46C67.7446 143.807 67.6967 144.195 67.7687 144.57C67.9389 145.311 68.6975 145.736 69.3821 146.073L75.8914 149.255C76.343 149.464 76.7828 149.698 77.2088 149.955C78.319 150.636 79.1923 151.598 80.1397 152.479C81.087 153.359 82.1417 154.185 83.3962 154.495C84.6485 154.77 85.9574 154.598 87.0968 154.011C87.7108 153.705 88.2809 153.318 88.7916 152.86C89.2338 152.472 89.6423 152.047 90.0128 151.59C90.3311 151.254 90.559 150.843 90.6752 150.395C90.7974 149.718 90.4606 149.052 90.0683 148.493C89.8425 148.171 89.5952 147.864 89.3282 147.575C86.8599 144.848 82.8152 143.434 79.3367 142.879C77.9527 142.657 76.639 142.139 75.3067 141.717C73.9745 141.295 72.5646 140.977 71.1806 141.173C69.7966 141.369 68.4348 142.165 67.9056 143.46Z" fill="black"/>
<path d="M84.1955 145.492C84.696 146.054 85.1078 146.689 85.4167 147.376C85.6947 147.825 85.7937 148.363 85.6943 148.882C85.5488 149.231 85.3155 149.537 85.0171 149.77L84.3695 150.369C84.1739 150.573 83.9464 150.743 83.696 150.873C83.3417 151.005 82.9634 151.062 82.5858 151.039C81.7162 151.039 80.7799 151.039 80.0731 150.517C79.1073 149.822 78.9333 148.382 79.3737 147.276C79.8141 146.169 80.7355 145.333 81.6643 144.585C82.4193 143.975 83.6664 144.933 84.1955 145.492Z" fill="#FBBEBE"/>
<path d="M88.1478 149.318C88.028 149.932 88.0857 150.568 88.3143 151.15C88.4771 151.705 88.6362 152.26 88.7954 152.826C88.7954 152.826 88.7954 152.826 88.7954 152.849C89.2375 152.461 89.6461 152.036 90.0166 151.579C90.3348 151.243 90.5627 150.832 90.679 150.384C90.8011 149.707 90.4643 149.041 90.0721 148.482C89.8462 148.16 89.5989 147.853 89.332 147.564C89.158 147.79 89.0063 148.012 88.8805 148.156C88.5567 148.487 88.3069 148.883 88.1478 149.318Z" fill="#FBBEBE"/>
<path d="M71.1436 121.738C70.3776 124.957 70.7032 128.325 71.1103 131.611C71.4211 134.113 71.769 136.703 71.0289 139.112C70.755 140.011 70.3221 140.925 70.4886 141.854C70.8032 143.605 72.9125 144.278 74.6592 144.607C75.1631 144.736 75.6867 144.767 76.2023 144.7C76.7195 144.559 77.1996 144.306 77.6085 143.96C80.0913 142.155 81.9769 139.648 83.0225 136.762C83.6849 134.831 83.8958 132.777 84.0993 130.745C84.4398 127.326 84.7839 123.866 84.2844 120.469C84.1363 119.469 83.9143 118.481 83.8218 117.475C83.7053 115.724 83.8022 113.966 84.1104 112.239C84.7476 107.96 85.7126 103.736 86.9969 99.6047C83.473 100.073 79.8911 99.4256 76.7537 97.7545C77.3606 98.0801 76.6649 103.272 76.5909 104.001C76.3663 106.174 75.9741 108.327 75.4178 110.44C74.3853 114.389 72.0799 117.815 71.1436 121.738Z" fill="#3F3D56"/>
<path opacity="0.1" d="M71.1436 121.738C70.3776 124.957 70.7032 128.325 71.1103 131.611C71.4211 134.113 71.769 136.703 71.0289 139.112C70.755 140.011 70.3221 140.925 70.4886 141.854C70.8032 143.605 72.9125 144.278 74.6592 144.607C75.1631 144.736 75.6867 144.767 76.2023 144.7C76.7195 144.559 77.1996 144.306 77.6085 143.96C80.0913 142.155 81.9769 139.648 83.0225 136.762C83.6849 134.831 83.8958 132.777 84.0993 130.745C84.4398 127.326 84.7839 123.866 84.2844 120.469C84.1363 119.469 83.9143 118.481 83.8218 117.475C83.7053 115.724 83.8022 113.966 84.1104 112.239C84.7476 107.96 85.7126 103.736 86.9969 99.6047C83.473 100.073 79.8911 99.4256 76.7537 97.7545C77.3606 98.0801 76.6649 103.272 76.5909 104.001C76.3663 106.174 75.9741 108.327 75.4178 110.44C74.3853 114.389 72.0799 117.815 71.1436 121.738Z" fill="black"/>
<path d="M90.357 102.872C91.8372 107.161 91.5116 111.846 90.8714 116.339C90.2312 120.831 89.2875 125.324 89.5651 129.85C89.6724 131.626 89.961 133.45 89.443 135.149C89.155 135.978 88.7739 136.771 88.3069 137.513L76.4983 157.933C76.1973 158.463 75.769 158.91 75.2521 159.233C74.7353 159.556 74.1461 159.745 73.5379 159.784C72.276 159.872 71.0363 159.458 69.8595 158.995C69.0776 158.736 68.3509 158.333 67.7169 157.807C67.4026 157.546 67.1563 157.212 66.999 156.834C66.8418 156.456 66.7783 156.046 66.8139 155.639C67.3431 152.094 68.1387 148.463 68.7271 144.907C69.1273 142.494 70.0001 140.184 71.2953 138.109C72.2094 136.629 73.3343 135.301 74.1226 133.761C76.3873 129.35 75.6028 123.969 73.8561 119.329C72.1094 114.688 69.5079 110.381 68.1202 105.637C67.7088 104.317 67.4737 102.948 67.4208 101.566C67.4037 100.139 67.6682 98.7229 68.199 97.3983C68.7299 96.0737 69.5167 94.8668 70.5145 93.8466C70.8057 93.5169 71.1727 93.2629 71.584 93.1065C72.0647 92.995 72.5655 93.0039 73.042 93.1324C79.6179 94.4091 88.1848 96.537 90.357 102.872Z" fill="#3F3D56"/>
<path d="M196.501 38.8413C196.715 40.4621 196.131 42.1015 195.298 43.504C192.149 48.7588 184.888 51.0828 179.274 48.6367C176.962 47.6264 175.004 45.9612 173.087 44.3181C172.443 43.763 171.773 43.182 171.448 42.3975C170.874 41.0098 171.566 39.3556 172.695 38.3639C173.824 37.3721 175.285 36.8837 176.74 36.4433C181.539 34.9483 195.357 30.2337 196.501 38.8413Z" fill="#FBBEBE"/>
<path d="M193.692 33.6975C198.062 37.213 204.424 40.562 209.375 43.1672C211.059 44.0554 212.928 45.0545 213.534 46.8678C213.86 47.8374 213.753 48.892 213.645 49.9134C213.438 51.8784 213.224 53.873 212.465 55.6974C211.573 57.8326 209.997 59.5941 208.731 61.5332C206.511 64.9303 205.208 68.9344 202.466 71.9355C204.316 78.0822 206.341 84.2215 206.999 90.6013C207.036 90.7767 207.016 90.9592 206.944 91.123C206.868 91.2308 206.769 91.3205 206.655 91.3858L202.052 94.4054C201.55 94.6984 201.1 95.0737 200.723 95.5156C199.909 96.574 200.016 98.0616 199.513 99.2939C199.237 99.8954 198.842 100.435 198.353 100.88C197.863 101.325 197.288 101.667 196.663 101.884C195.406 102.318 194.065 102.46 192.745 102.299C191.063 102.193 189.444 101.623 188.067 100.652C186.894 99.7639 186.058 98.5168 185.251 97.2882C184.653 96.4502 184.156 95.5448 183.771 94.5905C183.279 93.2287 183.249 91.7447 183.267 90.2941C183.28 87.5337 183.543 84.7802 184.056 82.0677C184.27 80.9908 184.537 79.9288 184.707 78.8445C185.047 76.6612 184.981 74.4334 185.232 72.239C185.576 69.7708 186.127 67.3358 186.879 64.96C187.291 63.4884 187.612 61.993 187.841 60.4823C188.274 57.8252 189.137 55.2607 189.999 52.711L191.479 48.3407C191.794 47.397 192.112 46.4571 192.486 45.5356C193.181 43.8148 194.077 42.1385 194.314 40.303C194.576 38.301 192.415 35.9252 193.144 34.0453C193.203 33.8381 193.525 33.5642 193.692 33.6975Z" fill="#3F3D56"/>
<path d="M212.35 45.8354C213.375 46.2979 213.942 47.4007 214.308 48.4665C215.134 50.8684 215.332 53.4414 214.885 55.9416C214.741 56.5702 214.642 57.2083 214.589 57.8511C214.597 58.5962 214.67 59.3392 214.807 60.0715C215.178 62.9024 214.807 65.7778 214.93 68.6346C215.055 71.8467 215.755 75.2402 214.408 78.1599C213.512 80.099 211.817 81.5422 210.145 82.8523C203.917 87.7057 197.046 91.6711 189.729 94.6349C190.991 93.1177 191.013 90.8344 190.173 89.047C189.333 87.2596 187.771 85.9163 186.102 84.8728C188.226 84.4006 190.284 83.666 192.227 82.6857C196.105 80.717 199.428 77.8343 202.71 74.9811C203.194 74.633 203.571 74.1561 203.798 73.6045C204.131 72.4943 203.214 71.4397 202.577 70.4664C200.649 67.5059 201.097 63.6388 201.904 60.2121C202.803 56.456 204.124 52.7147 206.533 49.6951C208.035 47.8078 209.997 46.3571 212.35 45.8354Z" fill="#3F3D56"/>
<path d="M189.403 94.7274C189.07 95.2695 188.638 95.7441 188.13 96.1262C187.02 96.8663 185.495 96.5851 184.255 96.0596C183.103 95.571 182.04 94.8944 181.11 94.0576C180.71 93.6323 180.238 93.2815 179.715 93.0214C178.745 92.6514 177.391 92.9289 176.847 92.0371C176.784 91.9434 176.752 91.8317 176.758 91.7188C176.791 91.3969 177.213 91.3081 177.539 91.2896C179.05 91.1897 180.516 90.7372 181.82 89.9684C181.404 89.6673 181.047 89.2908 180.77 88.8583C180.654 88.7073 180.592 88.5227 180.592 88.3328C180.637 88.1264 180.75 87.9413 180.914 87.8073C182.103 86.6847 183.6 85.9417 185.213 85.6728C186.827 85.4039 188.484 85.6214 189.973 86.2975C190.264 86.4151 190.519 86.6064 190.713 86.8526C190.85 87.0795 190.942 87.3309 190.983 87.5927C191.224 88.6288 192.093 90.1831 191.779 91.2303C191.431 92.433 190.117 93.7097 189.403 94.7274Z" fill="#FBBEBE"/>
<path d="M164.169 90.061C168.772 84.7432 170.83 77.7454 172.739 70.9771L174.105 66.1663L177.398 54.5798C177.883 52.8702 178.368 51.1605 178.69 49.4175C179.241 46.409 179.293 43.3338 179.26 40.2771C179.213 39.01 178.922 37.7637 178.405 36.6061C178.083 35.8068 177.928 34.9557 177.665 34.1304C177.33 32.9799 176.831 31.8842 176.181 30.8776C176 30.5784 175.774 30.3088 175.511 30.0783C175.056 29.7688 174.54 29.5594 173.997 29.464C172.821 29.1142 171.602 28.9287 170.375 28.9126C169.146 28.957 167.88 29.3826 167.088 30.3151C166.485 31.0294 166.208 31.9545 165.73 32.7575C165.508 33.0863 165.307 33.4287 165.127 33.7826C164.924 34.3203 164.811 34.888 164.794 35.4626C164.602 37.794 164.438 40.1278 164.302 42.4641C164.239 43.5262 164.184 44.5957 164.224 45.6614C164.258 46.4904 164.346 47.3156 164.435 48.1408L165.312 56.2229C165.516 58.1213 165.371 59.8976 165.542 61.7997C165.956 66.3921 164.968 70.9845 163.954 75.4918C163.469 77.6344 162.97 79.8067 161.934 81.7458C161.02 83.4628 159.65 85.2058 160.013 87.119C160.139 87.7851 160.476 88.4068 160.527 89.0803C160.502 89.4974 160.543 89.9159 160.649 90.32C160.801 90.5949 161.035 90.8146 161.319 90.9476C161.603 91.0807 161.922 91.1201 162.23 91.0601C162.962 90.9315 163.639 90.583 164.169 90.061Z" fill="#3F3D56"/>
<path d="M164.731 68.7789C164.872 69.841 164.765 70.9179 164.816 71.9873C164.932 73.3647 165.18 74.7278 165.556 76.058C165.926 77.5382 166.4 79.1961 167.706 80.0176C168.034 80.1878 168.347 80.3846 168.643 80.606C168.788 80.7207 168.895 80.8772 168.949 81.0544C169.004 81.2316 169.003 81.4212 168.946 81.5977L167.929 81.4275C168.044 81.5158 168.14 81.6274 168.209 81.7552C168.278 81.8829 168.32 82.0239 168.331 82.1688C168.342 82.3137 168.322 82.4593 168.273 82.5961C168.224 82.733 168.147 82.8579 168.046 82.9627C167.946 83.0676 167.824 83.15 167.689 83.2046C167.555 83.2592 167.41 83.2847 167.265 83.2795C167.119 83.2743 166.977 83.2385 166.846 83.1745C166.716 83.1104 166.6 83.0195 166.507 82.9077C166.546 83.2412 166.515 83.579 166.415 83.8995C166.363 84.0568 166.265 84.1944 166.132 84.2937C166 84.393 165.84 84.4491 165.675 84.4546C165.483 84.4248 165.301 84.3486 165.146 84.2325L162.489 82.5858C161.693 82.1572 161.03 81.5169 160.575 80.7355L159.413 78.9851C159.157 78.6478 158.954 78.2734 158.81 77.8749C158.377 76.3947 159.587 74.7517 158.958 73.3565C158.769 73.0127 158.548 72.688 158.296 72.387C156.953 70.5367 157.038 68.0203 157.186 65.726C157.234 64.9525 157.374 64.0348 158.074 63.698C158.629 63.4279 159.295 63.6684 159.809 64.0052C160.324 64.3419 160.779 64.786 161.364 64.9858C161.734 65.1117 162.141 65.1265 162.511 65.2597C163.029 65.441 163.51 66.1478 163.858 66.566C164.35 67.2077 164.652 67.9743 164.731 68.7789Z" fill="#FBBEBE"/>
<path d="M132.303 35.5218C131.989 36.2434 131.548 36.9026 131 37.4684C130.726 37.751 130.388 37.9653 130.015 38.0938C129.643 38.2224 129.245 38.2616 128.854 38.2085C128.033 38.0456 127.429 37.3684 126.885 36.7282C125.464 35.0593 124.025 33.3681 123.07 31.392C121.612 28.3834 121.379 24.9493 121.168 21.6151C121.116 20.7565 121.072 19.8462 121.483 19.095C122.004 18.1365 123.111 17.6851 124.132 17.3039L129.776 15.1946C130.121 15.0308 130.504 14.9606 130.886 14.991C131.77 15.1391 132.096 16.2048 132.336 17.0671C132.767 18.6165 133.482 20.0722 134.446 21.3597C135.711 23.0472 138.55 25.3194 136.929 27.425C134.971 29.9488 133.728 32.6724 132.303 35.5218Z" fill="#BE6F72"/>
<path d="M139.523 25.8929C141.995 28.2169 142.831 31.8361 142.713 35.2221C142.594 38.6081 141.654 41.9091 141.118 45.2544C140.581 48.5997 140.474 52.1708 141.928 55.2459C142.428 56.3006 143.109 57.2776 143.457 58.3914C143.748 59.4923 143.847 60.6354 143.749 61.7701C143.743 62.9662 143.515 64.1508 143.075 65.2634C142.287 67.0101 140.666 68.2239 139.116 69.334C135.952 71.621 132.725 73.945 129.01 75.1402C126.493 75.9507 123.829 76.2171 121.194 76.3614C119.41 76.5036 117.616 76.4527 115.843 76.2097C112.741 75.6928 109.891 74.184 107.72 71.9096C107.342 71.543 107.03 71.1136 106.799 70.6403C106.573 70.0245 106.463 69.3719 106.477 68.716C106.388 66.286 106.403 63.8559 106.521 61.4259C106.589 59.1101 106.908 56.8084 107.472 54.5613C108.179 51.9709 109.404 49.5433 110.333 47.0195C113.567 38.2455 113.241 28.2613 117.734 20.0682C118.703 18.2994 120.324 16.438 122.323 16.7192C122.707 16.7423 123.069 16.9087 123.337 17.1855C123.566 17.5223 123.695 17.9178 123.707 18.3253C124.184 22.3071 124.861 26.3925 126.737 29.9858C127.477 31.3957 128.588 33.542 130.294 33.9195C132 34.297 133.006 32.6687 133.92 31.5141C135.526 29.3969 137.411 27.5061 139.523 25.8929Z" fill="#E3E8F4"/>
<path d="M151.354 19.9017C151.858 20.1742 152.328 20.5046 152.756 20.8861C153.866 21.937 154.273 23.5468 154.266 25.0714C154.259 26.5961 153.896 28.0985 153.674 29.6083C153.078 33.679 153.585 37.8458 153.822 41.9683C153.894 42.6339 153.854 43.3068 153.703 43.9592C153.522 44.5809 153.148 45.1286 152.908 45.7318C152.201 47.5154 152.734 49.5507 152.319 51.4232C151.875 53.4179 150.354 55.2311 150.639 57.2553C150.754 58.0473 151.135 58.7763 151.298 59.5608C151.461 60.3453 151.32 61.2927 150.643 61.7145C149.966 62.1364 148.982 61.8293 148.175 62.0624C147.847 62.1834 147.528 62.3268 147.22 62.4917C145.973 63.0542 144.485 62.8617 143.257 62.2474C142.053 61.5902 140.97 60.7316 140.056 59.7088C138.646 58.2656 137.28 56.6855 136.662 54.7649C135.759 51.982 136.562 48.9513 137.543 46.1906C138.524 43.43 139.693 40.6398 139.519 37.7052C139.423 36.0621 138.905 34.482 138.594 32.8685C138.209 30.6331 138.072 28.3621 138.183 26.0965C138.231 24.4386 138.342 22.729 139.057 21.2302C139.566 20.2305 140.318 19.3746 141.244 18.7409C142.169 18.1073 143.24 17.7163 144.356 17.6037C146.946 17.3224 149.167 18.6435 151.354 19.9017Z" fill="#3F3D56"/>
<path opacity="0.1" d="M144.356 55.6715C144.382 56.8556 144.594 58.0283 144.985 59.1463C145.647 57.6365 145.725 55.9416 145.814 54.2986C146.184 48.6404 147.438 43.3042 148.774 37.8236C147.801 38.5637 147.253 40.414 146.787 41.5242C144.937 46.001 144.106 50.8337 144.356 55.6715Z" fill="black"/>
<path d="M119.41 16.2455C117.627 16.7155 116.08 17.7739 114.352 18.4659C112.557 19.206 110.625 19.5205 108.741 19.9757C104.382 21.0341 100.004 22.9991 97.3733 26.6368C95.4342 29.3123 94.6312 32.6169 93.3027 35.6477C92.1925 38.19 90.7123 40.5731 89.8944 43.219C88.825 46.6717 88.9471 50.3723 89.2098 53.9766C89.4245 56.9371 89.7501 59.9309 91.0934 62.5546C91.7965 63.9312 92.7661 65.1635 93.4692 66.5401C94.3129 68.1942 94.757 70.0186 95.4601 71.7209C96.1632 73.4232 97.1957 75.1254 98.8276 76.0136L101.529 74.4334C105.559 72.0761 109.589 69.7152 113.493 67.1544C116.898 64.934 120.332 62.3843 122.145 58.7356C123.751 55.5124 123.91 51.7452 123.496 48.1667C123.081 44.5883 122.134 41.0875 121.645 37.5202C121.023 33.0302 121.117 28.47 121.923 24.0093C122.293 21.9962 123.277 19.9165 123.481 17.9108C123.707 15.7682 120.953 15.8385 119.41 16.2455Z" fill="#3F3D56"/>
<path d="M102.71 75.0736C104.778 77.0312 107.753 77.6011 110.34 78.7742C112.262 79.6666 113.993 80.9233 115.436 82.4748C116.231 83.3481 117.001 84.536 116.602 85.6462C116.265 86.6009 115.232 87.0894 114.285 87.4446C113.108 87.8887 111.794 88.281 110.621 87.8332C109.933 87.5705 109.378 87.045 108.745 86.6712C107.195 85.7498 105.241 85.7461 103.649 84.895C101.407 83.696 100.289 81.0575 98.18 79.6327C97.0255 78.8556 95.4305 78.2191 95.3121 76.8314C95.3066 76.3296 95.4128 75.8328 95.6229 75.3771C96.0485 74.2447 96.7738 70.3554 98.3947 70.459C100.16 70.5737 101.396 74.1374 102.71 75.0736Z" fill="#FBBEBE"/>
<path d="M91.8705 57.729C92.5477 60.164 94.1205 62.24 95.7524 64.1717C96.9255 65.5594 98.2133 67.0693 98.254 68.8863C98.291 70.6033 97.1439 72.1835 95.6636 73.0605C94.1834 73.9375 92.4404 74.2188 90.7271 74.3298C89.3564 74.4618 87.9734 74.3655 86.6342 74.0449C83.2519 73.1271 80.9057 70.1778 78.245 67.8982C76.6649 66.5475 74.8886 65.3707 73.6785 63.6795C72.4684 61.9884 71.9577 59.5608 73.1493 57.8548C73.5793 57.3018 74.0765 56.8046 74.6295 56.3746C76.6504 54.6224 78.3738 52.554 79.7326 50.2501C80.2803 49.3213 80.8058 48.3147 81.7273 47.756C83.0484 46.9529 84.7432 47.3193 86.2383 47.7116C87.8628 48.1371 92.4404 48.9697 92.7587 51.0421C92.8882 51.8932 91.8335 53.218 91.6744 54.1321C91.4719 55.3307 91.5389 56.5595 91.8705 57.729Z" fill="#FBBEBE"/>
<path d="M100.238 62.3695C100.722 63.2481 101.121 64.1714 101.429 65.1265C102.558 69.0491 100.541 73.0901 99.5788 77.0571C98.3503 82.138 98.872 87.4521 98.8128 92.681C98.7869 95.0716 98.5316 97.7027 96.8108 99.3605C96.3667 99.7824 95.8339 100.138 95.5341 100.671C95.3489 101.061 95.211 101.472 95.1233 101.895C94.8606 102.81 94.3946 103.653 93.7602 104.362C93.1258 105.071 92.3394 105.627 91.4597 105.989C90.58 106.352 89.6299 106.51 88.6802 106.454C87.7305 106.397 86.8059 106.127 85.9755 105.663C84.573 104.882 83.3555 103.527 81.7495 103.487C81.2445 103.511 80.7415 103.567 80.2433 103.653C78.6447 103.812 77.0793 103.22 75.5806 102.639C75.2229 102.526 74.8891 102.348 74.5962 102.114C74.3261 101.866 74.1522 101.533 73.9042 101.266C72.9902 100.282 71.4285 100.452 70.1111 100.178C69.1282 99.9584 68.2281 99.4634 67.5158 98.7512C66.8036 98.0389 66.3086 97.1388 66.0886 96.1558C65.8222 94.8828 66.0479 93.5654 66.2699 92.2813L67.2617 86.5602C67.6779 84.4617 67.9658 82.3398 68.1239 80.2063C68.2455 77.7953 68.0389 75.3789 67.5096 73.0235C67.073 71.0992 66.4217 69.2156 66.1848 67.2543C65.7721 63.7393 66.6969 60.1977 68.7752 57.333C69.2896 56.6262 69.9631 55.9194 70.8365 55.8528C71.5433 55.7899 72.2057 56.1674 72.82 56.53C78.1562 59.6879 83.5294 62.7803 88.9397 65.8074C90.4199 66.64 91.9334 67.4763 93.5839 67.8871C94.0798 68.0129 94.7903 67.9611 94.8606 67.4578C94.8694 67.266 94.819 67.0761 94.7163 66.9138C93.7911 65.1339 92.4515 63.6055 91.3858 61.9107C90.32 60.2158 89.4985 58.2101 89.813 56.2414C90.2423 53.5177 92.7735 51.7156 94.8421 53.8508C97.1624 56.2747 98.7166 59.3906 100.238 62.3695Z" fill="#F86D70"/>
<path d="M83.6664 96.907C88.0071 97.1846 92.4441 97.4806 96.463 99.1459C97.7545 99.6788 99.1237 100.367 100.482 100.038C101.158 99.832 101.787 99.495 102.332 99.046C104.005 97.8191 105.586 96.471 107.061 95.0123C106.913 94.2019 105.814 94.0909 104.993 94.0983C102.99 94.1102 101.014 93.6353 99.2347 92.7143C98.65 92.3626 98.0298 92.0736 97.3844 91.852C95.6266 91.3673 93.8356 92.2924 92.0704 92.7439C89.4578 93.41 86.7045 93.0214 84.0364 92.6292L76.8351 91.5671C76.1653 91.4709 75.4104 91.3932 74.8775 91.8076C74.5213 92.1442 74.2771 92.5822 74.1781 93.0621C73.2973 96.0226 73.7192 96.2705 76.6501 96.4556L83.6664 96.907Z" fill="#FBBEBE"/>
<path opacity="0.1" d="M181.998 45.5282C188.538 45.5282 193.84 40.2264 193.84 33.6864C193.84 27.1463 188.538 21.8445 181.998 21.8445C175.458 21.8445 170.156 27.1463 170.156 33.6864C170.156 40.2264 175.458 45.5282 181.998 45.5282Z" fill="black"/>
<path d="M181.913 45.0138C188.453 45.0138 193.755 39.7121 193.755 33.172C193.755 26.6319 188.453 21.3301 181.913 21.3301C175.373 21.3301 170.071 26.6319 170.071 33.172C170.071 39.7121 175.373 45.0138 181.913 45.0138Z" fill="#FBBEBE"/>
<path d="M191.908 18.1365C192.856 18.7212 193.847 19.3503 194.365 20.3347C194.644 21.003 194.856 21.6971 194.998 22.407C195.646 24.6274 197.37 26.5554 197.474 28.8682C197.589 31.4031 195.687 33.605 193.533 34.9335C193.041 35.2958 192.449 35.4951 191.838 35.5034C191.213 35.4627 190.672 35.0704 190.099 34.8187C187.667 33.7382 184.947 35.1074 182.372 35.7365C179.695 36.3829 176.887 36.218 174.305 35.2628C172.917 34.7447 171.57 33.9676 170.7 32.7649C169.831 31.5622 169.52 29.8785 170.26 28.587C170.63 27.9283 171.244 27.3325 171.204 26.5813C171.181 26.1298 170.915 25.7227 170.833 25.2787C170.715 24.5719 171.085 23.8835 171.463 23.2803C173.175 20.5243 175.339 18.0761 177.865 16.0383C178.605 15.4314 179.46 14.8393 180.429 14.7949C182.376 14.7098 184.048 16.1604 186.05 16.1678C188.322 16.1752 189.954 16.9302 191.908 18.1365Z" fill="#3F3D56"/>
<path opacity="0.1" d="M138.32 30.6704C145.065 30.6704 150.532 25.2029 150.532 18.4585C150.532 11.714 145.065 6.24658 138.32 6.24658C131.576 6.24658 126.108 11.714 126.108 18.4585C126.108 25.2029 131.576 30.6704 138.32 30.6704Z" fill="black"/>
<path d="M138.535 30.3707C145.279 30.3707 150.747 24.9032 150.747 18.1587C150.747 11.4143 145.279 5.94684 138.535 5.94684C131.79 5.94684 126.323 11.4143 126.323 18.1587C126.323 24.9032 131.79 30.3707 138.535 30.3707Z" fill="#BE6F72"/>
<path d="M145.059 25.0566C146.783 26.0225 148.911 25.9226 150.836 25.4822C151.927 25.2771 152.962 24.8405 153.87 24.2018C154.321 23.8794 154.693 23.4587 154.958 22.9715C155.223 22.4843 155.373 21.9433 155.398 21.3893C155.398 20.1497 154.584 19.0321 154.484 17.7924C154.362 16.2307 155.38 14.7875 155.487 13.2185C155.595 11.6494 154.821 10.2358 154.066 8.8888C152.767 6.57594 151.417 4.23347 149.44 2.46459C147.464 0.695717 144.726 -0.43296 142.136 0.162833C140.863 0.455179 139.682 1.13979 138.383 1.27301C137.229 1.38032 136.089 1.03247 134.938 0.884446C133.787 0.736423 132.496 0.828938 131.67 1.62456C131.219 2.06863 130.93 2.69403 130.401 3.01968C130.042 3.1852 129.671 3.32253 129.291 3.43044C127.955 3.96703 127.344 5.47316 126.871 6.82757L123.696 15.9273C124.758 16.6674 126.038 17.0042 127.2 17.5741C128.362 18.1439 129.491 19.0543 129.727 20.3273C129.909 21.2931 129.565 22.4033 130.127 23.21C130.642 23.9501 131.689 24.076 132.577 23.9501C133.465 23.8243 134.357 23.5172 135.245 23.6541C137.465 23.9909 138.291 25.3527 140.344 23.6541C142.398 21.9555 143.149 23.9835 145.059 25.0566Z" fill="#3F3D56"/>
<path opacity="0.1" d="M86.6379 56.8002C92.7692 56.8002 97.7397 51.8298 97.7397 45.6984C97.7397 39.5671 92.7692 34.5967 86.6379 34.5967C80.5066 34.5967 75.5362 39.5671 75.5362 45.6984C75.5362 51.8298 80.5066 56.8002 86.6379 56.8002Z" fill="black"/>
<path d="M87.0672 56.197C93.1985 56.197 98.1689 51.2266 98.1689 45.0953C98.1689 38.9639 93.1985 33.9935 87.0672 33.9935C80.9359 33.9935 75.9655 38.9639 75.9655 45.0953C75.9655 51.2266 80.9359 56.197 87.0672 56.197Z" fill="#FBBEBE"/>
<path d="M95.5674 34.2414C92.9243 32.2136 89.9545 30.6518 86.7859 29.6231C84.758 28.9644 82.5525 28.5129 80.495 29.1198C77.7047 29.9155 73.9708 31.1034 72.2427 33.4384C71.3915 34.5856 70.5293 35.7661 70.1185 37.139C69.297 39.8996 70.4664 42.8416 70.3887 45.7206C70.2962 49.0771 68.5162 52.1411 66.5734 54.8796C64.6306 57.618 64.2383 61.5406 63.0911 64.7009C62.6989 65.7852 62.5731 67.2913 63.5833 67.8353C64.4715 68.3275 65.5446 67.7132 66.3662 67.1211L71.3064 63.55C71.6904 63.2344 72.1331 62.9979 72.609 62.8543C73.6267 62.6175 74.6221 63.254 75.4733 63.8572L85.8349 71.1843C86.0397 70.7662 86.1502 70.3082 86.1585 69.8427C86.1668 69.3771 86.0728 68.9155 85.883 68.4903C86.8562 68.79 87.5631 69.6005 88.4179 70.1778C89.2727 70.755 90.5716 70.9438 91.1933 70.1371C91.815 69.3303 91.345 68.2461 90.653 67.5948C89.961 66.9435 89.0507 66.5549 88.3735 65.8851C87.0302 64.5492 86.8933 62.4398 86.0458 60.7524C85.4389 59.5682 84.4583 58.5764 84.029 57.3146C83.3296 55.2533 84.2436 53.033 85.1392 51.0495C86.2087 48.6959 87.4187 46.1832 89.6946 44.9546C90.4606 44.5402 91.308 44.2959 92.0926 43.9185C94.0465 42.9822 96.4851 40.773 97.4399 38.7932C98.2762 37.0354 96.9884 35.3368 95.5674 34.2414Z" fill="#3F3D56"/>
<path opacity="0.1" d="M78.7631 70.929C79.8252 71.6062 81.0242 72.0392 82.0677 72.746C83.1113 73.4528 84.0253 74.526 84.0549 75.7842C84.0845 76.9868 83.3148 78.0415 82.5747 78.9963L73.5601 90.827L78.1562 92.0445C77.4161 93.0659 77.2274 94.3685 76.8425 95.5674C76.4576 96.7664 75.7323 98.0135 74.5037 98.3281C73.3936 98.613 72.2316 98.0283 71.0844 98.0949C70.237 98.1468 69.4377 98.5464 68.5902 98.5797C67.4986 98.6204 66.4846 98.0468 65.5742 97.4399C63.5463 96.0818 61.5332 94.1353 61.548 91.6929C61.5961 90.8669 61.7618 90.0519 62.0402 89.2728C63.3687 84.9394 64.7453 80.5024 67.4985 76.898C68.9788 74.9737 70.7884 73.3492 72.5979 71.7357C73.0094 71.3215 73.4936 70.9865 74.0264 70.7477C75.2106 70.3036 76.5021 70.8513 77.7269 71.2065C78.9518 71.5618 80.495 71.6136 81.2018 70.5663" fill="black"/>
<path d="M78.3745 70.2C79.4366 70.8735 80.6356 71.3101 81.6792 72.0169C82.7227 72.7238 83.6368 73.7969 83.6701 75.0514C83.7034 76.3059 82.93 77.3125 82.1898 78.2672L73.1715 90.0869L77.7676 91.3044C77.0275 92.3257 76.8388 93.6246 76.4539 94.8273C76.0691 96.03 75.3438 97.2734 74.1152 97.5879C73.005 97.8729 71.843 97.2882 70.6958 97.3548C69.8484 97.4029 69.0491 97.8063 68.2016 97.8359C67.11 97.8766 66.096 97.303 65.1857 96.6961C63.1578 95.3417 61.1446 93.3915 61.1632 90.9528C61.2075 90.1266 61.372 89.3113 61.6516 88.5326C62.9801 84.1955 64.3568 79.7586 67.11 76.1579C68.5902 74.2299 70.4035 72.6053 72.2094 70.9771C72.6228 70.5652 73.1065 70.2305 73.6378 69.989C74.822 69.545 76.1135 70.0926 77.3384 70.4516C78.5633 70.8106 80.1064 70.8587 80.8132 69.8114" fill="#F86D70"/>
<g opacity="0.1">
<path opacity="0.1" d="M171.085 30.3114C171.955 31.5141 173.305 32.2949 174.689 32.8093C177.271 33.7683 180.081 33.9332 182.757 33.283C185.347 32.6539 188.052 31.2847 190.484 32.3653C191.057 32.6206 191.594 33.0092 192.219 33.0536C192.831 33.0425 193.424 32.8421 193.918 32.48C195.416 31.5548 196.793 30.2078 197.452 28.6203C197.452 28.7017 197.452 28.7831 197.474 28.8682C197.589 31.4031 195.687 33.6049 193.533 34.9335C193.041 35.2958 192.449 35.4951 191.838 35.5033C191.213 35.4626 190.672 35.0704 190.099 34.8187C187.667 33.7382 184.947 35.1074 182.372 35.7365C179.695 36.3828 176.887 36.218 174.305 35.2628C172.917 34.7447 171.57 33.9676 170.7 32.7649C169.831 31.5622 169.52 29.8785 170.26 28.587L170.315 28.4944C170.435 29.1493 170.698 29.7698 171.085 30.3114Z" fill="black"/>
<path opacity="0.1" d="M171.577 24.1278C171.607 24.6977 171.263 25.175 170.933 25.6598C170.887 25.5396 170.852 25.4159 170.826 25.2898C170.715 24.6274 171.033 23.9835 171.385 23.4025C171.486 23.633 171.551 23.8776 171.577 24.1278Z" fill="black"/>
</g>
<path opacity="0.1" d="M127.737 5.62117L124.561 14.7172C125.624 15.4573 126.904 15.7978 128.066 16.364C129.228 16.9301 130.357 17.8442 130.593 19.1172C130.775 20.083 130.431 21.1932 130.993 22.0036C131.507 22.7437 132.555 22.8659 133.443 22.7437C134.331 22.6216 135.223 22.3108 136.111 22.4477C138.331 22.7845 139.157 24.1463 141.21 22.4662C143.264 20.7861 144.008 22.7808 145.917 23.8539C147.642 24.8235 149.77 24.7236 151.694 24.2795C152.785 24.0755 153.82 23.6402 154.729 23.0028C154.858 22.8971 154.981 22.7847 155.099 22.666C154.815 23.2725 154.389 23.8009 153.855 24.2055C152.947 24.8442 151.912 25.2808 150.821 25.4859C148.896 25.9262 146.75 26.0262 145.044 25.0603C143.135 23.9871 142.35 22.0295 140.337 23.6726C138.324 25.3157 137.451 23.9908 135.238 23.6726C134.349 23.5357 133.461 23.8428 132.569 23.9686C131.678 24.0945 130.634 23.9686 130.12 23.2285C129.557 22.4218 129.901 21.3116 129.72 20.3458C129.483 19.0728 128.355 18.1587 127.193 17.5925C126.031 17.0264 124.75 16.6822 123.688 15.9458L126.878 6.82386C127.248 5.821 127.655 4.73673 128.395 4.02252C128.139 4.53946 127.919 5.07364 127.737 5.62117Z" fill="black"/>
<g opacity="0.1">
<path opacity="0.1" d="M86.7083 68.89C87.5261 69.26 88.5585 69.3155 89.0766 68.6235C89.6576 67.8834 89.2283 66.7362 88.5363 66.0812C87.8443 65.4262 86.934 65.0414 86.2568 64.3716C84.9135 63.0394 84.7765 60.93 83.9291 59.2426C83.3222 58.0547 82.3416 57.0629 81.9123 55.801C81.2129 53.7435 82.1269 51.5195 83.0225 49.5396C84.0919 47.1861 85.302 44.6734 87.5779 43.4448C88.3439 43.0303 89.1913 42.7861 89.9759 42.4086C91.9298 41.4724 94.3684 39.2594 95.3232 37.2796C96.1262 35.6107 94.9938 33.9898 93.6468 32.8907C94.3018 33.3163 94.942 33.7641 95.5637 34.2415C96.9885 35.3516 98.2726 37.0354 97.414 38.7858C96.4593 40.7656 94.0206 42.9748 92.0667 43.9111C91.2822 44.2811 90.4347 44.5328 89.6687 44.9472C87.3929 46.1758 86.1828 48.6885 85.1133 51.0421C84.2141 53.0256 83.3 55.2459 84.0031 57.3072C84.4324 58.5691 85.413 59.5608 86.0199 60.745C86.8785 62.4325 87.0043 64.5418 88.3476 65.8777C89.0248 66.5475 89.9352 66.9324 90.6272 67.5874C91.3192 68.2424 91.7373 69.3747 91.1674 70.1297C90.5976 70.8846 89.2431 70.7291 88.392 70.1704C87.8184 69.7818 87.2966 69.2711 86.7083 68.89Z" fill="black"/>
<path opacity="0.1" d="M64.2642 65.6076L69.2045 62.0402C69.5884 61.7235 70.0311 61.4858 70.5071 61.3408C71.5248 61.1077 72.5202 61.7441 73.3714 62.3473L83.733 69.6745C83.9379 69.2557 84.0484 68.7971 84.0567 68.331C84.065 67.8648 83.9709 67.4026 83.7811 66.9768C84.7321 67.2728 85.4241 68.0647 86.2494 68.6198C86.1294 68.5654 86.0058 68.5197 85.8793 68.4829C86.0691 68.9081 86.1631 69.3697 86.1548 69.8353C86.1465 70.3008 86.036 70.7588 85.8312 71.1769L75.4696 63.8498C74.6185 63.2466 73.6193 62.6101 72.6053 62.8469C72.1295 62.9905 71.6867 63.227 71.3027 63.5426L66.3625 67.1137C65.5409 67.7058 64.4678 68.3201 63.5796 67.8279C63.3367 67.6786 63.1373 67.468 63.0016 67.2173C62.8658 66.9666 62.7984 66.6845 62.8062 66.3995C63.3304 66.2128 63.8223 65.9456 64.2642 65.6076Z" fill="black"/>
</g>
<path d="M187.69 89.776C187.69 89.776 166.485 91.4746 162.267 88.4697L181.665 85.4796L187.69 89.776Z" fill="#E3E8F4"/>
<path opacity="0.1" d="M187.69 89.776C187.69 89.776 166.485 91.4746 162.267 88.4697L181.665 85.4796L187.69 89.776Z" fill="black"/>
<path d="M187.69 89.776L181.75 86.0162C181.75 86.0162 164.032 91.1082 159.177 89.0063L164.117 82.0751L181.672 85.4982L187.69 89.776Z" fill="#E3E8F4"/>
<path d="M161.341 39.9218C160.687 40.7492 160.161 41.6713 159.784 42.6566C159.613 43.1784 159.528 43.7223 159.384 44.2515C158.978 45.5693 158.352 46.8092 157.534 47.9188C155.709 50.5721 153.43 53.1329 152.971 56.3191C152.749 57.8919 152.993 59.4905 153.304 61.0484C153.472 62.0758 153.765 63.0787 154.177 64.0348C154.647 65.0488 155.347 65.9406 155.883 66.9213C156.373 67.8838 156.787 68.8836 157.119 69.9113C157.752 69.2785 158.126 68.4311 158.633 67.691C159.14 66.9509 159.895 66.2848 160.786 66.2737C161.815 66.2737 162.663 67.1248 163.68 67.258C163.839 67.29 164.004 67.2746 164.154 67.2136C164.524 67.0397 164.554 66.5401 164.524 66.1404C164.232 63.3465 162.633 60.5896 163.388 57.8808C164.084 55.3755 166.57 53.8101 167.877 51.5639C168.824 49.9319 169.105 48.0076 169.357 46.1351C169.671 43.8963 169.99 41.6389 169.849 39.3853C169.779 38.2492 168.876 31.0701 167.225 31.8213C166.652 32.0803 166.152 33.1794 165.793 33.6716L164.313 35.7698L161.341 39.9218Z" fill="#3F3D56"/>
<path d="M117.049 86.2346L105.145 95.9264L89.8278 93.188L100.141 85.0911L117.049 86.2346Z" fill="#E3E8F4"/>
<path opacity="0.1" d="M117.479 85.6314L105.574 95.3232L90.2571 92.5848L100.571 84.4879L117.479 85.6314Z" fill="black"/>
<path d="M117.393 85.117L105.489 94.8051L90.1683 92.0704L100.486 83.9698L117.393 85.117Z" fill="#E3E8F4"/>
<path opacity="0.1" d="M117.738 83.9957L105.829 93.6875L90.5124 90.9491L100.83 82.8522L117.738 83.9957Z" fill="black"/>
<path d="M117.649 83.4814L105.744 93.1732L90.4273 90.4348L100.741 82.3379L117.649 83.4814Z" fill="#E3E8F4"/>
<path d="M274.246 215.906C274.527 215.77 274.837 215.704 275.149 215.714C275.461 215.725 275.766 215.811 276.037 215.966C276.308 216.121 276.537 216.34 276.704 216.604C276.871 216.867 276.971 217.168 276.996 217.479L277.658 226.068L273.728 226.779L271.656 220.569L274.246 215.906Z" fill="#3F3D56"/>
<path d="M136.751 158.337L76.6057 188.859C75.9159 189.211 75.3372 189.747 74.9341 190.408C74.531 191.069 74.3192 191.829 74.3222 192.604C74.3253 193.378 74.5431 194.136 74.9515 194.794C75.3598 195.452 75.9427 195.984 76.6353 196.33L206.174 261.338C208.479 262.493 211.032 263.063 213.608 262.998C216.185 262.933 218.706 262.236 220.95 260.968L275.512 230.202C276.174 229.824 276.72 229.273 277.092 228.608C277.463 227.942 277.646 227.188 277.621 226.426C277.595 225.665 277.362 224.925 276.947 224.286C276.531 223.647 275.95 223.133 275.264 222.801L140.448 158.296C139.87 158.019 139.236 157.879 138.595 157.886C137.954 157.893 137.323 158.047 136.751 158.337Z" fill="#3F3D56"/>
<path d="M76.2023 183.549L74.3187 184.948L74.1707 191.646C74.1587 192.168 74.294 192.683 74.561 193.132C74.828 193.581 75.216 193.945 75.6805 194.184L207.432 261.794C207.731 261.948 208.065 262.023 208.401 262.011C208.737 261.999 209.065 261.901 209.352 261.726C209.639 261.551 209.877 261.305 210.041 261.011C210.206 260.718 210.293 260.387 210.293 260.051V250.322L76.2023 183.549Z" fill="#3F3D56"/>
<path d="M136.751 150.573L76.6057 181.091C75.9154 181.442 75.3359 181.978 74.9318 182.638C74.5277 183.299 74.3148 184.059 74.3167 184.833C74.3186 185.607 74.5353 186.366 74.9427 187.024C75.3501 187.683 75.9321 188.216 76.6242 188.563L206.174 253.571C208.479 254.724 211.032 255.294 213.608 255.229C216.185 255.165 218.706 254.468 220.95 253.201L275.512 222.431C276.174 222.053 276.72 221.502 277.092 220.836C277.463 220.171 277.646 219.417 277.621 218.655C277.595 217.894 277.362 217.153 276.947 216.514C276.531 215.875 275.95 215.362 275.264 215.03L140.448 150.528C139.87 150.252 139.235 150.113 138.594 150.12C137.953 150.128 137.323 150.283 136.751 150.573Z" fill="#E3E8F4"/>
<path d="M149.2 156.113L82.9299 189.762L196.83 246.714L265.172 212.025L149.2 156.113Z" fill="#3F3D56"/>
<path d="M238.51 236.36C242.37 236.36 245.5 234.506 245.5 232.219C245.5 229.932 242.37 228.078 238.51 228.078C234.649 228.078 231.519 229.932 231.519 232.219C231.519 234.506 234.649 236.36 238.51 236.36Z" fill="#3F3D56"/>
<path d="M111.017 167.503C111.375 167.503 111.665 167.213 111.665 166.855C111.665 166.498 111.375 166.208 111.017 166.208C110.66 166.208 110.37 166.498 110.37 166.855C110.37 167.213 110.66 167.503 111.017 167.503Z" fill="#3F3D56"/>
<path d="M109.078 172.68C109.507 172.68 109.855 172.332 109.855 171.903C109.855 171.474 109.507 171.126 109.078 171.126C108.649 171.126 108.301 171.474 108.301 171.903C108.301 172.332 108.649 172.68 109.078 172.68Z" fill="#3F3D56"/>
<path d="M111.924 170.608L119.691 166.985" stroke="#3F3D56" stroke-miterlimit="10"/>
<path d="M180.733 187.452L158.806 200.112C155.62 201.951 154.528 206.025 156.368 209.211C158.207 212.397 162.281 213.488 165.467 211.649L187.394 198.989C190.58 197.15 191.671 193.076 189.832 189.89C187.993 186.704 183.919 185.613 180.733 187.452Z" fill="#F9A826"/>
<path d="M200.346 197.445L178.418 210.104C175.233 211.944 174.141 216.018 175.98 219.203C177.82 222.389 181.894 223.481 185.08 221.642L207.007 208.982C210.193 207.142 211.284 203.069 209.445 199.883C207.605 196.697 203.532 195.605 200.346 197.445Z" fill="#F9A826"/>
<path d="M162.97 175.981L141.043 188.641C137.857 190.481 136.766 194.554 138.605 197.74C140.444 200.926 144.518 202.018 147.704 200.178L169.631 187.519C172.817 185.679 173.909 181.605 172.07 178.42C170.23 175.234 166.156 174.142 162.97 175.981Z" fill="#F9A826"/>
</g>
<defs>
<clipPath id="clip0">
<rect width="342" height="303.033" fill="white"/>
</clipPath>
</defs>
</svg>
