<svg width="108" height="100" viewBox="0 0 108 100" fill="none" xmlns="http://www.w3.org/2000/svg">
<g clip-path="url(#clip0)">
<path d="M49.5908 54.7336C49.5715 54.7336 49.5593 54.7331 49.5551 54.7328L47.2458 54.7331V54.3926H49.5634C49.6171 54.3945 50.7119 54.4254 51.7206 53.2015C53.2238 51.3773 54.4582 46.8616 51.8025 35.708C48.2317 20.7103 51.2099 7.46069 52.6561 2.4603C52.7274 2.21291 52.7401 1.95233 52.6934 1.69917C52.6466 1.44601 52.5416 1.20719 52.3867 1.00158C52.2317 0.795978 52.0311 0.629219 51.8006 0.514484C51.5702 0.399749 51.3162 0.340181 51.0587 0.340487H16.5717C16.3095 0.340839 16.0511 0.403007 15.8174 0.521947C15.5837 0.640886 15.3814 0.813247 15.2268 1.02504C14.6142 1.86777 13.7734 3.48675 13.2473 6.41412L12.9122 6.35394C13.4497 3.36297 14.3178 1.69637 14.9514 0.824868C15.1376 0.569672 15.3814 0.361981 15.6629 0.21866C15.9444 0.0753385 16.2558 0.000424043 16.5717 9.26466e-07H51.0587C51.369 -0.000297601 51.675 0.0715516 51.9527 0.209872C52.2304 0.348192 52.4721 0.549194 52.6588 0.796997C52.8455 1.0448 52.9719 1.33261 53.0282 1.6377C53.0846 1.94279 53.0691 2.25679 52.9832 2.5549C51.5445 7.52935 48.5816 20.7102 52.1338 35.6292C54.8268 46.9397 53.5322 51.5532 51.972 53.4318C50.9429 54.6708 49.809 54.7336 49.5908 54.7336Z" fill="#E6E6E6"/>
<path d="M43.377 60.9474C43.3577 60.9474 43.3455 60.9469 43.3413 60.9466L41.0321 60.9469V60.6064H43.3497C43.4036 60.6081 44.4981 60.6392 45.5068 59.4153C47.01 57.5912 48.2444 53.0755 45.5888 41.9218C42.0179 26.9242 44.9961 13.6746 46.4423 8.67416C46.5136 8.42677 46.5263 8.1662 46.4796 7.91304C46.4328 7.65987 46.3278 7.42106 46.1729 7.21545C46.0179 7.00985 45.8173 6.84309 45.5868 6.72835C45.3564 6.61362 45.1024 6.55405 44.8449 6.55435H10.3579C10.0957 6.55471 9.83727 6.61687 9.6036 6.73581C9.36993 6.85475 9.16759 7.02711 9.01302 7.2389C8.40038 8.08164 7.55964 9.70061 7.03355 12.628L6.69843 12.5678C7.23594 9.57683 8.10403 7.91023 8.73762 7.03873C8.92382 6.78354 9.16758 6.57585 9.4491 6.43253C9.73062 6.28921 10.042 6.21429 10.3579 6.21387H44.8449C45.1552 6.21357 45.4612 6.28542 45.7389 6.42374C46.0166 6.56206 46.2584 6.76306 46.445 7.01086C46.6317 7.25867 46.7582 7.54648 46.8145 7.85157C46.8708 8.15666 46.8554 8.47066 46.7694 8.76876C45.3307 13.7432 42.3679 26.9241 45.92 41.843C48.613 53.1535 47.3184 57.7671 45.7582 59.6456C44.7291 60.8846 43.5952 60.9474 43.377 60.9474Z" fill="#CCCCCC"/>
<path d="M37.163 67.1613C37.1438 67.1613 37.1316 67.1608 37.1274 67.1605L3.17189 67.1608C2.84497 67.1612 2.52295 67.0814 2.23399 66.9285C1.94503 66.7756 1.69794 66.5542 1.51436 66.2837C1.33077 66.0132 1.21628 65.7019 1.1809 65.3769C1.14552 65.0519 1.19033 64.7232 1.31142 64.4195C2.54343 61.3414 4.20228 53.9565 1.47 39.0807C-1.75634 21.5149 1.13209 15.1667 2.52369 13.2526C2.7099 12.9974 2.95366 12.7897 3.23519 12.6464C3.51672 12.5031 3.82808 12.4282 4.14399 12.4277H38.631C38.9413 12.4274 39.2473 12.4993 39.525 12.6376C39.8027 12.7759 40.0444 12.9769 40.2311 13.2247C40.4178 13.4725 40.5442 13.7603 40.6005 14.0654C40.6568 14.3705 40.6414 14.6845 40.5555 14.9826C39.1168 19.9571 36.1539 33.1379 39.7061 48.0569C42.3991 59.3674 41.1045 63.9809 39.5443 65.8595C38.5151 67.0985 37.3813 67.1613 37.163 67.1613ZM4.14399 12.7682C3.88179 12.7686 3.62336 12.8307 3.38969 12.9497C3.15601 13.0686 2.95367 13.241 2.79909 13.4528C1.4333 15.3313 -1.39765 21.5831 1.80487 39.0191C4.41502 53.2299 3.14911 60.7445 1.6275 64.546C1.52495 64.7968 1.48646 65.0692 1.5155 65.3386C1.54454 65.6081 1.64019 65.866 1.79383 66.0892C1.94618 66.3145 2.15149 66.499 2.39176 66.6264C2.63202 66.7539 2.8999 66.8205 3.17188 66.8203H37.1357C37.1894 66.8229 38.2842 66.8532 39.2929 65.6292C40.796 63.805 42.0305 59.2894 39.3748 48.1357C35.804 33.138 38.7822 19.8884 40.2284 14.888C40.2997 14.6406 40.3124 14.3801 40.2656 14.1269C40.2189 13.8737 40.1139 13.6349 39.9589 13.4293C39.804 13.2237 39.6034 13.057 39.3729 12.9422C39.1424 12.8275 38.8885 12.7679 38.631 12.7682H4.14399Z" fill="#3F3D56"/>
<path d="M32.7651 27.7496H5.69648C5.33527 27.7496 4.98885 27.6061 4.73344 27.3507C4.47802 27.0953 4.33453 26.7489 4.33453 26.3877C4.33453 26.0264 4.47802 25.68 4.73344 25.4246C4.98885 25.1692 5.33527 25.0257 5.69648 25.0257H32.7651C33.1263 25.0257 33.4727 25.1692 33.7282 25.4246C33.9836 25.68 34.1271 26.0264 34.1271 26.3877C34.1271 26.7489 33.9836 27.0953 33.7282 27.3507C33.4727 27.6061 33.1263 27.7496 32.7651 27.7496Z" fill="#F9A826"/>
<path d="M32.7651 33.5379H5.69648C5.33527 33.5379 4.98885 33.3944 4.73344 33.139C4.47802 32.8835 4.33453 32.5371 4.33453 32.1759C4.33453 31.8147 4.47802 31.4683 4.73344 31.2129C4.98885 30.9575 5.33527 30.814 5.69648 30.814H32.7651C33.1263 30.814 33.4727 30.9575 33.7282 31.2129C33.9836 31.4683 34.1271 31.8147 34.1271 32.1759C34.1271 32.5371 33.9836 32.8835 33.7282 33.139C33.4727 33.3944 33.1263 33.5379 32.7651 33.5379Z" fill="#CCCCCC"/>
<path d="M32.7651 39.3261H5.69648C5.33527 39.3261 4.98885 39.1826 4.73344 38.9272C4.47802 38.6718 4.33453 38.3254 4.33453 37.9642C4.33453 37.603 4.47802 37.2566 4.73344 37.0011C4.98885 36.7457 5.33527 36.6022 5.69648 36.6022H32.7651C33.1263 36.6022 33.4727 36.7457 33.7282 37.0011C33.9836 37.2566 34.1271 37.603 34.1271 37.9642C34.1271 38.3254 33.9836 38.6718 33.7282 38.9272C33.4727 39.1826 33.1263 39.3261 32.7651 39.3261Z" fill="#CCCCCC"/>
<path d="M34.8081 45.1144H7.73945C7.37824 45.1144 7.03182 44.9709 6.77641 44.7155C6.52099 44.4601 6.3775 44.1137 6.3775 43.7524C6.3775 43.3912 6.52099 43.0448 6.77641 42.7894C7.03182 42.534 7.37824 42.3905 7.73945 42.3905H34.8081C35.1693 42.3905 35.5157 42.534 35.7711 42.7894C36.0265 43.0448 36.17 43.3912 36.17 43.7524C36.17 44.1137 36.0265 44.4601 35.7711 44.7155C35.5157 44.9709 35.1693 45.1144 34.8081 45.1144Z" fill="#CCCCCC"/>
<path d="M34.8081 50.9026H7.73945C7.37824 50.9026 7.03182 50.7592 6.77641 50.5037C6.52099 50.2483 6.3775 49.9019 6.3775 49.5407C6.3775 49.1795 6.52099 48.8331 6.77641 48.5777C7.03182 48.3222 7.37824 48.1788 7.73945 48.1788H34.8081C35.1693 48.1788 35.5157 48.3222 35.7711 48.5777C36.0265 48.8331 36.17 49.1795 36.17 49.5407C36.17 49.9019 36.0265 50.2483 35.7711 50.5037C35.5157 50.7592 35.1693 50.9026 34.8081 50.9026Z" fill="#CCCCCC"/>
<path d="M18.4647 21.9613H5.69648C5.33527 21.9613 4.98885 21.8178 4.73344 21.5624C4.47802 21.307 4.33453 20.9606 4.33453 20.5994C4.33453 20.2382 4.47802 19.8918 4.73344 19.6364C4.98885 19.3809 5.33527 19.2375 5.69648 19.2375H18.4647C18.8259 19.2375 19.1723 19.3809 19.4277 19.6364C19.6832 19.8918 19.8266 20.2382 19.8266 20.5994C19.8266 20.9606 19.6832 21.307 19.4277 21.5624C19.1723 21.8178 18.8259 21.9613 18.4647 21.9613Z" fill="#F9A826"/>
<path d="M16.816 60.2357C17.0908 59.072 18.3819 58.6906 19.4374 58.7333C20.1044 58.7783 20.7659 58.883 21.4141 59.0461C22.0924 59.1978 22.7641 59.3775 23.4323 59.5681C24.6578 59.9175 25.8707 60.3402 27.1164 60.6135C28.1534 60.841 29.2803 60.9744 30.3145 60.6603C31.3086 60.3584 32.152 59.6174 32.4225 58.5928C32.6774 57.6272 32.3274 56.5715 31.3918 56.1303C30.5386 55.7279 29.4609 55.9325 29.038 56.8425C28.5612 57.8685 29.0376 58.9874 29.7926 59.7299C30.2217 60.1328 30.6917 60.4898 31.195 60.7951C31.7058 61.1432 32.2744 61.3979 32.8742 61.5472C33.8591 61.7576 35.0323 61.4476 35.5401 60.5067C35.653 60.2937 35.721 60.0598 35.7396 59.8194C35.7697 59.4923 35.2588 59.4943 35.2289 59.8194C35.1428 60.7563 34.0456 61.1951 33.2251 61.0924C32.6712 61.0006 32.1423 60.7953 31.6716 60.4894C31.2172 60.2245 30.7867 59.9207 30.3848 59.5815C29.6889 58.9793 29.0366 57.9882 29.504 57.0484C29.8845 56.2831 30.8767 56.2908 31.4801 56.7843C32.2109 57.382 32.0806 58.4668 31.5986 59.1765C31.0649 59.9624 30.0976 60.2919 29.1856 60.3274C28.1946 60.366 27.2119 60.1386 26.2647 59.8696C25.0879 59.5354 23.9228 59.1614 22.7404 58.8468C22.069 58.6682 21.3926 58.507 20.7091 58.3816C20.0629 58.2392 19.3992 58.1932 18.7395 58.2452C17.6738 58.3683 16.5859 58.9887 16.3235 60.0999C16.248 60.4195 16.7404 60.5559 16.816 60.2357L16.816 60.2357Z" fill="#3F3D56"/>
<path d="M68.9954 89.112C69.0248 92.4642 69.2703 95.811 69.7305 99.1316C69.7466 99.2483 69.7642 99.3649 69.7803 99.4815L101.174 99.3061C101.266 99.1902 101.356 99.073 101.444 98.9544C101.737 98.5619 102.012 98.1583 102.264 97.7407C103.476 95.7289 104.031 93.3734 103.475 91.7483L103.465 91.7231C103.345 91.3672 103.156 91.0386 102.909 90.756C101.641 89.3289 99.0776 89.5668 96.7514 90.7187C98.8378 88.4349 100.499 85.553 100.625 82.9807C100.749 80.4716 99.4372 78.6792 98.0142 77.1559C97.9675 77.1056 97.9208 77.0566 97.8741 77.0077C97.8514 76.9825 97.8274 76.9587 97.8048 76.9336C96.6946 75.7727 95.4002 74.6284 93.5267 74.7668C91.472 74.9189 89.1939 76.64 87.5966 78.6455C85.9993 80.6496 84.9378 82.9263 83.8619 85.1483C82.7846 87.3688 81.6191 89.6461 79.8904 91.5441C82.2318 88.5825 84.1196 85.2129 84.8169 81.9357C85.5143 78.6586 84.9006 75.511 82.8138 73.9676C82.1803 73.5135 81.4473 73.2177 80.676 73.105C80.586 73.09 80.4945 73.0779 80.4016 73.0671C78.4699 72.8474 76.1635 73.5154 74.2011 75.1124C72.04 76.8708 70.5417 79.4776 69.7962 81.9522C69.0508 84.4268 68.9713 86.8091 68.9954 89.112Z" fill="#F2F2F2"/>
<path d="M89.5347 99.371L90.135 99.3677C90.3256 99.2485 90.5171 99.1308 90.7095 99.0144C90.8286 98.9392 90.9491 98.8668 91.0696 98.793C93.0608 97.5769 95.0645 96.4104 97.0806 95.2935C99.0948 94.1757 101.119 93.1094 103.154 92.0946C103.208 92.0711 103.252 92.0295 103.278 91.9769C103.305 91.9244 103.312 91.8642 103.298 91.8069C103.296 91.7994 103.293 91.7923 103.288 91.7859C103.26 91.7326 103.197 91.7105 103.104 91.756C102.854 91.8811 102.603 92.0063 102.354 92.1342C100.314 93.1664 98.2825 94.2501 96.26 95.3853C94.2388 96.52 92.2292 97.7048 90.231 98.9397C90.189 98.9653 90.1469 98.9922 90.1049 99.0178C89.9144 99.1355 89.7252 99.2533 89.5347 99.371Z" fill="white"/>
<path d="M81.7947 99.4143L82.1659 99.4123C82.2496 99.2951 82.3319 99.1779 82.4156 99.0608C84.3827 96.3023 86.3493 93.5439 88.3155 90.7855C91.5355 86.2696 94.7544 81.7537 97.9725 77.2377C97.9915 77.2134 98.0057 77.1856 98.0142 77.1559C98.0417 77.056 97.9683 76.9973 97.8742 77.0077C97.8345 77.0134 97.7965 77.0274 97.7626 77.0489C97.7288 77.0705 97.7 77.099 97.678 77.1325C95.8728 79.665 94.068 82.1966 92.2636 84.7273C89.0604 89.2207 85.8577 93.7135 82.6555 98.2059C82.4518 98.4911 82.2481 98.7777 82.0444 99.0628C81.9607 99.18 81.877 99.2972 81.7947 99.4143Z" fill="white"/>
<path d="M73.5249 97.2586C73.5439 97.8842 73.5853 98.4999 73.6394 99.1098C73.6498 99.2264 73.6603 99.3431 73.6708 99.4597L74.0603 99.4575C74.0484 99.3409 74.0365 99.2243 74.026 99.1076C73.9437 98.2265 73.8853 97.3354 73.8774 96.4201C73.867 93.8825 74.1143 91.3503 74.6155 88.8627C75.1482 86.1841 75.9131 83.557 76.9015 81.0112C77.9389 78.3261 79.1896 75.7284 80.6417 73.243C80.669 73.2025 80.6812 73.1536 80.6761 73.105C80.66 72.994 80.5122 72.9611 80.4017 73.0671C80.3799 73.088 80.3611 73.1117 80.3459 73.1378C80.1662 73.4467 79.9898 73.7565 79.8167 74.0673C78.4182 76.5665 77.2211 79.1733 76.2369 81.8627C75.2995 84.417 74.5864 87.048 74.1058 89.726C73.6556 92.2105 73.4609 94.7345 73.5249 97.2586Z" fill="white"/>
<path d="M35.5816 60.3567C35.517 60.3029 35.4698 60.2312 35.4459 60.1507C35.422 60.0701 35.4225 59.9843 35.4473 59.904C35.4721 59.8237 35.5201 59.7526 35.5853 59.6996C35.6504 59.6465 35.7298 59.6139 35.8135 59.606C36.742 59.5163 37.6791 59.6123 38.5702 59.8885L47.6467 62.6917C47.7642 62.728 47.8734 62.787 47.9681 62.8655C48.0627 62.944 48.141 63.0403 48.1984 63.1491C48.2558 63.2578 48.2913 63.3768 48.3027 63.4992C48.3142 63.6216 48.3014 63.7451 48.2651 63.8626C48.2288 63.9801 48.1697 64.0893 48.0913 64.184C48.0128 64.2786 47.9164 64.3569 47.8077 64.4143C47.6989 64.4717 47.58 64.5072 47.4576 64.5186C47.3351 64.53 47.2116 64.5172 47.0942 64.481L38.0176 61.6778C37.126 61.4034 36.2979 60.9543 35.5816 60.3567Z" fill="#3F3D56"/>
<path d="M72.7877 72.0012C72.5411 71.8978 72.3202 71.7416 72.1406 71.5436C71.9609 71.3456 71.8269 71.1106 71.7479 70.8551C71.6689 70.5997 71.6468 70.3301 71.6833 70.0652C71.7197 69.8003 71.8138 69.5467 71.959 69.3221L70.4032 61.1859L74.3684 60.8768L74.6077 68.8351C74.9688 69.1039 75.2188 69.4958 75.3102 69.9366C75.4017 70.3773 75.3283 70.8363 75.104 71.2266C74.8796 71.6168 74.5199 71.9112 74.093 72.054C73.6661 72.1968 73.2017 72.178 72.7877 72.0012Z" fill="#FFB8B8"/>
<path d="M70.1585 67.8021L66.1199 48.9933C65.954 48.2207 66.1018 47.4139 66.5308 46.7504C66.9598 46.0869 67.6348 45.6209 68.4073 45.4551C69.1799 45.2892 69.9866 45.437 70.6502 45.866C71.3137 46.295 71.7797 46.97 71.9455 47.7425L75.9842 66.5512C76.0266 66.7499 75.9885 66.9572 75.8783 67.1278C75.768 67.2984 75.5946 67.4182 75.3961 67.4611L71.0684 68.3903C70.97 68.4115 70.8684 68.4131 70.7695 68.3949C70.6705 68.3768 70.5761 68.3394 70.4916 68.2848C70.4071 68.2301 70.3342 68.1594 70.277 68.0766C70.2199 67.9938 70.1796 67.9005 70.1585 67.8021Z" fill="#F9A826"/>
<path d="M63.5295 97.3899H61.4425L60.4495 89.3394L63.53 89.3396L63.5295 97.3899Z" fill="#FFB8B8"/>
<path d="M59.9517 96.7935H63.9769V99.3278H57.4174C57.4174 98.995 57.4829 98.6655 57.6103 98.358C57.7376 98.0505 57.9243 97.7711 58.1597 97.5358C58.395 97.3004 58.6744 97.1137 58.9819 96.9864C59.2894 96.859 59.6189 96.7935 59.9517 96.7935Z" fill="#2F2E41"/>
<path d="M70.5094 97.2196H68.4224L67.4294 89.1692L70.5099 89.1694L70.5094 97.2196Z" fill="#FFB8B8"/>
<path d="M66.9317 96.6232H70.9569V99.1576H64.3973C64.3973 98.8248 64.4628 98.4952 64.5902 98.1877C64.7176 97.8803 64.9042 97.6009 65.1396 97.3655C65.3749 97.1302 65.6543 96.9435 65.9618 96.8161C66.2693 96.6888 66.5988 96.6232 66.9317 96.6232Z" fill="#2F2E41"/>
<path d="M61.029 95.8882C60.9507 95.824 60.8861 95.7448 60.8389 95.6553C60.7916 95.5657 60.7627 95.4677 60.7538 95.3669L58.3274 68.6763C58.318 68.5727 58.3298 68.4682 58.3621 68.3693C58.3944 68.2704 58.4464 68.1791 58.5151 68.101C58.5838 68.0229 58.6677 67.9596 58.7617 67.915C58.8556 67.8703 58.9577 67.8453 59.0617 67.8414L71.2306 67.385C71.3359 67.3811 71.4409 67.3989 71.539 67.4374C71.6371 67.4759 71.7262 67.5342 71.8008 67.6087C71.8753 67.6832 71.9337 67.7723 71.9723 67.8703C72.0108 67.9684 72.0288 68.0734 72.0249 68.1787L71.0522 94.7667C71.045 94.9528 70.9705 95.13 70.8424 95.2652C70.7143 95.4003 70.5414 95.4844 70.356 95.5015L67.9023 95.7246C67.8005 95.7339 67.698 95.7227 67.6006 95.6917C67.5033 95.6607 67.4131 95.6106 67.3354 95.5442C67.2577 95.4779 67.1941 95.3967 67.1483 95.3054C67.1024 95.2141 67.0753 95.1145 67.0686 95.0126L65.9425 78.1216C65.9417 78.0892 65.9344 78.0572 65.9211 78.0276C65.9079 77.9979 65.8888 77.9713 65.8651 77.9491C65.8414 77.9269 65.8135 77.9097 65.7831 77.8984C65.7526 77.8871 65.7203 77.882 65.6878 77.8834H65.6868C65.6542 77.8821 65.6218 77.8873 65.5913 77.8988C65.5608 77.9102 65.5329 77.9277 65.5092 77.95C65.4855 77.9724 65.4666 77.9993 65.4534 78.0291C65.4403 78.0589 65.4333 78.091 65.4327 78.1236L64.425 95.1285C64.4149 95.3105 64.3399 95.483 64.2136 95.6145C64.0873 95.746 63.918 95.8279 63.7365 95.8453L61.593 96.0598C61.4923 96.0702 61.3906 96.0603 61.2937 96.0308C61.1969 96.0014 61.1069 95.9529 61.029 95.8882H61.029Z" fill="#2F2E41"/>
<path d="M65.7098 41.4582C68.0191 41.4582 69.8911 39.5861 69.8911 37.2768C69.8911 34.9675 68.0191 33.0955 65.7098 33.0955C63.4005 33.0955 61.5284 34.9675 61.5284 37.2768C61.5284 39.5861 63.4005 41.4582 65.7098 41.4582Z" fill="#FFB8B8"/>
<path d="M57.6577 68.857C57.5832 68.7724 57.5285 68.6724 57.4975 68.5641C57.4665 68.4557 57.46 68.3419 57.4784 68.2307C58.2504 63.5386 57.8153 56.6416 57.3144 51.6819C57.1836 50.3663 57.4018 49.0394 57.947 47.8349C58.4921 46.6304 59.345 45.5908 60.4198 44.8208L62.6035 42.9491C62.7486 42.8262 62.9338 42.7606 63.124 42.7649L68.5489 42.9199C68.7446 42.9252 68.9307 43.0055 69.0688 43.1442L69.9071 45.0005L69.9157 45.0069C70.9147 45.7411 71.7161 46.7115 72.2483 47.8312C72.7805 48.951 73.027 50.1851 72.9656 51.4234L72.1671 67.9262C72.1569 68.118 72.0753 68.2992 71.9384 68.434C71.8015 68.5688 71.6191 68.6476 71.4271 68.6548L58.2592 69.1175C58.2507 69.1177 58.2423 69.1179 58.2338 69.1179C58.1247 69.118 58.0168 69.0948 57.9175 69.0498C57.8181 69.0048 57.7295 68.9391 57.6577 68.857Z" fill="#F9A826"/>
<path d="M41.8632 61.9705C41.8567 61.7032 41.9088 61.4377 42.0159 61.1928C42.1231 60.9478 42.2826 60.7293 42.4833 60.5527C42.684 60.376 42.921 60.2456 43.1776 60.1704C43.4342 60.0953 43.7042 60.0773 43.9684 60.1178L50.7552 55.3683L52.6602 58.8597L45.4969 62.3353C45.3994 62.7748 45.1442 63.1632 44.7795 63.4271C44.4147 63.6909 43.9659 63.8118 43.518 63.7669C43.0701 63.7219 42.6543 63.5142 42.3493 63.1831C42.0443 62.852 41.8713 62.4206 41.8632 61.9705L41.8632 61.9705Z" fill="#FFB8B8"/>
<path d="M47.5747 62.7961C47.4752 62.7811 47.3797 62.7465 47.2936 62.6943C47.2076 62.6421 47.1327 62.5734 47.0733 62.4922L44.4542 58.9239C44.3342 58.76 44.2842 58.5552 44.315 58.3544C44.3458 58.1536 44.4549 57.9733 44.6185 57.8529L60.1267 46.4699C60.7637 46.0023 61.5603 45.807 62.3414 45.9268C62.7281 45.9861 63.0993 46.121 63.4339 46.3238C63.7685 46.5267 64.0599 46.7934 64.2914 47.1088C64.5229 47.4242 64.69 47.7821 64.7832 48.1621C64.8763 48.5421 64.8938 48.9367 64.8344 49.3234C64.7751 49.7101 64.6402 50.0814 64.4374 50.416C64.2346 50.7506 63.9679 51.0419 63.6525 51.2734L48.1442 62.6564C48.0134 62.7529 47.8551 62.805 47.6926 62.805C47.6531 62.805 47.6137 62.802 47.5747 62.7961Z" fill="#F9A826"/>
<path d="M65.9238 40.9991C66.4783 40.3192 66.4176 39.2836 65.9726 38.5275C65.5275 37.7714 64.772 37.2507 63.9947 36.844C63.2173 36.4372 62.3915 36.1174 61.6599 35.6331C60.9283 35.1488 60.9602 33.0986 60.7654 32.2432L61.23 32.3979C61.0515 32.1695 60.9942 31.4945 60.8156 31.2661C61.3406 31.3179 61.7443 31.8164 62.2693 31.8682L61.9663 31.0551C63.7665 30.9441 64.8858 32.195 66.686 32.0841C67.5779 32.0291 68.5466 31.9943 69.2798 32.5051C69.917 32.949 70.2395 33.7173 70.4512 34.4644C70.9056 36.0687 70.9762 37.8657 70.1914 39.3368C69.4065 40.8078 67.5974 41.7991 66.017 41.2679L65.9238 40.9991Z" fill="#2F2E41"/>
<path d="M42.9672 99.4219H107.83C107.875 99.4219 107.918 99.404 107.95 99.372C107.982 99.3401 108 99.2968 108 99.2517C108 99.2065 107.982 99.1632 107.95 99.1313C107.918 99.0994 107.875 99.0814 107.83 99.0814H42.9672C42.922 99.0814 42.8787 99.0994 42.8468 99.1313C42.8149 99.1632 42.7969 99.2065 42.7969 99.2517C42.7969 99.2968 42.8149 99.3401 42.8468 99.372C42.8787 99.404 42.922 99.4219 42.9672 99.4219Z" fill="#3F3D56"/>
</g>
<defs>
<clipPath id="clip0">
<rect width="108" height="99.4814" fill="white"/>
</clipPath>
</defs>
</svg>
