<svg width="108" height="94" viewBox="0 0 108 94" fill="none" xmlns="http://www.w3.org/2000/svg">
<g clip-path="url(#clip0)">
<path d="M10.6972 86.6451C9.7132 89.9321 11.2404 93.2927 11.2404 93.2927C11.2404 93.2927 14.3629 91.324 15.3469 88.037C16.3309 84.75 14.8037 81.3895 14.8037 81.3895C14.8037 81.3895 11.6812 83.3581 10.6972 86.6451Z" fill="#F2F2F2"/>
<path d="M12.1912 86.734C13.0194 90.0636 11.3357 93.3486 11.3357 93.3486C11.3357 93.3486 8.30932 91.2352 7.48115 87.9055C6.65299 84.5759 8.33664 81.2909 8.33664 81.2909C8.33664 81.2909 11.363 83.4043 12.1912 86.734Z" fill="#F2F2F2"/>
<path d="M61.407 90.0403L62.0333 88.4292L56.1173 85.2466L55.1929 87.6244L61.407 90.0403Z" fill="#FFB8B8"/>
<path d="M64.7628 85.8374C64.4973 85.734 64.214 85.684 63.9292 85.6902C63.6443 85.6964 63.3635 85.7586 63.1027 85.8734C62.8419 85.9882 62.6063 86.1533 62.4094 86.3591C62.2124 86.565 62.058 86.8077 61.9549 87.0733L61.5323 88.1594L60.8809 89.8358L60.7217 90.2469L62.8092 91.0589L64.8284 85.8635L64.7628 85.8374Z" fill="#2F2E41"/>
<path d="M60.8812 86.9397L60.6088 87.6621L59.929 89.4651L59.9127 89.5102C58.1806 89.7328 56.2818 89.2965 54.5255 88.6187C53.8228 88.3476 53.1346 88.0405 52.4636 87.6986C51.4704 87.1968 50.5811 86.6671 49.8717 86.2141C48.8036 85.5286 48.1431 85.0138 48.1431 85.0138C48.1431 85.0138 47.9686 85.1715 47.6529 85.4419C47.2297 85.804 46.5534 86.3694 45.6969 87.035C45.3701 87.2907 45.0193 87.5581 44.6444 87.8373C41.8808 89.8871 38.3342 84.4173 38.3342 84.4173C38.3342 84.4173 39.3317 83.7823 39.5923 83.659C40.4313 83.262 42.4026 82.3253 44.1032 81.4929C44.9794 81.0634 45.7827 80.6607 46.322 80.3745C48.2319 79.3576 50.606 81.2817 50.606 81.2817L60.8812 86.9397Z" fill="#2F2E41"/>
<path opacity="0.14" d="M60.8812 86.9397L60.6088 87.6621L59.929 89.4651L59.9127 89.5102C58.1806 89.7328 56.2818 89.2965 54.5255 88.6187C53.8228 88.3476 53.1346 88.0405 52.4636 87.6986C51.4704 87.1968 50.5811 86.6671 49.8717 86.2141C48.8036 85.5286 48.1431 85.0138 48.1431 85.0138C48.1431 85.0138 47.9686 85.1715 47.6529 85.4419C47.2297 85.804 46.5534 86.3694 45.6969 87.035C45.3701 87.2907 45.0193 87.5581 44.6444 87.8373C41.8808 89.8871 38.3342 84.4173 38.3342 84.4173C38.3342 84.4173 39.3317 83.7823 39.5923 83.659C40.4313 83.262 42.4026 82.3253 44.1032 81.4929C44.9794 81.0634 45.7827 80.6607 46.322 80.3745C48.2319 79.3576 50.606 81.2817 50.606 81.2817L60.8812 86.9397Z" fill="black"/>
<path d="M25.8832 48.5892C39.3007 48.5892 50.1778 37.7121 50.1778 24.2946C50.1778 10.8771 39.3007 0 25.8832 0C12.4656 0 1.58856 10.8771 1.58856 24.2946C1.58856 37.7121 12.4656 48.5892 25.8832 48.5892Z" fill="#F9A826"/>
<path opacity="0.2" d="M7.94484 8.06772C5.67869 13.3686 5.37128 19.3026 7.07752 24.8093C8.78376 30.316 12.3925 35.0366 17.2588 38.1275C22.1252 41.2184 27.932 42.4783 33.6417 41.6819C39.3514 40.8856 44.5919 38.0849 48.4268 33.7804C47.0425 37.019 44.9706 39.918 42.3547 42.2764C39.7388 44.6348 36.6414 46.3963 33.2771 47.4388C29.9128 48.4813 26.3621 48.7799 22.871 48.3139C19.3799 47.8479 16.0318 46.6285 13.0587 44.7401C10.0857 42.8517 7.5587 40.3395 5.65292 37.3776C3.74714 34.4157 2.50811 31.0748 2.02166 27.5865C1.53522 24.0981 1.81301 20.5457 2.83577 17.1754C3.85853 13.8051 5.60181 10.6974 7.94484 8.06772Z" fill="black"/>
<path d="M25.9499 24.2945H26.0167L27.2181 93.1737H24.6818L25.9499 24.2945Z" fill="#3F3D56"/>
<path d="M22.2101 55.533L21.6504 56.596L25.6664 58.7103L26.226 57.6473L22.2101 55.533Z" fill="#3F3D56"/>
<path d="M107.859 93.4479H0.140992C0.103599 93.4479 0.0677367 93.4331 0.0412955 93.4066C0.0148544 93.3802 0 93.3443 0 93.3069C0 93.2695 0.0148544 93.2337 0.0412955 93.2072C0.0677367 93.1808 0.103599 93.1659 0.140992 93.1659H107.859C107.896 93.1659 107.932 93.1808 107.959 93.2072C107.985 93.2337 108 93.2695 108 93.3069C108 93.3443 107.985 93.3802 107.959 93.4066C107.932 93.4331 107.896 93.4479 107.859 93.4479Z" fill="#3F3D56"/>
<path d="M33.2383 71.7758H25.0608C24.8926 71.7756 24.7313 71.7087 24.6124 71.5898C24.4934 71.4708 24.4265 71.3096 24.4263 71.1413V67.6165C24.4263 66.3639 24.924 65.1625 25.8097 64.2767C26.6955 63.3909 27.8969 62.8933 29.1496 62.8933C30.4022 62.8933 31.6036 63.3909 32.4894 64.2767C33.3752 65.1625 33.8728 66.3639 33.8728 67.6165V71.1413C33.8726 71.3096 33.8057 71.4708 33.6868 71.5898C33.5678 71.7087 33.4066 71.7756 33.2383 71.7758Z" fill="#2F2E41"/>
<path d="M41.0152 76.2032C40.8248 76.2366 40.6441 76.3114 40.4858 76.4222C40.3274 76.533 40.1953 76.6772 40.0987 76.8447C40.0021 77.0121 39.9434 77.1986 39.9267 77.3912C39.91 77.5837 39.9358 77.7776 40.0021 77.9591L37.7784 80.0044L38.6917 81.6588L41.7914 78.7265C42.089 78.5948 42.3279 78.3586 42.463 78.0625C42.598 77.7664 42.6197 77.4311 42.5241 77.1201C42.4284 76.809 42.2219 76.5439 41.9438 76.3749C41.6658 76.2059 41.3353 76.1448 41.0152 76.2032Z" fill="#FFB8B8"/>
<path d="M34.3242 85.5019C34.2238 85.5019 34.1232 85.4975 34.0225 85.4889C33.4226 85.4388 32.8453 85.2372 32.3447 84.9029C31.8442 84.5686 31.4367 84.1126 31.1607 83.5777L27.5982 76.7208C27.3647 76.2715 27.3135 75.7496 27.4551 75.2634C27.5967 74.7773 27.9203 74.3645 28.3585 74.1109C28.7968 73.8573 29.3159 73.7824 29.8079 73.9018C30.3 74.0212 30.727 74.3257 31.0003 74.7519L34.2869 82.1263L38.7591 78.4927L41.3485 79.5007L36.9755 84.3285C36.6393 84.6975 36.23 84.9924 35.7735 85.1945C35.317 85.3965 34.8234 85.5012 34.3242 85.5019Z" fill="#CCCCCC"/>
<path d="M47.5021 74.907L43.54 70.9449C43.4014 70.8063 43.2134 70.7285 43.0174 70.7285C42.8214 70.7285 42.6334 70.8063 42.4948 70.9449L38.9305 74.5092C38.7919 74.6478 38.7141 74.8358 38.7141 75.0318C38.7141 75.2278 38.7919 75.4158 38.9305 75.5544L42.6325 79.2563C42.7645 79.3884 42.9416 79.4655 43.1282 79.4723C43.3147 79.4791 43.497 79.4151 43.6382 79.293L47.4627 75.9889C47.5361 75.9254 47.5963 75.8482 47.6399 75.7614C47.6835 75.6747 47.7095 75.5802 47.7166 75.4834C47.7237 75.3866 47.7116 75.2894 47.6811 75.1973C47.6506 75.1051 47.6022 75.0199 47.5388 74.9465C47.527 74.9329 47.5148 74.9197 47.5021 74.907Z" fill="#3F3D56"/>
<path d="M46.9412 75.6018L42.8629 71.5236L39.4973 74.8893L43.4173 78.8091L46.9412 75.6018Z" fill="#F2F2F2"/>
<path d="M43.1521 76.7888C44.0667 76.7888 44.8082 76.0474 44.8082 75.1327C44.8082 74.2181 44.0667 73.4766 43.1521 73.4766C42.2374 73.4766 41.496 74.2181 41.496 75.1327C41.496 76.0474 42.2374 76.7888 43.1521 76.7888Z" fill="#F9A826"/>
<path opacity="0.1" d="M43.8891 76.5442C44.1662 76.2839 44.3452 75.9362 44.3962 75.5595C44.4472 75.1828 44.3671 74.8 44.1692 74.4754C43.9714 74.1508 43.6679 73.9042 43.3097 73.7769C42.9515 73.6496 42.5604 73.6493 42.2021 73.7763C42.3957 73.6407 42.616 73.5482 42.8484 73.5048C43.0807 73.4615 43.3196 73.4684 43.549 73.525C43.7785 73.5817 43.9931 73.6868 44.1786 73.8333C44.364 73.9798 44.516 74.1643 44.6242 74.3744C44.7324 74.5845 44.7944 74.8153 44.8061 75.0514C44.8177 75.2874 44.7786 75.5232 44.6916 75.7429C44.6045 75.9626 44.4714 76.1612 44.3012 76.3252C44.1311 76.4892 43.9278 76.6149 43.705 76.6938C43.7699 76.6484 43.8314 76.5984 43.8891 76.5442Z" fill="black"/>
<path d="M42.3378 74.8036C42.1403 74.9892 42.1299 75.6572 42.4314 75.9781C42.733 76.2991 43.2323 76.1514 43.4298 75.9658C43.6273 75.7803 43.4482 75.6271 43.1466 75.3061C42.8451 74.9852 42.5353 74.618 42.3378 74.8036Z" fill="#F2F2F2"/>
<path d="M44.019 75.6504C44.29 75.6504 44.5097 75.4307 44.5097 75.1597C44.5097 74.8887 44.29 74.669 44.019 74.669C43.748 74.669 43.5283 74.8887 43.5283 75.1597C43.5283 75.4307 43.748 75.6504 44.019 75.6504Z" fill="#2F2E41"/>
<path d="M43.1371 74.7117C43.4081 74.7117 43.6278 74.492 43.6278 74.221C43.6278 73.95 43.4081 73.7303 43.1371 73.7303C42.8661 73.7303 42.6464 73.95 42.6464 74.221C42.6464 74.492 42.8661 74.7117 43.1371 74.7117Z" fill="#2F2E41"/>
<path d="M44.019 75.2824C44.0868 75.2824 44.1417 75.2274 44.1417 75.1597C44.1417 75.0919 44.0868 75.037 44.019 75.037C43.9513 75.037 43.8964 75.0919 43.8964 75.1597C43.8964 75.2274 43.9513 75.2824 44.019 75.2824Z" fill="#F2F2F2"/>
<path d="M44.0718 74.919C44.1056 74.919 44.1331 74.8915 44.1331 74.8576C44.1331 74.8237 44.1056 74.7963 44.0718 74.7963C44.0379 74.7963 44.0104 74.8237 44.0104 74.8576C44.0104 74.8915 44.0379 74.919 44.0718 74.919Z" fill="#F2F2F2"/>
<path d="M43.1899 73.9803C43.2238 73.9803 43.2512 73.9528 43.2512 73.9189C43.2512 73.885 43.2238 73.8576 43.1899 73.8576C43.156 73.8576 43.1285 73.885 43.1285 73.9189C43.1285 73.9528 43.156 73.9803 43.1899 73.9803Z" fill="#F2F2F2"/>
<path d="M43.137 74.3437C43.2047 74.3437 43.2596 74.2888 43.2596 74.221C43.2596 74.1532 43.2047 74.0983 43.137 74.0983C43.0692 74.0983 43.0143 74.1532 43.0143 74.221C43.0143 74.2888 43.0692 74.3437 43.137 74.3437Z" fill="#F2F2F2"/>
<path d="M60.9072 92.3061L61.6554 90.748L56.0015 87.1203L54.8971 89.42L60.9072 92.3061Z" fill="#FFB8B8"/>
<path d="M64.5762 88.3736C64.3194 88.2501 64.0408 88.1785 63.7563 88.1628C63.4718 88.1471 63.187 88.1876 62.9182 88.282C62.6494 88.3764 62.4018 88.5228 62.1896 88.713C61.9774 88.9031 61.8048 89.1332 61.6816 89.3901L61.1769 90.4405L60.3986 92.0619L60.2083 92.4595L62.2272 93.4296L64.6396 88.4046L64.5762 88.3736Z" fill="#2F2E41"/>
<path d="M60.6213 89.1745L60.2942 89.8738L59.4778 91.6193L59.4581 91.663C57.714 91.7518 55.8544 91.1709 54.1554 90.3602C53.4756 90.036 52.813 89.6769 52.1702 89.2844C51.2185 88.7078 50.3726 88.1114 49.7 87.6052C48.6877 86.8396 48.0687 86.2757 48.0687 86.2757C48.0687 86.2757 47.8827 86.4195 47.5471 86.6648C47.0973 86.9933 46.3797 87.5051 45.4745 88.1029C45.1291 88.3327 44.7587 88.5724 44.3635 88.822C41.4506 90.6535 37.3082 92.884 33.7848 93.3549C27.5967 94.1825 29.0531 85.9246 29.0531 85.9246L33.978 83.367L36.0689 83.7914L38.3967 84.2623L39.2215 84.4301C39.2215 84.4301 39.378 84.3708 39.6473 84.2679C40.5144 83.9366 42.5517 83.1541 44.3113 82.4548C45.2179 82.0938 46.0497 81.754 46.6095 81.5101C48.5918 80.643 50.811 82.7438 50.811 82.7438L60.6213 89.1745Z" fill="#2F2E41"/>
<path d="M20.0413 93.552C20.2297 93.5088 20.4063 93.4248 20.5587 93.3059C20.7111 93.1871 20.8356 93.0362 20.9234 92.864C21.0112 92.6918 21.0602 92.5025 21.0669 92.3093C21.0736 92.1162 21.0379 91.9239 20.9622 91.746L23.0772 89.5886L22.0796 87.9836L19.1357 91.0723C18.8453 91.2191 18.6189 91.4674 18.4993 91.7701C18.3798 92.0727 18.3754 92.4087 18.487 92.7144C18.5987 93.02 18.8185 93.2742 19.105 93.4285C19.3915 93.5829 19.7246 93.6269 20.0413 93.552L20.0413 93.552Z" fill="#FFB8B8"/>
<path d="M30.3074 71.9332C32.1284 71.9332 33.6047 70.457 33.6047 68.6359C33.6047 66.8149 32.1284 65.3387 30.3074 65.3387C28.4864 65.3387 27.0101 66.8149 27.0101 68.6359C27.0101 70.457 28.4864 71.9332 30.3074 71.9332Z" fill="#FFB8B8"/>
<path d="M26.0178 77.7887L28.89 85.9319L28.8728 85.9604C28.4733 86.6208 28.3427 87.1535 28.4952 87.5009C28.5354 87.5892 28.5943 87.6678 28.6678 87.7311C28.7412 87.7945 28.8276 87.8412 28.9208 87.868L35.7179 83.117L35.4799 81.2129L35.4932 81.1916C36.1501 80.1404 36.3629 79.1885 36.1255 78.3623C35.8175 77.2902 34.8389 76.8034 34.829 76.7986L34.8054 76.78L31.4152 72.6538L26.8834 73.4589L26.0178 77.7887Z" fill="#CCCCCC"/>
<path d="M21.6498 92.0819L19.7256 89.7137L24.3642 82.0564L26.5268 75.3716L26.5939 75.3933L26.5268 75.3716C26.645 75.0065 26.84 74.6708 27.0989 74.3874C27.3577 74.104 27.6742 73.8793 28.0272 73.7286C28.3802 73.5778 28.7614 73.5045 29.1451 73.5136C29.5289 73.5226 29.9062 73.6138 30.2517 73.781C30.5972 73.9482 30.9028 74.1875 31.148 74.4828C31.3932 74.7781 31.5722 75.1226 31.673 75.4929C31.7738 75.8633 31.7941 76.2509 31.7324 76.6298C31.6707 77.0086 31.5285 77.3698 31.3154 77.6891L27.3451 83.6374L21.6498 92.0819Z" fill="#CCCCCC"/>
<path d="M34.9902 67.969H29.9899L29.9386 67.2511L29.6822 67.969H28.9123L28.8106 66.5462L28.3025 67.969H26.8127V67.8985C26.8138 66.9079 27.2078 65.9583 27.9082 65.2578C28.6087 64.5574 29.5584 64.1634 30.5489 64.1622H31.2539C32.2445 64.1634 33.1942 64.5574 33.8947 65.2578C34.5951 65.9583 34.9891 66.9079 34.9902 67.8985V67.969Z" fill="#2F2E41"/>
<path d="M29.9489 72.4338C29.9113 72.4338 29.8737 72.4304 29.8367 72.4239L26.1752 71.7779V65.7265H30.2058L30.106 65.8428C28.7176 67.462 29.7636 70.0876 30.5106 71.5085C30.5657 71.6126 30.5903 71.7301 30.5815 71.8475C30.5727 71.9649 30.5309 72.0775 30.461 72.1722C30.4024 72.2532 30.3255 72.3191 30.2364 72.3646C30.1474 72.4101 30.0489 72.4338 29.9489 72.4338Z" fill="#2F2E41"/>
<path d="M82.923 61.8518C91.7999 61.8518 98.9961 54.6556 98.9961 45.7787C98.9961 36.9017 91.7999 29.7056 82.923 29.7056C74.046 29.7056 66.8499 36.9017 66.8499 45.7787C66.8499 54.6556 74.046 61.8518 82.923 61.8518Z" fill="#3F3D56"/>
<path d="M78.8135 39.5311V53.2061C78.81 53.2695 78.8237 53.3326 78.8531 53.3888C78.8825 53.445 78.9265 53.4922 78.9805 53.5254C79.0345 53.5587 79.0965 53.5767 79.16 53.5776C79.2234 53.5786 79.2859 53.5623 79.3408 53.5307L90.1808 46.6932C90.2338 46.6578 90.2773 46.6098 90.3074 46.5536C90.3374 46.4974 90.3532 46.4346 90.3532 46.3709C90.3532 46.3071 90.3374 46.2444 90.3074 46.1881C90.2773 46.1319 90.2338 46.084 90.1808 46.0486L79.3408 39.2111C79.2864 39.1785 79.2241 39.1614 79.1606 39.1616C79.0972 39.1618 79.035 39.1793 78.9807 39.2122C78.9265 39.2451 78.8822 39.2922 78.8528 39.3484C78.8233 39.4046 78.8097 39.4678 78.8135 39.5311Z" fill="#F2F2F2"/>
</g>
<defs>
<clipPath id="clip0">
<rect width="108" height="93.5878" fill="white"/>
</clipPath>
</defs>
</svg>
